<svg width="16" height="17" viewBox="0 0 16 17" fill="none" xmlns="http://www.w3.org/2000/svg">
<path d="M8.00938 9.06446L3.75938 13.5801C3.46563 13.8922 2.99063 13.8922 2.7 13.5801L1.99375 12.8297C1.7 12.5176 1.7 12.0129 1.99375 11.7041L5.00625 8.50333L1.99375 5.30255C1.7 4.99044 1.7 4.48575 1.99375 4.17697L2.69687 3.41993C2.99062 3.10782 3.46562 3.10782 3.75625 3.41993L8.00625 7.93556C8.30312 8.24767 8.30312 8.75236 8.00938 9.06446ZM14.0094 7.93556L9.75937 3.41993C9.46562 3.10782 8.99062 3.10782 8.7 3.41993L7.99375 4.17032C7.7 4.48243 7.7 4.98712 7.99375 5.29591L11.0063 8.49669L7.99375 11.6975C7.7 12.0096 7.7 12.5143 7.99375 12.8231L8.7 13.5734C8.99375 13.8856 9.46875 13.8856 9.75937 13.5734L14.0094 9.05782C14.3031 8.75236 14.3031 8.24767 14.0094 7.93556Z" fill="#FF64AE"/>
</svg>
