<svg width="1148" height="1534" viewBox="0 0 1148 1534" fill="none" xmlns="http://www.w3.org/2000/svg">
<path d="M541.789 421.191C802.6 362.432 863.222 98.7168 1148 0L1146.12 1414H321.391C335.802 1311.05 291.837 1177.35 143.757 992.338C26.7438 846.144 68.568 684.906 115.091 604.052C206.258 482.302 280.346 480.094 541.789 421.191Z" fill="url(#paint0_linear_2_2999)"/>
<path d="M505 477.5C782.5 415 847 134.5 1150 29.5L1148 1533.5H270.5C285.833 1424 239.055 1281.78 81.5008 1085C-43 929.5 1.50031 758 51.0006 672C148.001 542.5 226.829 540.151 505 477.5Z" fill="url(#paint1_linear_2_2999)"/>
<defs>
<linearGradient id="paint0_linear_2_2999" x1="608" y1="0" x2="608" y2="1414" gradientUnits="userSpaceOnUse">
<stop stop-color="#F5F7FF"/>
<stop offset="1" stop-color="white" stop-opacity="0"/>
</linearGradient>
<linearGradient id="paint1_linear_2_2999" x1="575.448" y1="29.5" x2="575.448" y2="1533.5" gradientUnits="userSpaceOnUse">
<stop stop-color="#E4E7FF"/>
<stop offset="1" stop-color="white" stop-opacity="0"/>
</linearGradient>
</defs>
</svg>
