<svg width="65" height="65" viewBox="0 0 65 65" fill="none" xmlns="http://www.w3.org/2000/svg">
<g clip-path="url(#clip0_2_104)">
<path d="M29.995 63.6886C11.5489 36.9473 8.125 34.2028 8.125 24.375C8.125 10.913 19.038 0 32.5 0C45.962 0 56.875 10.913 56.875 24.375C56.875 34.2028 53.4511 36.9473 35.005 63.6886C33.7945 65.4372 31.2053 65.4371 29.995 63.6886ZM32.5 34.5312C38.1092 34.5312 42.6562 29.9842 42.6562 24.375C42.6562 18.7658 38.1092 14.2188 32.5 14.2188C26.8908 14.2188 22.3438 18.7658 22.3438 24.375C22.3438 29.9842 26.8908 34.5312 32.5 34.5312Z" fill="#091156"/>
</g>
<defs>
<clipPath id="clip0_2_104">
<rect width="65" height="65" fill="white"/>
</clipPath>
</defs>
</svg>
