<svg width="65" height="65" viewBox="0 0 65 65" fill="none" xmlns="http://www.w3.org/2000/svg">
<g clip-path="url(#clip0_2_91)">
<path d="M18.0556 54.1667C15.1667 54.1667 12.2778 51.6389 10.8333 50.5556C3.61111 45.5 1.44444 43.6945 0 42.6111V57.7778C0 59.7718 1.6171 61.3889 3.61111 61.3889H32.5C34.494 61.3889 36.1111 59.7718 36.1111 57.7778V42.6111C34.6667 43.6945 32.5 45.5 25.2778 50.5556C23.8333 51.6389 20.9444 54.1667 18.0556 54.1667ZM32.5 32.5H3.61111C1.6171 32.5 0 34.1171 0 36.1111V37.9167C2.88889 40.0834 2.52778 40.0834 13 47.6667C14.0833 48.3889 16.25 50.5556 18.0556 50.5556C19.8611 50.5556 22.0278 48.3889 23.1111 48.0278C33.5833 40.4445 33.2222 40.4445 36.1111 38.2778V36.1111C36.1111 34.1171 34.494 32.5 32.5 32.5ZM61.3889 21.6667H25.2778C23.2838 21.6667 21.6667 23.2838 21.6667 25.2778V28.8889H32.5C36.2477 28.8889 39.3374 31.7575 39.6895 35.4137L39.7222 35.3889V50.5556H61.3889C63.3829 50.5556 65 48.9385 65 46.9445V25.2778C65 23.2838 63.3829 21.6667 61.3889 21.6667ZM57.7778 36.1111H50.5556V28.8889H57.7778V36.1111ZM18.0556 25.2778C18.0556 21.2954 21.2954 18.0556 25.2778 18.0556H50.5556V7.22226C50.5556 5.22825 48.9385 3.61115 46.9444 3.61115H10.8333C8.83932 3.61115 7.22222 5.22825 7.22222 7.22226V28.8889H18.0556V25.2778Z" fill="#091156"/>
</g>
<defs>
<clipPath id="clip0_2_91">
<rect width="65" height="65" fill="white"/>
</clipPath>
</defs>
</svg>
