<svg width="520" height="614" viewBox="0 0 520 614" fill="none" xmlns="http://www.w3.org/2000/svg">
<path d="M510.259 430.775H11.2202V431.025H510.259V430.775Z" fill="#EBEBEB"/>
<path d="M460.255 446.851H427.199V447.101H460.255V446.851Z" fill="#EBEBEB"/>
<path d="M341.803 449.569H333.13V449.818H341.803V449.569Z" fill="#EBEBEB"/>
<path d="M426.2 437.579H407.047V437.829H426.2V437.579Z" fill="#EBEBEB"/>
<path d="M106.686 439.258H63.5791V439.507H106.686V439.258Z" fill="#EBEBEB"/>
<path d="M121.897 439.258H115.579V439.507H121.897V439.258Z" fill="#EBEBEB"/>
<path d="M235.937 443.474H142.438V443.724H235.937V443.474Z" fill="#EBEBEB"/>
<path d="M247.785 386.214H55.056C51.912 386.214 49.3569 383.656 49.3569 380.509V109.315C49.3569 106.168 51.912 103.61 55.056 103.61H247.785C250.929 103.61 253.484 106.168 253.484 109.315V380.509C253.474 383.656 250.919 386.214 247.785 386.214ZM55.056 103.86C52.0517 103.86 49.6065 106.308 49.6065 109.315V380.509C49.6065 383.516 52.0517 385.964 55.056 385.964H247.785C250.789 385.964 253.234 383.516 253.234 380.509V109.315C253.234 106.308 250.789 103.86 247.785 103.86H55.056V103.86Z" fill="#EBEBEB"/>
<path d="M463.659 386.214H270.93C267.786 386.214 265.231 383.656 265.231 380.509V109.315C265.231 106.168 267.786 103.61 270.93 103.61H463.659C466.803 103.61 469.358 106.168 469.358 109.315V380.509C469.358 383.656 466.803 386.214 463.659 386.214ZM270.94 103.86C267.936 103.86 265.49 106.308 265.49 109.315V380.509C265.49 383.516 267.936 385.964 270.94 385.964H463.669C466.673 385.964 469.118 383.516 469.118 380.509V109.315C469.118 106.308 466.673 103.86 463.669 103.86H270.94V103.86Z" fill="#EBEBEB"/>
<path d="M455.783 165.776H213.969V399.113H455.783V165.776Z" fill="#E0E0E0"/>
<path d="M455.783 170.022H217.852V395.046H455.783V170.022Z" fill="#F5F5F5"/>
<path d="M219.608 340.544V272.863H226.635V263.92L242.434 256.527V247.375H245.069V272.863H247.704V340.544H251.217V305.384H259.122V286.93H261.757V340.544H267.905V320.331H272.297V315.056H281.948V296.592H287.218V284.293H293.366V265.829H296.001V284.293H302.149V296.592H307.419V315.056H317.08V320.331H321.462V340.544H326.732V315.056H336.393V258.795H339.028V252.65H360.097V258.795H364.489V299.23H382.055V303.626H388.203V306.263H382.055V322.09H400.49V269.346H404.003V258.795H412.786V218.36H415.421V258.795H421.569V269.346H455.783V395.046H217.852V340.544H219.608Z" fill="#E6E6E6"/>
<path d="M437.498 272.103H435.013V274.591H437.498V272.103Z" fill="#F0F0F0"/>
<path d="M437.498 276.28H435.013V278.767H437.498V276.28Z" fill="#F0F0F0"/>
<path d="M437.498 292.975H435.013V295.463H437.498V292.975Z" fill="#F0F0F0"/>
<path d="M437.498 297.151H435.013V299.639H437.498V297.151Z" fill="#F0F0F0"/>
<path d="M437.498 301.328H435.013V303.816H437.498V301.328Z" fill="#F0F0F0"/>
<path d="M437.498 313.857H435.013V316.345H437.498V313.857Z" fill="#F0F0F0"/>
<path d="M437.498 318.033H435.013V320.521H437.498V318.033Z" fill="#F0F0F0"/>
<path d="M433.546 288.809H431.061V291.297H433.546V288.809Z" fill="#F0F0F0"/>
<path d="M433.546 292.975H431.061V295.463H433.546V292.975Z" fill="#F0F0F0"/>
<path d="M433.546 297.151H431.061V299.639H433.546V297.151Z" fill="#F0F0F0"/>
<path d="M433.546 301.328H431.061V303.816H433.546V301.328Z" fill="#F0F0F0"/>
<path d="M433.546 305.504H431.061V307.992H433.546V305.504Z" fill="#F0F0F0"/>
<path d="M433.546 313.857H431.061V316.345H433.546V313.857Z" fill="#F0F0F0"/>
<path d="M433.546 318.033H431.061V320.521H433.546V318.033Z" fill="#F0F0F0"/>
<path d="M429.594 272.103H427.108V274.591H429.594V272.103Z" fill="#F0F0F0"/>
<path d="M429.594 276.28H427.108V278.767H429.594V276.28Z" fill="#F0F0F0"/>
<path d="M429.594 280.456H427.108V282.944H429.594V280.456Z" fill="#F0F0F0"/>
<path d="M429.594 284.632H427.108V287.12H429.594V284.632Z" fill="#F0F0F0"/>
<path d="M429.594 288.809H427.108V291.297H429.594V288.809Z" fill="#F0F0F0"/>
<path d="M429.594 292.975H427.108V295.463H429.594V292.975Z" fill="#F0F0F0"/>
<path d="M429.594 297.151H427.108V299.639H429.594V297.151Z" fill="#F0F0F0"/>
<path d="M429.594 301.328H427.108V303.816H429.594V301.328Z" fill="#F0F0F0"/>
<path d="M429.594 305.504H427.108V307.992H429.594V305.504Z" fill="#F0F0F0"/>
<path d="M429.594 309.681H427.108V312.168H429.594V309.681Z" fill="#F0F0F0"/>
<path d="M429.594 318.033H427.108V320.521H429.594V318.033Z" fill="#F0F0F0"/>
<path d="M425.641 272.103H423.156V274.591H425.641V272.103Z" fill="#F0F0F0"/>
<path d="M425.641 276.28H423.156V278.767H425.641V276.28Z" fill="#F0F0F0"/>
<path d="M425.641 280.456H423.156V282.944H425.641V280.456Z" fill="#F0F0F0"/>
<path d="M425.641 284.632H423.156V287.12H425.641V284.632Z" fill="#F0F0F0"/>
<path d="M425.641 288.809H423.156V291.297H425.641V288.809Z" fill="#F0F0F0"/>
<path d="M425.641 292.975H423.156V295.463H425.641V292.975Z" fill="#F0F0F0"/>
<path d="M425.641 297.151H423.156V299.639H425.641V297.151Z" fill="#F0F0F0"/>
<path d="M425.641 334.729H423.156V337.217H425.641V334.729Z" fill="#F0F0F0"/>
<path d="M421.689 272.103H419.204V274.591H421.689V272.103Z" fill="#F0F0F0"/>
<path d="M421.689 276.28H419.204V278.767H421.689V276.28Z" fill="#F0F0F0"/>
<path d="M421.689 280.456H419.204V282.944H421.689V280.456Z" fill="#F0F0F0"/>
<path d="M421.689 284.632H419.204V287.12H421.689V284.632Z" fill="#F0F0F0"/>
<path d="M421.689 288.809H419.204V291.297H421.689V288.809Z" fill="#F0F0F0"/>
<path d="M421.689 292.975H419.204V295.463H421.689V292.975Z" fill="#F0F0F0"/>
<path d="M421.689 297.151H419.204V299.639H421.689V297.151Z" fill="#F0F0F0"/>
<path d="M421.689 301.328H419.204V303.816H421.689V301.328Z" fill="#F0F0F0"/>
<path d="M421.689 326.386H419.204V328.874H421.689V326.386Z" fill="#F0F0F0"/>
<path d="M421.689 330.562H419.204V333.05H421.689V330.562Z" fill="#F0F0F0"/>
<path d="M421.689 334.729H419.204V337.217H421.689V334.729Z" fill="#F0F0F0"/>
<path d="M421.689 338.905H419.204V341.393H421.689V338.905Z" fill="#F0F0F0"/>
<path d="M421.689 355.61H419.204V358.098H421.689V355.61Z" fill="#F0F0F0"/>
<path d="M417.746 272.103H415.261V274.591H417.746V272.103Z" fill="#F0F0F0"/>
<path d="M417.746 276.28H415.261V278.767H417.746V276.28Z" fill="#F0F0F0"/>
<path d="M417.746 280.456H415.261V282.944H417.746V280.456Z" fill="#F0F0F0"/>
<path d="M417.746 284.632H415.261V287.12H417.746V284.632Z" fill="#F0F0F0"/>
<path d="M417.746 288.809H415.261V291.297H417.746V288.809Z" fill="#F0F0F0"/>
<path d="M417.746 292.975H415.261V295.463H417.746V292.975Z" fill="#F0F0F0"/>
<path d="M417.746 297.151H415.261V299.639H417.746V297.151Z" fill="#F0F0F0"/>
<path d="M417.746 301.328H415.261V303.816H417.746V301.328Z" fill="#F0F0F0"/>
<path d="M417.746 305.504H415.261V307.992H417.746V305.504Z" fill="#F0F0F0"/>
<path d="M417.746 309.681H415.261V312.168H417.746V309.681Z" fill="#F0F0F0"/>
<path d="M417.746 322.21H415.261V324.697H417.746V322.21Z" fill="#F0F0F0"/>
<path d="M417.746 326.386H415.261V328.874H417.746V326.386Z" fill="#F0F0F0"/>
<path d="M417.746 330.562H415.261V333.05H417.746V330.562Z" fill="#F0F0F0"/>
<path d="M417.746 334.729H415.261V337.217H417.746V334.729Z" fill="#F0F0F0"/>
<path d="M417.746 338.905H415.261V341.393H417.746V338.905Z" fill="#F0F0F0"/>
<path d="M417.746 355.61H415.261V358.098H417.746V355.61Z" fill="#F0F0F0"/>
<path d="M413.794 272.103H411.309V274.591H413.794V272.103Z" fill="#F0F0F0"/>
<path d="M413.794 276.28H411.309V278.767H413.794V276.28Z" fill="#F0F0F0"/>
<path d="M413.794 280.456H411.309V282.944H413.794V280.456Z" fill="#F0F0F0"/>
<path d="M413.794 284.632H411.309V287.12H413.794V284.632Z" fill="#F0F0F0"/>
<path d="M413.794 288.809H411.309V291.297H413.794V288.809Z" fill="#F0F0F0"/>
<path d="M413.794 292.975H411.309V295.463H413.794V292.975Z" fill="#F0F0F0"/>
<path d="M413.794 297.151H411.309V299.639H413.794V297.151Z" fill="#F0F0F0"/>
<path d="M413.794 301.328H411.309V303.816H413.794V301.328Z" fill="#F0F0F0"/>
<path d="M413.794 305.504H411.309V307.992H413.794V305.504Z" fill="#F0F0F0"/>
<path d="M413.794 309.681H411.309V312.168H413.794V309.681Z" fill="#F0F0F0"/>
<path d="M413.794 313.857H411.309V316.345H413.794V313.857Z" fill="#F0F0F0"/>
<path d="M413.794 318.033H411.309V320.521H413.794V318.033Z" fill="#F0F0F0"/>
<path d="M413.794 322.21H411.309V324.697H413.794V322.21Z" fill="#F0F0F0"/>
<path d="M413.794 326.386H411.309V328.874H413.794V326.386Z" fill="#F0F0F0"/>
<path d="M413.794 330.562H411.309V333.05H413.794V330.562Z" fill="#F0F0F0"/>
<path d="M413.794 334.729H411.309V337.217H413.794V334.729Z" fill="#F0F0F0"/>
<path d="M413.794 338.905H411.309V341.393H413.794V338.905Z" fill="#F0F0F0"/>
<path d="M413.794 343.082H411.309V345.569H413.794V343.082Z" fill="#F0F0F0"/>
<path d="M409.842 272.103H407.356V274.591H409.842V272.103Z" fill="#F0F0F0"/>
<path d="M409.842 276.28H407.356V278.767H409.842V276.28Z" fill="#F0F0F0"/>
<path d="M409.842 280.456H407.356V282.944H409.842V280.456Z" fill="#F0F0F0"/>
<path d="M409.842 284.632H407.356V287.12H409.842V284.632Z" fill="#F0F0F0"/>
<path d="M409.842 288.809H407.356V291.297H409.842V288.809Z" fill="#F0F0F0"/>
<path d="M409.842 292.975H407.356V295.463H409.842V292.975Z" fill="#F0F0F0"/>
<path d="M409.842 297.151H407.356V299.639H409.842V297.151Z" fill="#F0F0F0"/>
<path d="M409.842 301.328H407.356V303.816H409.842V301.328Z" fill="#F0F0F0"/>
<path d="M409.842 305.504H407.356V307.992H409.842V305.504Z" fill="#F0F0F0"/>
<path d="M409.842 309.681H407.356V312.168H409.842V309.681Z" fill="#F0F0F0"/>
<path d="M409.842 322.21H407.356V324.697H409.842V322.21Z" fill="#F0F0F0"/>
<path d="M409.842 326.386H407.356V328.874H409.842V326.386Z" fill="#F0F0F0"/>
<path d="M409.842 330.562H407.356V333.05H409.842V330.562Z" fill="#F0F0F0"/>
<path d="M409.842 334.729H407.356V337.217H409.842V334.729Z" fill="#F0F0F0"/>
<path d="M405.889 272.103H403.404V274.591H405.889V272.103Z" fill="#F0F0F0"/>
<path d="M405.889 276.28H403.404V278.767H405.889V276.28Z" fill="#F0F0F0"/>
<path d="M405.889 280.456H403.404V282.944H405.889V280.456Z" fill="#F0F0F0"/>
<path d="M405.889 284.632H403.404V287.12H405.889V284.632Z" fill="#F0F0F0"/>
<path d="M405.889 288.809H403.404V291.297H405.889V288.809Z" fill="#F0F0F0"/>
<path d="M405.889 292.975H403.404V295.463H405.889V292.975Z" fill="#F0F0F0"/>
<path d="M405.889 297.151H403.404V299.639H405.889V297.151Z" fill="#F0F0F0"/>
<path d="M405.889 301.328H403.404V303.816H405.889V301.328Z" fill="#F0F0F0"/>
<path d="M405.889 305.504H403.404V307.992H405.889V305.504Z" fill="#F0F0F0"/>
<path d="M405.889 309.681H403.404V312.168H405.889V309.681Z" fill="#F0F0F0"/>
<path d="M405.889 322.21H403.404V324.697H405.889V322.21Z" fill="#F0F0F0"/>
<path d="M405.889 326.386H403.404V328.874H405.889V326.386Z" fill="#F0F0F0"/>
<path d="M405.889 330.562H403.404V333.05H405.889V330.562Z" fill="#F0F0F0"/>
<path d="M361.395 261.263H358.91V263.751H361.395V261.263Z" fill="#F0F0F0"/>
<path d="M361.395 265.439H358.91V267.927H361.395V265.439Z" fill="#F0F0F0"/>
<path d="M361.395 269.615H358.91V272.103H361.395V269.615Z" fill="#F0F0F0"/>
<path d="M361.395 273.792H358.91V276.28H361.395V273.792Z" fill="#F0F0F0"/>
<path d="M361.395 277.968H358.91V280.456H361.395V277.968Z" fill="#F0F0F0"/>
<path d="M361.395 282.135H358.91V284.622H361.395V282.135Z" fill="#F0F0F0"/>
<path d="M361.395 286.311H358.91V288.799H361.395V286.311Z" fill="#F0F0F0"/>
<path d="M361.395 290.487H358.91V292.975H361.395V290.487Z" fill="#F0F0F0"/>
<path d="M361.395 303.016H358.91V305.504H361.395V303.016Z" fill="#F0F0F0"/>
<path d="M361.395 307.193H358.91V309.681H361.395V307.193Z" fill="#F0F0F0"/>
<path d="M357.443 261.263H354.958V263.751H357.443V261.263Z" fill="#F0F0F0"/>
<path d="M357.443 265.439H354.958V267.927H357.443V265.439Z" fill="#F0F0F0"/>
<path d="M357.443 269.615H354.958V272.103H357.443V269.615Z" fill="#F0F0F0"/>
<path d="M357.443 273.792H354.958V276.28H357.443V273.792Z" fill="#F0F0F0"/>
<path d="M357.443 277.968H354.958V280.456H357.443V277.968Z" fill="#F0F0F0"/>
<path d="M357.443 282.135H354.958V284.622H357.443V282.135Z" fill="#F0F0F0"/>
<path d="M357.443 286.311H354.958V288.799H357.443V286.311Z" fill="#F0F0F0"/>
<path d="M357.443 290.487H354.958V292.975H357.443V290.487Z" fill="#F0F0F0"/>
<path d="M357.443 307.193H354.958V309.681H357.443V307.193Z" fill="#F0F0F0"/>
<path d="M353.491 261.263H351.005V263.751H353.491V261.263Z" fill="#F0F0F0"/>
<path d="M353.491 265.439H351.005V267.927H353.491V265.439Z" fill="#F0F0F0"/>
<path d="M353.491 269.615H351.005V272.103H353.491V269.615Z" fill="#F0F0F0"/>
<path d="M353.491 273.792H351.005V276.28H353.491V273.792Z" fill="#F0F0F0"/>
<path d="M353.491 277.968H351.005V280.456H353.491V277.968Z" fill="#F0F0F0"/>
<path d="M353.491 282.135H351.005V284.622H353.491V282.135Z" fill="#F0F0F0"/>
<path d="M353.491 286.311H351.005V288.799H353.491V286.311Z" fill="#F0F0F0"/>
<path d="M353.491 290.487H351.005V292.975H353.491V290.487Z" fill="#F0F0F0"/>
<path d="M349.548 261.263H347.063V263.751H349.548V261.263Z" fill="#F0F0F0"/>
<path d="M349.548 265.439H347.063V267.927H349.548V265.439Z" fill="#F0F0F0"/>
<path d="M349.548 269.615H347.063V272.103H349.548V269.615Z" fill="#F0F0F0"/>
<path d="M349.548 273.792H347.063V276.28H349.548V273.792Z" fill="#F0F0F0"/>
<path d="M349.548 277.968H347.063V280.456H349.548V277.968Z" fill="#F0F0F0"/>
<path d="M349.548 282.135H347.063V284.622H349.548V282.135Z" fill="#F0F0F0"/>
<path d="M349.548 290.487H347.063V292.975H349.548V290.487Z" fill="#F0F0F0"/>
<path d="M349.548 294.664H347.063V297.151H349.548V294.664Z" fill="#F0F0F0"/>
<path d="M349.548 307.193H347.063V309.681H349.548V307.193Z" fill="#F0F0F0"/>
<path d="M349.548 311.369H347.063V313.857H349.548V311.369Z" fill="#F0F0F0"/>
<path d="M349.548 315.545H347.063V318.033H349.548V315.545Z" fill="#F0F0F0"/>
<path d="M349.548 319.722H347.063V322.21H349.548V319.722Z" fill="#F0F0F0"/>
<path d="M349.548 323.888H347.063V326.376H349.548V323.888Z" fill="#F0F0F0"/>
<path d="M349.548 328.064H347.063V330.552H349.548V328.064Z" fill="#F0F0F0"/>
<path d="M349.548 332.241H347.063V334.729H349.548V332.241Z" fill="#F0F0F0"/>
<path d="M345.596 261.263H343.11V263.751H345.596V261.263Z" fill="#F0F0F0"/>
<path d="M345.596 265.439H343.11V267.927H345.596V265.439Z" fill="#F0F0F0"/>
<path d="M345.596 269.615H343.11V272.103H345.596V269.615Z" fill="#F0F0F0"/>
<path d="M345.596 273.792H343.11V276.28H345.596V273.792Z" fill="#F0F0F0"/>
<path d="M345.596 277.968H343.11V280.456H345.596V277.968Z" fill="#F0F0F0"/>
<path d="M345.596 282.135H343.11V284.622H345.596V282.135Z" fill="#F0F0F0"/>
<path d="M345.596 294.664H343.11V297.151H345.596V294.664Z" fill="#F0F0F0"/>
<path d="M345.596 298.84H343.11V301.328H345.596V298.84Z" fill="#F0F0F0"/>
<path d="M345.596 303.016H343.11V305.504H345.596V303.016Z" fill="#F0F0F0"/>
<path d="M345.596 307.193H343.11V309.681H345.596V307.193Z" fill="#F0F0F0"/>
<path d="M345.596 311.369H343.11V313.857H345.596V311.369Z" fill="#F0F0F0"/>
<path d="M345.596 315.545H343.11V318.033H345.596V315.545Z" fill="#F0F0F0"/>
<path d="M345.596 319.722H343.11V322.21H345.596V319.722Z" fill="#F0F0F0"/>
<path d="M345.596 323.888H343.11V326.376H345.596V323.888Z" fill="#F0F0F0"/>
<path d="M345.596 328.064H343.11V330.552H345.596V328.064Z" fill="#F0F0F0"/>
<path d="M345.596 332.241H343.11V334.729H345.596V332.241Z" fill="#F0F0F0"/>
<path d="M345.596 336.417H343.11V338.905H345.596V336.417Z" fill="#F0F0F0"/>
<path d="M345.596 344.77H343.11V347.258H345.596V344.77Z" fill="#F0F0F0"/>
<path d="M341.643 261.263H339.158V263.751H341.643V261.263Z" fill="#F0F0F0"/>
<path d="M341.643 265.439H339.158V267.927H341.643V265.439Z" fill="#F0F0F0"/>
<path d="M341.643 269.615H339.158V272.103H341.643V269.615Z" fill="#F0F0F0"/>
<path d="M341.643 273.792H339.158V276.28H341.643V273.792Z" fill="#F0F0F0"/>
<path d="M341.643 277.968H339.158V280.456H341.643V277.968Z" fill="#F0F0F0"/>
<path d="M341.643 282.135H339.158V284.622H341.643V282.135Z" fill="#F0F0F0"/>
<path d="M341.643 294.664H339.158V297.151H341.643V294.664Z" fill="#F0F0F0"/>
<path d="M341.643 298.84H339.158V301.328H341.643V298.84Z" fill="#F0F0F0"/>
<path d="M341.643 303.016H339.158V305.504H341.643V303.016Z" fill="#F0F0F0"/>
<path d="M341.643 307.193H339.158V309.681H341.643V307.193Z" fill="#F0F0F0"/>
<path d="M341.643 319.722H339.158V322.21H341.643V319.722Z" fill="#F0F0F0"/>
<path d="M341.643 323.888H339.158V326.376H341.643V323.888Z" fill="#F0F0F0"/>
<path d="M341.643 328.064H339.158V330.552H341.643V328.064Z" fill="#F0F0F0"/>
<path d="M341.643 332.241H339.158V334.729H341.643V332.241Z" fill="#F0F0F0"/>
<path d="M341.643 336.417H339.158V338.905H341.643V336.417Z" fill="#F0F0F0"/>
<path d="M341.643 344.77H339.158V347.258H341.643V344.77Z" fill="#F0F0F0"/>
<path d="M341.643 348.946H339.158V351.434H341.643V348.946Z" fill="#F0F0F0"/>
<path d="M305.782 300.089H303.297V302.577H305.782V300.089Z" fill="#F0F0F0"/>
<path d="M305.782 304.265H303.297V306.753H305.782V304.265Z" fill="#F0F0F0"/>
<path d="M305.782 308.432H303.297V310.919H305.782V308.432Z" fill="#F0F0F0"/>
<path d="M305.782 312.608H303.297V315.096H305.782V312.608Z" fill="#F0F0F0"/>
<path d="M305.782 316.784H303.297V319.272H305.782V316.784Z" fill="#F0F0F0"/>
<path d="M305.782 320.961H303.297V323.449H305.782V320.961Z" fill="#F0F0F0"/>
<path d="M305.782 325.137H303.297V327.625H305.782V325.137Z" fill="#F0F0F0"/>
<path d="M305.782 337.666H303.297V340.154H305.782V337.666Z" fill="#F0F0F0"/>
<path d="M305.782 341.843H303.297V344.33H305.782V341.843Z" fill="#F0F0F0"/>
<path d="M305.782 346.019H303.297V348.507H305.782V346.019Z" fill="#F0F0F0"/>
<path d="M301.83 300.089H299.345V302.577H301.83V300.089Z" fill="#F0F0F0"/>
<path d="M301.83 304.265H299.345V306.753H301.83V304.265Z" fill="#F0F0F0"/>
<path d="M301.83 308.432H299.345V310.919H301.83V308.432Z" fill="#F0F0F0"/>
<path d="M301.83 312.608H299.345V315.096H301.83V312.608Z" fill="#F0F0F0"/>
<path d="M301.83 316.784H299.345V319.272H301.83V316.784Z" fill="#F0F0F0"/>
<path d="M301.83 320.961H299.345V323.449H301.83V320.961Z" fill="#F0F0F0"/>
<path d="M301.83 325.137H299.345V327.625H301.83V325.137Z" fill="#F0F0F0"/>
<path d="M297.888 300.089H295.402V302.577H297.888V300.089Z" fill="#F0F0F0"/>
<path d="M297.888 304.265H295.402V306.753H297.888V304.265Z" fill="#F0F0F0"/>
<path d="M297.888 308.432H295.402V310.919H297.888V308.432Z" fill="#F0F0F0"/>
<path d="M297.888 312.608H295.402V315.096H297.888V312.608Z" fill="#F0F0F0"/>
<path d="M297.888 316.784H295.402V319.272H297.888V316.784Z" fill="#F0F0F0"/>
<path d="M297.888 320.961H295.402V323.449H297.888V320.961Z" fill="#F0F0F0"/>
<path d="M297.888 325.137H295.402V327.625H297.888V325.137Z" fill="#F0F0F0"/>
<path d="M293.935 300.089H291.45V302.577H293.935V300.089Z" fill="#F0F0F0"/>
<path d="M293.935 304.265H291.45V306.753H293.935V304.265Z" fill="#F0F0F0"/>
<path d="M293.935 308.432H291.45V310.919H293.935V308.432Z" fill="#F0F0F0"/>
<path d="M293.935 312.608H291.45V315.096H293.935V312.608Z" fill="#F0F0F0"/>
<path d="M293.935 316.784H291.45V319.272H293.935V316.784Z" fill="#F0F0F0"/>
<path d="M293.935 320.961H291.45V323.449H293.935V320.961Z" fill="#F0F0F0"/>
<path d="M293.935 325.137H291.45V327.625H293.935V325.137Z" fill="#F0F0F0"/>
<path d="M293.935 329.313H291.45V331.801H293.935V329.313Z" fill="#F0F0F0"/>
<path d="M293.935 333.49H291.45V335.978H293.935V333.49Z" fill="#F0F0F0"/>
<path d="M293.935 337.666H291.45V340.154H293.935V337.666Z" fill="#F0F0F0"/>
<path d="M293.935 341.843H291.45V344.33H293.935V341.843Z" fill="#F0F0F0"/>
<path d="M289.983 300.089H287.498V302.577H289.983V300.089Z" fill="#F0F0F0"/>
<path d="M289.983 304.265H287.498V306.753H289.983V304.265Z" fill="#F0F0F0"/>
<path d="M289.983 308.432H287.498V310.919H289.983V308.432Z" fill="#F0F0F0"/>
<path d="M289.983 312.608H287.498V315.096H289.983V312.608Z" fill="#F0F0F0"/>
<path d="M289.983 316.784H287.498V319.272H289.983V316.784Z" fill="#F0F0F0"/>
<path d="M289.983 320.961H287.498V323.449H289.983V320.961Z" fill="#F0F0F0"/>
<path d="M289.983 325.137H287.498V327.625H289.983V325.137Z" fill="#F0F0F0"/>
<path d="M289.983 329.313H287.498V331.801H289.983V329.313Z" fill="#F0F0F0"/>
<path d="M289.983 333.49H287.498V335.978H289.983V333.49Z" fill="#F0F0F0"/>
<path d="M289.983 337.666H287.498V340.154H289.983V337.666Z" fill="#F0F0F0"/>
<path d="M289.983 341.843H287.498V344.33H289.983V341.843Z" fill="#F0F0F0"/>
<path d="M289.983 346.019H287.498V348.507H289.983V346.019Z" fill="#F0F0F0"/>
<path d="M289.983 358.538H287.498V361.026H289.983V358.538Z" fill="#F0F0F0"/>
<path d="M289.983 362.714H287.498V365.202H289.983V362.714Z" fill="#F0F0F0"/>
<path d="M286.03 300.089H283.545V302.577H286.03V300.089Z" fill="#F0F0F0"/>
<path d="M286.03 304.265H283.545V306.753H286.03V304.265Z" fill="#F0F0F0"/>
<path d="M286.03 308.432H283.545V310.919H286.03V308.432Z" fill="#F0F0F0"/>
<path d="M286.03 320.961H283.545V323.449H286.03V320.961Z" fill="#F0F0F0"/>
<path d="M286.03 325.137H283.545V327.625H286.03V325.137Z" fill="#F0F0F0"/>
<path d="M286.03 329.313H283.545V331.801H286.03V329.313Z" fill="#F0F0F0"/>
<path d="M286.03 333.49H283.545V335.978H286.03V333.49Z" fill="#F0F0F0"/>
<path d="M286.03 337.666H283.545V340.154H286.03V337.666Z" fill="#F0F0F0"/>
<path d="M286.03 341.843H283.545V344.33H286.03V341.843Z" fill="#F0F0F0"/>
<path d="M286.03 346.019H283.545V348.507H286.03V346.019Z" fill="#F0F0F0"/>
<path d="M286.03 358.538H283.545V361.026H286.03V358.538Z" fill="#F0F0F0"/>
<path d="M286.03 362.714H283.545V365.202H286.03V362.714Z" fill="#F0F0F0"/>
<path d="M286.03 366.891H283.545V369.379H286.03V366.891Z" fill="#F0F0F0"/>
<path d="M244.61 275.031H242.125V277.518H244.61V275.031Z" fill="#F0F0F0"/>
<path d="M244.61 279.207H242.125V281.695H244.61V279.207Z" fill="#F0F0F0"/>
<path d="M244.61 283.383H242.125V285.871H244.61V283.383Z" fill="#F0F0F0"/>
<path d="M244.61 287.56H242.125V290.048H244.61V287.56Z" fill="#F0F0F0"/>
<path d="M244.61 291.736H242.125V294.224H244.61V291.736Z" fill="#F0F0F0"/>
<path d="M244.61 295.913H242.125V298.4H244.61V295.913Z" fill="#F0F0F0"/>
<path d="M244.61 300.089H242.125V302.577H244.61V300.089Z" fill="#F0F0F0"/>
<path d="M244.61 304.265H242.125V306.753H244.61V304.265Z" fill="#F0F0F0"/>
<path d="M244.61 308.432H242.125V310.919H244.61V308.432Z" fill="#F0F0F0"/>
<path d="M244.61 312.608H242.125V315.096H244.61V312.608Z" fill="#F0F0F0"/>
<path d="M244.61 316.784H242.125V319.272H244.61V316.784Z" fill="#F0F0F0"/>
<path d="M244.61 320.961H242.125V323.449H244.61V320.961Z" fill="#F0F0F0"/>
<path d="M244.61 325.137H242.125V327.625H244.61V325.137Z" fill="#F0F0F0"/>
<path d="M244.61 329.313H242.125V331.801H244.61V329.313Z" fill="#F0F0F0"/>
<path d="M244.61 333.49H242.125V335.978H244.61V333.49Z" fill="#F0F0F0"/>
<path d="M244.61 337.666H242.125V340.154H244.61V337.666Z" fill="#F0F0F0"/>
<path d="M244.61 341.843H242.125V344.33H244.61V341.843Z" fill="#F0F0F0"/>
<path d="M244.61 346.019H242.125V348.507H244.61V346.019Z" fill="#F0F0F0"/>
<path d="M244.61 350.185H242.125V352.673H244.61V350.185Z" fill="#F0F0F0"/>
<path d="M244.61 354.362H242.125V356.849H244.61V354.362Z" fill="#F0F0F0"/>
<path d="M244.61 358.538H242.125V361.026H244.61V358.538Z" fill="#F0F0F0"/>
<path d="M244.61 362.714H242.125V365.202H244.61V362.714Z" fill="#F0F0F0"/>
<path d="M244.61 366.891H242.125V369.379H244.61V366.891Z" fill="#F0F0F0"/>
<path d="M240.658 275.031H238.173V277.518H240.658V275.031Z" fill="#F0F0F0"/>
<path d="M240.658 279.207H238.173V281.695H240.658V279.207Z" fill="#F0F0F0"/>
<path d="M240.658 283.383H238.173V285.871H240.658V283.383Z" fill="#F0F0F0"/>
<path d="M240.658 287.56H238.173V290.048H240.658V287.56Z" fill="#F0F0F0"/>
<path d="M240.658 291.736H238.173V294.224H240.658V291.736Z" fill="#F0F0F0"/>
<path d="M240.658 295.913H238.173V298.4H240.658V295.913Z" fill="#F0F0F0"/>
<path d="M240.658 300.089H238.173V302.577H240.658V300.089Z" fill="#F0F0F0"/>
<path d="M240.658 304.265H238.173V306.753H240.658V304.265Z" fill="#F0F0F0"/>
<path d="M240.658 308.432H238.173V310.919H240.658V308.432Z" fill="#F0F0F0"/>
<path d="M240.658 312.608H238.173V315.096H240.658V312.608Z" fill="#F0F0F0"/>
<path d="M240.658 316.784H238.173V319.272H240.658V316.784Z" fill="#F0F0F0"/>
<path d="M240.658 320.961H238.173V323.449H240.658V320.961Z" fill="#F0F0F0"/>
<path d="M240.658 325.137H238.173V327.625H240.658V325.137Z" fill="#F0F0F0"/>
<path d="M240.658 329.313H238.173V331.801H240.658V329.313Z" fill="#F0F0F0"/>
<path d="M240.658 333.49H238.173V335.978H240.658V333.49Z" fill="#F0F0F0"/>
<path d="M240.658 337.666H238.173V340.154H240.658V337.666Z" fill="#F0F0F0"/>
<path d="M240.658 341.843H238.173V344.33H240.658V341.843Z" fill="#F0F0F0"/>
<path d="M240.658 346.019H238.173V348.507H240.658V346.019Z" fill="#F0F0F0"/>
<path d="M240.658 350.185H238.173V352.673H240.658V350.185Z" fill="#F0F0F0"/>
<path d="M236.705 275.031H234.22V277.518H236.705V275.031Z" fill="#F0F0F0"/>
<path d="M236.705 279.207H234.22V281.695H236.705V279.207Z" fill="#F0F0F0"/>
<path d="M236.705 283.383H234.22V285.871H236.705V283.383Z" fill="#F0F0F0"/>
<path d="M236.705 287.56H234.22V290.048H236.705V287.56Z" fill="#F0F0F0"/>
<path d="M236.705 291.736H234.22V294.224H236.705V291.736Z" fill="#F0F0F0"/>
<path d="M236.705 295.913H234.22V298.4H236.705V295.913Z" fill="#F0F0F0"/>
<path d="M236.705 300.089H234.22V302.577H236.705V300.089Z" fill="#F0F0F0"/>
<path d="M236.705 304.265H234.22V306.753H236.705V304.265Z" fill="#F0F0F0"/>
<path d="M236.705 308.432H234.22V310.919H236.705V308.432Z" fill="#F0F0F0"/>
<path d="M236.705 312.608H234.22V315.096H236.705V312.608Z" fill="#F0F0F0"/>
<path d="M236.705 316.784H234.22V319.272H236.705V316.784Z" fill="#F0F0F0"/>
<path d="M236.705 320.961H234.22V323.449H236.705V320.961Z" fill="#F0F0F0"/>
<path d="M236.705 325.137H234.22V327.625H236.705V325.137Z" fill="#F0F0F0"/>
<path d="M236.705 329.313H234.22V331.801H236.705V329.313Z" fill="#F0F0F0"/>
<path d="M236.705 333.49H234.22V335.978H236.705V333.49Z" fill="#F0F0F0"/>
<path d="M236.705 337.666H234.22V340.154H236.705V337.666Z" fill="#F0F0F0"/>
<path d="M236.705 341.843H234.22V344.33H236.705V341.843Z" fill="#F0F0F0"/>
<path d="M236.705 346.019H234.22V348.507H236.705V346.019Z" fill="#F0F0F0"/>
<path d="M236.705 350.185H234.22V352.673H236.705V350.185Z" fill="#F0F0F0"/>
<path d="M232.753 275.031H230.268V277.518H232.753V275.031Z" fill="#F0F0F0"/>
<path d="M232.753 279.207H230.268V281.695H232.753V279.207Z" fill="#F0F0F0"/>
<path d="M232.753 283.383H230.268V285.871H232.753V283.383Z" fill="#F0F0F0"/>
<path d="M232.753 287.56H230.268V290.048H232.753V287.56Z" fill="#F0F0F0"/>
<path d="M232.753 291.736H230.268V294.224H232.753V291.736Z" fill="#F0F0F0"/>
<path d="M232.753 295.913H230.268V298.4H232.753V295.913Z" fill="#F0F0F0"/>
<path d="M232.753 300.089H230.268V302.577H232.753V300.089Z" fill="#F0F0F0"/>
<path d="M232.753 304.265H230.268V306.753H232.753V304.265Z" fill="#F0F0F0"/>
<path d="M232.753 308.432H230.268V310.919H232.753V308.432Z" fill="#F0F0F0"/>
<path d="M232.753 312.608H230.268V315.096H232.753V312.608Z" fill="#F0F0F0"/>
<path d="M232.753 316.784H230.268V319.272H232.753V316.784Z" fill="#F0F0F0"/>
<path d="M232.753 320.961H230.268V323.449H232.753V320.961Z" fill="#F0F0F0"/>
<path d="M232.753 325.137H230.268V327.625H232.753V325.137Z" fill="#F0F0F0"/>
<path d="M232.753 329.313H230.268V331.801H232.753V329.313Z" fill="#F0F0F0"/>
<path d="M232.753 333.49H230.268V335.978H232.753V333.49Z" fill="#F0F0F0"/>
<path d="M228.81 275.031H226.325V277.518H228.81V275.031Z" fill="#F0F0F0"/>
<path d="M228.81 279.207H226.325V281.695H228.81V279.207Z" fill="#F0F0F0"/>
<path d="M228.81 283.383H226.325V285.871H228.81V283.383Z" fill="#F0F0F0"/>
<path d="M228.81 287.56H226.325V290.048H228.81V287.56Z" fill="#F0F0F0"/>
<path d="M228.81 291.736H226.325V294.224H228.81V291.736Z" fill="#F0F0F0"/>
<path d="M228.81 295.913H226.325V298.4H228.81V295.913Z" fill="#F0F0F0"/>
<path d="M228.81 300.089H226.325V302.577H228.81V300.089Z" fill="#F0F0F0"/>
<path d="M228.81 304.265H226.325V306.753H228.81V304.265Z" fill="#F0F0F0"/>
<path d="M228.81 308.432H226.325V310.919H228.81V308.432Z" fill="#F0F0F0"/>
<path d="M228.81 312.608H226.325V315.096H228.81V312.608Z" fill="#F0F0F0"/>
<path d="M228.81 316.784H226.325V319.272H228.81V316.784Z" fill="#F0F0F0"/>
<path d="M228.81 320.961H226.325V323.449H228.81V320.961Z" fill="#F0F0F0"/>
<path d="M228.81 325.137H226.325V327.625H228.81V325.137Z" fill="#F0F0F0"/>
<path d="M224.858 275.031H222.373V277.518H224.858V275.031Z" fill="#F0F0F0"/>
<path d="M224.858 279.207H222.373V281.695H224.858V279.207Z" fill="#F0F0F0"/>
<path d="M224.858 283.383H222.373V285.871H224.858V283.383Z" fill="#F0F0F0"/>
<path d="M224.858 287.56H222.373V290.048H224.858V287.56Z" fill="#F0F0F0"/>
<path d="M224.858 291.736H222.373V294.224H224.858V291.736Z" fill="#F0F0F0"/>
<path d="M224.858 295.913H222.373V298.4H224.858V295.913Z" fill="#F0F0F0"/>
<path d="M224.858 300.089H222.373V302.577H224.858V300.089Z" fill="#F0F0F0"/>
<path d="M224.858 304.265H222.373V306.753H224.858V304.265Z" fill="#F0F0F0"/>
<path d="M224.858 308.432H222.373V310.919H224.858V308.432Z" fill="#F0F0F0"/>
<path d="M224.858 312.608H222.373V315.096H224.858V312.608Z" fill="#F0F0F0"/>
<path d="M224.858 316.784H222.373V319.272H224.858V316.784Z" fill="#F0F0F0"/>
<path d="M224.858 320.961H222.373V323.449H224.858V320.961Z" fill="#F0F0F0"/>
<path d="M455.504 273.792H453.019V276.28H455.504V273.792Z" fill="#F0F0F0"/>
<path d="M455.504 277.968H453.019V280.456H455.504V277.968Z" fill="#F0F0F0"/>
<path d="M455.504 282.135H453.019V284.622H455.504V282.135Z" fill="#F0F0F0"/>
<path d="M455.504 286.311H453.019V288.799H455.504V286.311Z" fill="#F0F0F0"/>
<path d="M455.504 290.487H453.019V292.975H455.504V290.487Z" fill="#F0F0F0"/>
<path d="M455.504 294.664H453.019V297.151H455.504V294.664Z" fill="#F0F0F0"/>
<path d="M455.504 298.84H453.019V301.328H455.504V298.84Z" fill="#F0F0F0"/>
<path d="M455.504 303.016H453.019V305.504H455.504V303.016Z" fill="#F0F0F0"/>
<path d="M455.504 307.193H453.019V309.681H455.504V307.193Z" fill="#F0F0F0"/>
<path d="M455.504 311.369H453.019V313.857H455.504V311.369Z" fill="#F0F0F0"/>
<path d="M455.504 315.545H453.019V318.033H455.504V315.545Z" fill="#F0F0F0"/>
<path d="M455.504 319.722H453.019V322.21H455.504V319.722Z" fill="#F0F0F0"/>
<path d="M455.504 323.888H453.019V326.376H455.504V323.888Z" fill="#F0F0F0"/>
<path d="M455.504 328.064H453.019V330.552H455.504V328.064Z" fill="#F0F0F0"/>
<path d="M455.504 332.241H453.019V334.729H455.504V332.241Z" fill="#F0F0F0"/>
<path d="M455.504 336.417H453.019V338.905H455.504V336.417Z" fill="#F0F0F0"/>
<path d="M455.504 340.594H453.019V343.081H455.504V340.594Z" fill="#F0F0F0"/>
<path d="M455.504 348.946H453.019V351.434H455.504V348.946Z" fill="#F0F0F0"/>
<path d="M455.504 353.123H453.019V355.611H455.504V353.123Z" fill="#F0F0F0"/>
<path d="M455.504 357.299H453.019V359.787H455.504V357.299Z" fill="#F0F0F0"/>
<path d="M455.504 361.465H453.019V363.953H455.504V361.465Z" fill="#F0F0F0"/>
<path d="M455.504 365.642H453.019V368.13H455.504V365.642Z" fill="#F0F0F0"/>
<path d="M451.552 273.792H449.066V276.28H451.552V273.792Z" fill="#F0F0F0"/>
<path d="M451.552 277.968H449.066V280.456H451.552V277.968Z" fill="#F0F0F0"/>
<path d="M451.552 282.135H449.066V284.622H451.552V282.135Z" fill="#F0F0F0"/>
<path d="M451.552 286.311H449.066V288.799H451.552V286.311Z" fill="#F0F0F0"/>
<path d="M451.552 290.487H449.066V292.975H451.552V290.487Z" fill="#F0F0F0"/>
<path d="M451.552 294.664H449.066V297.151H451.552V294.664Z" fill="#F0F0F0"/>
<path d="M451.552 298.84H449.066V301.328H451.552V298.84Z" fill="#F0F0F0"/>
<path d="M451.552 303.016H449.066V305.504H451.552V303.016Z" fill="#F0F0F0"/>
<path d="M451.552 307.193H449.066V309.681H451.552V307.193Z" fill="#F0F0F0"/>
<path d="M451.552 311.369H449.066V313.857H451.552V311.369Z" fill="#F0F0F0"/>
<path d="M451.552 315.545H449.066V318.033H451.552V315.545Z" fill="#F0F0F0"/>
<path d="M451.552 319.722H449.066V322.21H451.552V319.722Z" fill="#F0F0F0"/>
<path d="M451.552 323.888H449.066V326.376H451.552V323.888Z" fill="#F0F0F0"/>
<path d="M451.552 328.064H449.066V330.552H451.552V328.064Z" fill="#F0F0F0"/>
<path d="M451.552 332.241H449.066V334.729H451.552V332.241Z" fill="#F0F0F0"/>
<path d="M451.552 336.417H449.066V338.905H451.552V336.417Z" fill="#F0F0F0"/>
<path d="M451.552 361.465H449.066V363.953H451.552V361.465Z" fill="#F0F0F0"/>
<path d="M451.552 365.642H449.066V368.13H451.552V365.642Z" fill="#F0F0F0"/>
<path d="M447.599 273.792H445.114V276.28H447.599V273.792Z" fill="#F0F0F0"/>
<path d="M447.599 277.968H445.114V280.456H447.599V277.968Z" fill="#F0F0F0"/>
<path d="M447.599 282.135H445.114V284.622H447.599V282.135Z" fill="#F0F0F0"/>
<path d="M447.599 286.311H445.114V288.799H447.599V286.311Z" fill="#F0F0F0"/>
<path d="M447.599 290.487H445.114V292.975H447.599V290.487Z" fill="#F0F0F0"/>
<path d="M447.599 294.664H445.114V297.151H447.599V294.664Z" fill="#F0F0F0"/>
<path d="M447.599 298.84H445.114V301.328H447.599V298.84Z" fill="#F0F0F0"/>
<path d="M447.599 303.016H445.114V305.504H447.599V303.016Z" fill="#F0F0F0"/>
<path d="M447.599 307.193H445.114V309.681H447.599V307.193Z" fill="#F0F0F0"/>
<path d="M447.599 311.369H445.114V313.857H447.599V311.369Z" fill="#F0F0F0"/>
<path d="M447.599 315.545H445.114V318.033H447.599V315.545Z" fill="#F0F0F0"/>
<path d="M447.599 319.722H445.114V322.21H447.599V319.722Z" fill="#F0F0F0"/>
<path d="M447.599 323.888H445.114V326.376H447.599V323.888Z" fill="#F0F0F0"/>
<path d="M447.599 328.064H445.114V330.552H447.599V328.064Z" fill="#F0F0F0"/>
<path d="M447.599 332.241H445.114V334.729H447.599V332.241Z" fill="#F0F0F0"/>
<path d="M447.599 336.417H445.114V338.905H447.599V336.417Z" fill="#F0F0F0"/>
<path d="M447.599 344.77H445.114V347.258H447.599V344.77Z" fill="#F0F0F0"/>
<path d="M447.599 348.946H445.114V351.434H447.599V348.946Z" fill="#F0F0F0"/>
<path d="M447.599 353.123H445.114V355.611H447.599V353.123Z" fill="#F0F0F0"/>
<path d="M447.599 357.299H445.114V359.787H447.599V357.299Z" fill="#F0F0F0"/>
<path d="M447.599 365.642H445.114V368.13H447.599V365.642Z" fill="#F0F0F0"/>
<path d="M378.672 303.016H376.187V305.504H378.672V303.016Z" fill="#F0F0F0"/>
<path d="M378.672 307.193H376.187V309.681H378.672V307.193Z" fill="#F0F0F0"/>
<path d="M378.672 311.369H376.187V313.857H378.672V311.369Z" fill="#F0F0F0"/>
<path d="M378.672 315.545H376.187V318.033H378.672V315.545Z" fill="#F0F0F0"/>
<path d="M378.672 319.722H376.187V322.21H378.672V319.722Z" fill="#F0F0F0"/>
<path d="M378.672 323.888H376.187V326.376H378.672V323.888Z" fill="#F0F0F0"/>
<path d="M378.672 328.064H376.187V330.552H378.672V328.064Z" fill="#F0F0F0"/>
<path d="M378.672 332.241H376.187V334.729H378.672V332.241Z" fill="#F0F0F0"/>
<path d="M378.672 336.417H376.187V338.905H378.672V336.417Z" fill="#F0F0F0"/>
<path d="M378.672 340.594H376.187V343.081H378.672V340.594Z" fill="#F0F0F0"/>
<path d="M378.672 344.77H376.187V347.258H378.672V344.77Z" fill="#F0F0F0"/>
<path d="M378.672 348.946H376.187V351.434H378.672V348.946Z" fill="#F0F0F0"/>
<path d="M378.672 353.123H376.187V355.611H378.672V353.123Z" fill="#F0F0F0"/>
<path d="M378.672 361.465H376.187V363.953H378.672V361.465Z" fill="#F0F0F0"/>
<path d="M378.672 365.642H376.187V368.13H378.672V365.642Z" fill="#F0F0F0"/>
<path d="M378.672 369.818H376.187V372.306H378.672V369.818Z" fill="#F0F0F0"/>
<path d="M378.672 373.995H376.187V376.482H378.672V373.995Z" fill="#F0F0F0"/>
<path d="M378.672 382.347H376.187V384.835H378.672V382.347Z" fill="#F0F0F0"/>
<path d="M378.672 386.524H376.187V389.011H378.672V386.524Z" fill="#F0F0F0"/>
<path d="M378.672 390.7H376.187V393.188H378.672V390.7Z" fill="#F0F0F0"/>
<path d="M374.72 303.016H372.234V305.504H374.72V303.016Z" fill="#F0F0F0"/>
<path d="M374.72 307.193H372.234V309.681H374.72V307.193Z" fill="#F0F0F0"/>
<path d="M374.72 311.369H372.234V313.857H374.72V311.369Z" fill="#F0F0F0"/>
<path d="M374.72 315.545H372.234V318.033H374.72V315.545Z" fill="#F0F0F0"/>
<path d="M374.72 319.722H372.234V322.21H374.72V319.722Z" fill="#F0F0F0"/>
<path d="M374.72 323.888H372.234V326.376H374.72V323.888Z" fill="#F0F0F0"/>
<path d="M374.72 328.064H372.234V330.552H374.72V328.064Z" fill="#F0F0F0"/>
<path d="M374.72 332.241H372.234V334.729H374.72V332.241Z" fill="#F0F0F0"/>
<path d="M374.72 336.417H372.234V338.905H374.72V336.417Z" fill="#F0F0F0"/>
<path d="M374.72 340.594H372.234V343.081H374.72V340.594Z" fill="#F0F0F0"/>
<path d="M374.72 344.77H372.234V347.258H374.72V344.77Z" fill="#F0F0F0"/>
<path d="M374.72 348.946H372.234V351.434H374.72V348.946Z" fill="#F0F0F0"/>
<path d="M374.72 353.123H372.234V355.611H374.72V353.123Z" fill="#F0F0F0"/>
<path d="M374.72 365.642H372.234V368.13H374.72V365.642Z" fill="#F0F0F0"/>
<path d="M374.72 369.818H372.234V372.306H374.72V369.818Z" fill="#F0F0F0"/>
<path d="M374.72 378.171H372.234V380.659H374.72V378.171Z" fill="#F0F0F0"/>
<path d="M374.72 382.347H372.234V384.835H374.72V382.347Z" fill="#F0F0F0"/>
<path d="M374.72 386.524H372.234V389.011H374.72V386.524Z" fill="#F0F0F0"/>
<path d="M374.72 390.7H372.234V393.188H374.72V390.7Z" fill="#F0F0F0"/>
<path d="M370.767 303.016H368.282V305.504H370.767V303.016Z" fill="#F0F0F0"/>
<path d="M370.767 307.193H368.282V309.681H370.767V307.193Z" fill="#F0F0F0"/>
<path d="M370.767 311.369H368.282V313.857H370.767V311.369Z" fill="#F0F0F0"/>
<path d="M370.767 315.545H368.282V318.033H370.767V315.545Z" fill="#F0F0F0"/>
<path d="M370.767 319.722H368.282V322.21H370.767V319.722Z" fill="#F0F0F0"/>
<path d="M370.767 323.888H368.282V326.376H370.767V323.888Z" fill="#F0F0F0"/>
<path d="M370.767 328.064H368.282V330.552H370.767V328.064Z" fill="#F0F0F0"/>
<path d="M370.767 332.241H368.282V334.729H370.767V332.241Z" fill="#F0F0F0"/>
<path d="M370.767 336.417H368.282V338.905H370.767V336.417Z" fill="#F0F0F0"/>
<path d="M370.767 340.594H368.282V343.081H370.767V340.594Z" fill="#F0F0F0"/>
<path d="M370.767 344.77H368.282V347.258H370.767V344.77Z" fill="#F0F0F0"/>
<path d="M370.767 348.946H368.282V351.434H370.767V348.946Z" fill="#F0F0F0"/>
<path d="M370.767 353.123H368.282V355.611H370.767V353.123Z" fill="#F0F0F0"/>
<path d="M370.767 357.299H368.282V359.787H370.767V357.299Z" fill="#F0F0F0"/>
<path d="M370.767 365.642H368.282V368.13H370.767V365.642Z" fill="#F0F0F0"/>
<path d="M370.767 373.995H368.282V376.482H370.767V373.995Z" fill="#F0F0F0"/>
<path d="M370.767 378.171H368.282V380.659H370.767V378.171Z" fill="#F0F0F0"/>
<path d="M370.767 382.347H368.282V384.835H370.767V382.347Z" fill="#F0F0F0"/>
<path d="M370.767 386.524H368.282V389.011H370.767V386.524Z" fill="#F0F0F0"/>
<path d="M370.767 390.7H368.282V393.188H370.767V390.7Z" fill="#F0F0F0"/>
<path d="M394.761 326.826H392.276V329.313H394.761V326.826Z" fill="#F0F0F0"/>
<path d="M394.761 331.002H392.276V333.49H394.761V331.002Z" fill="#F0F0F0"/>
<path d="M394.761 335.168H392.276V337.656H394.761V335.168Z" fill="#F0F0F0"/>
<path d="M394.761 339.345H392.276V341.833H394.761V339.345Z" fill="#F0F0F0"/>
<path d="M394.761 343.521H392.276V346.009H394.761V343.521Z" fill="#F0F0F0"/>
<path d="M394.761 347.698H392.276V350.185H394.761V347.698Z" fill="#F0F0F0"/>
<path d="M394.761 360.226H392.276V362.714H394.761V360.226Z" fill="#F0F0F0"/>
<path d="M394.761 364.403H392.276V366.891H394.761V364.403Z" fill="#F0F0F0"/>
<path d="M394.761 368.579H392.276V371.067H394.761V368.579Z" fill="#F0F0F0"/>
<path d="M394.761 372.756H392.276V375.243H394.761V372.756Z" fill="#F0F0F0"/>
<path d="M394.761 376.922H392.276V379.41H394.761V376.922Z" fill="#F0F0F0"/>
<path d="M394.761 381.098H392.276V383.586H394.761V381.098Z" fill="#F0F0F0"/>
<path d="M394.761 385.275H392.276V387.763H394.761V385.275Z" fill="#F0F0F0"/>
<path d="M390.818 326.826H388.333V329.313H390.818V326.826Z" fill="#F0F0F0"/>
<path d="M390.818 331.002H388.333V333.49H390.818V331.002Z" fill="#F0F0F0"/>
<path d="M390.818 335.168H388.333V337.656H390.818V335.168Z" fill="#F0F0F0"/>
<path d="M390.818 339.345H388.333V341.833H390.818V339.345Z" fill="#F0F0F0"/>
<path d="M390.818 343.521H388.333V346.009H390.818V343.521Z" fill="#F0F0F0"/>
<path d="M390.818 347.698H388.333V350.185H390.818V347.698Z" fill="#F0F0F0"/>
<path d="M390.818 360.226H388.333V362.714H390.818V360.226Z" fill="#F0F0F0"/>
<path d="M390.818 364.403H388.333V366.891H390.818V364.403Z" fill="#F0F0F0"/>
<path d="M390.818 368.579H388.333V371.067H390.818V368.579Z" fill="#F0F0F0"/>
<path d="M390.818 372.756H388.333V375.243H390.818V372.756Z" fill="#F0F0F0"/>
<path d="M390.818 376.922H388.333V379.41H390.818V376.922Z" fill="#F0F0F0"/>
<path d="M390.818 381.098H388.333V383.586H390.818V381.098Z" fill="#F0F0F0"/>
<path d="M390.818 389.451H388.333V391.939H390.818V389.451Z" fill="#F0F0F0"/>
<path d="M259.541 308.432H257.056V310.919H259.541V308.432Z" fill="#F0F0F0"/>
<path d="M259.541 312.608H257.056V315.096H259.541V312.608Z" fill="#F0F0F0"/>
<path d="M259.541 316.784H257.056V319.272H259.541V316.784Z" fill="#F0F0F0"/>
<path d="M259.541 320.961H257.056V323.449H259.541V320.961Z" fill="#F0F0F0"/>
<path d="M259.541 325.137H257.056V327.625H259.541V325.137Z" fill="#F0F0F0"/>
<path d="M259.541 329.313H257.056V331.801H259.541V329.313Z" fill="#F0F0F0"/>
<path d="M259.541 333.49H257.056V335.978H259.541V333.49Z" fill="#F0F0F0"/>
<path d="M259.541 337.666H257.056V340.154H259.541V337.666Z" fill="#F0F0F0"/>
<path d="M259.541 341.843H257.056V344.33H259.541V341.843Z" fill="#F0F0F0"/>
<path d="M259.541 346.019H257.056V348.507H259.541V346.019Z" fill="#F0F0F0"/>
<path d="M259.541 350.185H257.056V352.673H259.541V350.185Z" fill="#F0F0F0"/>
<path d="M259.541 358.538H257.056V361.026H259.541V358.538Z" fill="#F0F0F0"/>
<path d="M259.541 362.714H257.056V365.202H259.541V362.714Z" fill="#F0F0F0"/>
<path d="M259.541 366.891H257.056V369.379H259.541V366.891Z" fill="#F0F0F0"/>
<path d="M259.541 371.067H257.056V373.555H259.541V371.067Z" fill="#F0F0F0"/>
<path d="M259.541 375.243H257.056V377.731H259.541V375.243Z" fill="#F0F0F0"/>
<path d="M259.541 379.42H257.056V381.908H259.541V379.42Z" fill="#F0F0F0"/>
<path d="M259.541 383.596H257.056V386.084H259.541V383.596Z" fill="#F0F0F0"/>
<path d="M259.541 387.773H257.056V390.26H259.541V387.773Z" fill="#F0F0F0"/>
<path d="M255.589 308.432H253.104V310.919H255.589V308.432Z" fill="#F0F0F0"/>
<path d="M255.589 312.608H253.104V315.096H255.589V312.608Z" fill="#F0F0F0"/>
<path d="M255.589 316.784H253.104V319.272H255.589V316.784Z" fill="#F0F0F0"/>
<path d="M255.589 320.961H253.104V323.449H255.589V320.961Z" fill="#F0F0F0"/>
<path d="M255.589 325.137H253.104V327.625H255.589V325.137Z" fill="#F0F0F0"/>
<path d="M255.589 329.313H253.104V331.801H255.589V329.313Z" fill="#F0F0F0"/>
<path d="M255.589 333.49H253.104V335.978H255.589V333.49Z" fill="#F0F0F0"/>
<path d="M255.589 337.666H253.104V340.154H255.589V337.666Z" fill="#F0F0F0"/>
<path d="M255.589 341.843H253.104V344.33H255.589V341.843Z" fill="#F0F0F0"/>
<path d="M255.589 346.019H253.104V348.507H255.589V346.019Z" fill="#F0F0F0"/>
<path d="M255.589 350.185H253.104V352.673H255.589V350.185Z" fill="#F0F0F0"/>
<path d="M255.589 354.362H253.104V356.849H255.589V354.362Z" fill="#F0F0F0"/>
<path d="M255.589 358.538H253.104V361.026H255.589V358.538Z" fill="#F0F0F0"/>
<path d="M255.589 362.714H253.104V365.202H255.589V362.714Z" fill="#F0F0F0"/>
<path d="M255.589 366.891H253.104V369.379H255.589V366.891Z" fill="#F0F0F0"/>
<path d="M255.589 371.067H253.104V373.555H255.589V371.067Z" fill="#F0F0F0"/>
<path d="M255.589 375.243H253.104V377.731H255.589V375.243Z" fill="#F0F0F0"/>
<path d="M255.589 379.42H253.104V381.908H255.589V379.42Z" fill="#F0F0F0"/>
<path d="M255.589 383.596H253.104V386.084H255.589V383.596Z" fill="#F0F0F0"/>
<path d="M255.589 387.773H253.104V390.26H255.589V387.773Z" fill="#F0F0F0"/>
<path d="M279.004 324.698H276.519V327.185H279.004V324.698Z" fill="#F0F0F0"/>
<path d="M279.004 328.874H276.519V331.362H279.004V328.874Z" fill="#F0F0F0"/>
<path d="M279.004 333.05H276.519V335.538H279.004V333.05Z" fill="#F0F0F0"/>
<path d="M279.004 337.227H276.519V339.714H279.004V337.227Z" fill="#F0F0F0"/>
<path d="M279.004 341.403H276.519V343.891H279.004V341.403Z" fill="#F0F0F0"/>
<path d="M279.004 345.579H276.519V348.067H279.004V345.579Z" fill="#F0F0F0"/>
<path d="M279.004 349.746H276.519V352.233H279.004V349.746Z" fill="#F0F0F0"/>
<path d="M279.004 353.922H276.519V356.41H279.004V353.922Z" fill="#F0F0F0"/>
<path d="M279.004 358.098H276.519V360.586H279.004V358.098Z" fill="#F0F0F0"/>
<path d="M279.004 362.275H276.519V364.763H279.004V362.275Z" fill="#F0F0F0"/>
<path d="M275.052 324.698H272.566V327.185H275.052V324.698Z" fill="#F0F0F0"/>
<path d="M275.052 328.874H272.566V331.362H275.052V328.874Z" fill="#F0F0F0"/>
<path d="M275.052 333.05H272.566V335.538H275.052V333.05Z" fill="#F0F0F0"/>
<path d="M275.052 337.227H272.566V339.714H275.052V337.227Z" fill="#F0F0F0"/>
<path d="M275.052 341.403H272.566V343.891H275.052V341.403Z" fill="#F0F0F0"/>
<path d="M275.052 345.579H272.566V348.067H275.052V345.579Z" fill="#F0F0F0"/>
<path d="M275.052 349.746H272.566V352.233H275.052V349.746Z" fill="#F0F0F0"/>
<path d="M275.052 353.922H272.566V356.41H275.052V353.922Z" fill="#F0F0F0"/>
<path d="M275.052 358.098H272.566V360.586H275.052V358.098Z" fill="#F0F0F0"/>
<path d="M298.567 166.245H294.395V399.123H298.567V166.245Z" fill="#E0E0E0"/>
<path d="M377.115 166.245H372.943V399.123H377.115V166.245Z" fill="#E0E0E0"/>
<path d="M455.664 166.245H451.492V399.123H455.664V166.245Z" fill="#E0E0E0"/>
<path d="M188.888 430.655H154.364V380.868C154.364 378.441 156.33 376.462 158.766 376.462H184.496C186.922 376.462 188.898 378.431 188.898 380.868V430.655H188.888Z" fill="#F0F0F0"/>
<path d="M188.888 383.796H154.364V387.683H188.888V383.796Z" fill="#E6E6E6"/>
<path d="M182.6 424.091H173.996C172.689 424.091 171.631 425.15 171.631 426.459V430.655H184.965V426.459C184.965 425.15 183.907 424.091 182.6 424.091Z" fill="#E0E0E0"/>
<path d="M185.015 430.655H175.444C174.595 430.655 173.907 429.966 173.907 429.116C173.907 428.267 174.595 427.578 175.444 427.578H185.015C185.864 427.578 186.552 428.267 186.552 429.116C186.542 429.966 185.854 430.655 185.015 430.655Z" fill="#E6E6E6"/>
<path d="M338.288 155.287C350.922 152.301 358.745 139.628 355.762 126.981C352.779 114.334 340.119 106.503 327.486 109.489C314.852 112.475 307.029 125.148 310.012 137.795C312.995 150.442 325.655 158.273 338.288 155.287Z" fill="#E0E0E0"/>
<path d="M336.109 152.154C347.007 150.384 354.408 140.104 352.64 129.194C350.871 118.284 340.602 110.875 329.703 112.646C318.805 114.416 311.404 124.696 313.172 135.606C314.941 146.516 325.21 153.925 336.109 152.154Z" fill="#F0F0F0"/>
<path d="M333.849 118.677V132.665L343.111 127.419" fill="#F0F0F0"/>
<path d="M333.849 118.677V132.665L343.111 127.419" stroke="#E0E0E0" stroke-width="2" stroke-miterlimit="10" stroke-linecap="round" stroke-linejoin="round"/>
<path d="M107.964 362.075C106.167 359.117 103.213 361.685 103.213 361.685C103.632 356.01 98.422 352.133 98.422 352.133C98.422 352.133 104.48 352.133 105.329 346.349C106.177 340.564 103.213 343.251 100.438 343.211C97.6634 343.171 94.759 351.294 98.422 355.85C102.085 360.416 101.097 368.209 92.6531 375.703C90.5871 377.531 89.1898 379.969 88.2416 382.597C88.8804 375.713 89.2397 366.011 87.2136 359.537C83.7802 348.537 90.3276 345.579 92.2239 340.074C94.1302 334.569 87.2136 329.923 87.2136 329.923C87.2136 329.923 93.711 326.965 90.5372 323.578C87.3633 320.191 80.8159 320.651 80.8159 325.077C80.8159 329.503 85.2573 331.192 85.2573 331.192C85.2573 331.192 90.3276 336.477 90.3276 339.235C90.3276 341.982 85.2573 347.907 85.2573 347.907C85.2573 347.907 87.5828 342.842 82.9318 342.622C78.2808 342.402 76.8036 348.537 78.7099 351.294C80.6163 354.042 83.7802 351.714 83.7802 351.714C83.7802 351.714 84.1495 357.639 85.2374 361.236C85.7164 362.814 85.4869 369.019 85.0877 375.473C84.1495 373.145 82.832 371.007 80.9756 369.358C72.5219 361.865 71.5437 354.072 75.2067 349.506C78.8696 344.94 75.9652 336.827 73.1906 336.867C70.4159 336.907 67.4516 334.209 68.3 340.004C69.1484 345.799 75.2067 345.789 75.2067 345.789C75.2067 345.789 69.9868 349.676 70.4159 355.341C70.4159 355.341 67.4616 352.763 65.6651 355.73C62.4612 361.016 69.8869 364.293 71.1445 361.695C71.1445 361.695 86.9042 372.865 83.1015 388.941L83.9898 390.25C83.88 391.549 83.8001 392.328 83.8001 392.328L85.0377 391.799L86.445 393.867C86.3752 397.884 86.8043 400.851 86.8043 400.851L90.5771 395.286C86.7744 379.21 102.534 368.04 102.534 368.04C103.742 370.637 111.177 367.36 107.964 362.075Z" fill="#E0E0E0"/>
<path opacity="0.2" d="M107.964 362.075C106.167 359.117 103.213 361.685 103.213 361.685C103.632 356.01 98.422 352.133 98.422 352.133C98.422 352.133 104.48 352.133 105.329 346.349C106.177 340.564 103.213 343.251 100.438 343.211C97.6634 343.171 94.759 351.294 98.422 355.85C102.085 360.416 101.097 368.209 92.6531 375.703C90.5871 377.531 89.1898 379.969 88.2416 382.597C88.8804 375.713 89.2397 366.011 87.2136 359.537C83.7802 348.537 90.3276 345.579 92.2239 340.074C94.1302 334.569 87.2136 329.923 87.2136 329.923C87.2136 329.923 93.711 326.965 90.5372 323.578C87.3633 320.191 80.8159 320.651 80.8159 325.077C80.8159 329.503 85.2573 331.192 85.2573 331.192C85.2573 331.192 90.3276 336.477 90.3276 339.235C90.3276 341.982 85.2573 347.907 85.2573 347.907C85.2573 347.907 87.5828 342.842 82.9318 342.622C78.2808 342.402 76.8036 348.537 78.7099 351.294C80.6163 354.042 83.7802 351.714 83.7802 351.714C83.7802 351.714 84.1495 357.639 85.2374 361.236C85.7164 362.814 85.4869 369.019 85.0877 375.473C84.1495 373.145 82.832 371.007 80.9756 369.358C72.5219 361.865 71.5437 354.072 75.2067 349.506C78.8696 344.94 75.9652 336.827 73.1906 336.867C70.4159 336.907 67.4516 334.209 68.3 340.004C69.1484 345.799 75.2067 345.789 75.2067 345.789C75.2067 345.789 69.9868 349.676 70.4159 355.341C70.4159 355.341 67.4616 352.763 65.6651 355.73C62.4612 361.016 69.8869 364.293 71.1445 361.695C71.1445 361.695 86.9042 372.865 83.1015 388.941L83.9898 390.25C83.88 391.549 83.8001 392.328 83.8001 392.328L85.0377 391.799L86.445 393.867C86.3752 397.884 86.8043 400.851 86.8043 400.851L90.5771 395.286C86.7744 379.21 102.534 368.04 102.534 368.04C103.742 370.637 111.177 367.36 107.964 362.075Z" fill="#E0E0E0"/>
<path d="M104.89 430.655H68.7792L64.8867 391.08H108.782L104.89 430.655Z" fill="#E6E6E6"/>
<path d="M110.708 386.713H62.9604V395.446H110.708V386.713Z" fill="#F0F0F0"/>
<path d="M260.74 475.896C367.616 475.896 454.257 470.832 454.257 464.586C454.257 458.339 367.616 453.275 260.74 453.275C153.863 453.275 67.2227 458.339 67.2227 464.586C67.2227 470.832 153.863 475.896 260.74 475.896Z" fill="#F5F5F5"/>
<path d="M420.881 433.093C421.031 432.074 424.524 407.945 417.527 399.612C415.98 397.764 414.024 396.805 411.719 396.745C397.596 396.415 395.66 407.775 395.64 407.885L397.306 408.145C397.366 407.735 399.043 398.124 411.679 398.433C413.505 398.473 415.002 399.223 416.24 400.701C422.757 408.455 419.254 432.604 419.214 432.843L420.881 433.093Z" fill="#FFBEDD"/>
<path d="M421.74 431.994L423.426 431.944C423.416 431.724 422.868 409.713 433.697 405.167C444.316 400.711 449.087 409.873 449.287 410.263L450.794 409.504C450.734 409.394 445.135 398.533 433.048 403.609C421.141 408.594 421.71 431.035 421.74 431.994Z" fill="#FFBEDD"/>
<path d="M421.69 433.723C421.69 433.373 421.79 398.563 428.566 388.382C435.074 378.611 445.574 383.207 446.023 383.406L446.721 381.868C446.602 381.808 434.485 376.462 427.169 387.443C420.113 398.044 420.003 432.264 420.003 433.723H421.69Z" fill="#FFBEDD"/>
<path d="M409.703 397.584C409.703 397.584 415.871 399.862 414.034 405.237C412.198 410.613 392.695 419.455 392.695 419.455C392.695 419.455 384.531 411.961 392.027 399.772C399.532 387.573 409.533 393.737 409.703 397.584Z" fill="#FF64AE"/>
<path d="M428.876 386.544C428.876 386.544 424.494 386.074 424.853 383.406C425.203 380.739 441.871 373.865 451.712 384.975C451.712 384.975 445.414 395.805 436.311 395.945C427.199 396.085 428.876 386.544 428.876 386.544Z" fill="#FF64AE"/>
<path d="M433.367 404.378C433.367 404.378 430.343 401.94 433.607 400.741C436.87 399.552 452.869 399.892 453.039 415.758C453.039 415.758 434.405 418.855 432.099 412.811C429.784 406.776 433.367 404.378 433.367 404.378Z" fill="#FF64AE"/>
<path d="M406.379 465.415H435.303L438.427 433.713H403.265L406.379 465.415Z" fill="#ACB5FF"/>
<path d="M401.725 437.219H439.971V430.225H401.725V437.219Z" fill="#4754C7"/>
<path d="M373.652 442.695L344.897 439.867V399.412H333.499V439.857L304.625 442.695C301.76 442.974 299.575 445.392 299.575 448.27V452.596H338.081H340.196H378.702V448.27C378.702 445.392 376.516 442.974 373.652 442.695Z" fill="#263238"/>
<path opacity="0.2" d="M373.652 442.695L344.897 439.867V399.412H333.499V439.857L304.625 442.695C301.76 442.974 299.575 445.392 299.575 448.27V452.596H338.081H340.196H378.702V448.27C378.702 445.392 376.516 442.974 373.652 442.695Z" fill="white"/>
<path d="M302.609 465.425C306.727 465.425 310.065 462.083 310.065 457.961C310.065 453.839 306.727 450.498 302.609 450.498C298.491 450.498 295.153 453.839 295.153 457.961C295.153 462.083 298.491 465.425 302.609 465.425Z" fill="#263238"/>
<path d="M375.658 465.425C379.776 465.425 383.114 462.083 383.114 457.961C383.114 453.839 379.776 450.498 375.658 450.498C371.541 450.498 368.203 453.839 368.203 457.961C368.203 462.083 371.541 465.425 375.658 465.425Z" fill="#263238"/>
<path d="M342.732 408.105H335.655C333.38 408.105 331.533 406.256 331.533 403.978V372.076H346.854V403.978C346.854 406.256 345.007 408.105 342.732 408.105Z" fill="#263238"/>
<path opacity="0.3" d="M342.732 408.105H335.655C333.38 408.105 331.533 406.256 331.533 403.978V372.076H346.854V403.978C346.854 406.256 345.007 408.105 342.732 408.105Z" fill="white"/>
<path d="M366.436 308.831C366.436 308.831 368.612 362.784 353.601 372.066H370.728C370.728 372.066 384.002 353.682 380.249 308.831H366.436Z" fill="#263238"/>
<path opacity="0.3" d="M366.436 308.831C366.436 308.831 368.612 362.784 353.601 372.066H370.728C370.728 372.066 384.002 353.682 380.249 308.831H366.436Z" fill="white"/>
<path d="M304.795 364.523H371.586C374.341 364.523 376.576 366.761 376.576 369.518V376.203H299.804V369.518C299.804 366.761 302.03 364.523 304.795 364.523Z" fill="#263238"/>
<path d="M298.607 370.368H377.764C378.872 370.368 379.77 371.267 379.77 372.376V374.194C379.77 375.303 378.872 376.203 377.764 376.203H298.607C297.499 376.203 296.601 375.303 296.601 374.194V372.376C296.601 371.267 297.499 370.368 298.607 370.368Z" fill="#263238"/>
<path opacity="0.6" d="M298.607 370.368H377.764C378.872 370.368 379.77 371.267 379.77 372.376V374.194C379.77 375.303 378.872 376.203 377.764 376.203H298.607C297.499 376.203 296.601 375.303 296.601 374.194V372.376C296.601 371.267 297.499 370.368 298.607 370.368Z" fill="white"/>
<path d="M384.461 319.792H357.014C348.979 319.792 342.462 313.267 342.462 305.224V294.484C342.462 286.441 348.979 279.916 357.014 279.916H384.451C392.486 279.916 399.003 286.441 399.003 294.484V305.224C399.013 313.267 392.496 319.792 384.461 319.792Z" fill="#263238"/>
<path d="M273.764 235.825L268.285 221.367C268.285 221.367 270.63 219.189 269.024 216.981C267.417 214.773 257.306 208.558 255.46 209.657C253.613 210.747 249.531 214.863 251.737 217.151C253.953 219.439 263.744 223.246 263.744 223.246L268.584 242.219L273.764 235.825Z" fill="#FFCCAF"/>
<path d="M312.031 263.311C312.031 263.311 287.109 258.185 284.405 256.956C281.7 255.727 271.669 226.323 271.669 226.323L263.984 229.92C263.984 229.92 270.172 259.434 276.5 266.458C282.828 273.472 309.826 279.417 309.826 279.417L312.031 263.311Z" fill="#4754C7"/>
<path d="M271.789 225.743L273.376 228.811L263.495 232.218L263.874 228.471L271.789 225.743Z" fill="#4754C7"/>
<path d="M347.163 242.948C347.163 242.948 348.63 256.766 343.51 260.163C338.4 263.561 313.239 259.584 310.384 254.019C307.53 248.464 318.269 233.367 318.269 233.367L347.163 242.948Z" fill="#263238"/>
<path d="M245.369 424.77L251.927 426.359L255.25 417.287L258.264 409.034L250.789 405.847L247.914 415.858L245.369 424.77Z" fill="#FFCCAF"/>
<path opacity="0.2" d="M247.915 415.858L255.25 417.287L258.265 409.034L250.789 405.847L247.915 415.858Z" fill="black"/>
<path d="M248.573 411.072L257.676 414.459C257.676 414.459 281.959 353.682 286.949 353.472C291.94 353.262 342.752 376.642 355.487 363.673C368.223 350.715 349.808 319.472 349.808 319.472C349.808 319.472 319.177 315.096 316.872 322.02C316.423 323.358 315.933 325.986 315.574 328.234C315.225 330.352 314.985 332.131 314.985 332.131C314.985 332.131 314.975 332.131 314.965 332.121C314.017 331.881 283.266 323.938 271.15 332.131C258.843 340.464 248.573 411.072 248.573 411.072Z" fill="#ACB5FF"/>
<path d="M300.932 450.698L307.47 449.019L306.212 439.627L305.044 431.015L296.96 431.744L299.056 441.785L300.932 450.698Z" fill="#FFCCAF"/>
<path opacity="0.2" d="M299.106 441.985L306.262 439.807L305.064 431.105L296.97 431.794L299.106 441.985Z" fill="black"/>
<path d="M261.439 411.082L248.184 406.576L247.615 412.011L257.666 415.568L261.439 411.082Z" fill="#4754C7"/>
<path d="M333.49 366.791C333.49 366.791 331.414 366.841 299.286 365.342C299.286 365.342 304.086 405.557 306.711 435.651L297.1 437.289C297.1 437.289 274.144 372.835 274.394 362.594C274.643 352.353 286.371 349.356 286.371 349.356C286.371 349.356 309.266 362.594 333.49 366.791Z" fill="#919CFF"/>
<path d="M308.119 432.733L294.914 434.242L297.459 439.417L308.149 438.049L308.119 432.733Z" fill="#4754C7"/>
<path opacity="0.1" d="M314.985 332.131L332.901 335.868C332.901 335.868 323 330.392 315.574 328.234C315.225 330.352 314.985 332.131 314.985 332.131Z" fill="black"/>
<path d="M349.07 314.706L349.808 319.472L316.872 322.02L316.003 316.374L349.07 314.706Z" fill="#263238"/>
<path opacity="0.2" d="M349.07 314.706L349.808 319.472L316.872 322.02L316.003 316.374L349.07 314.706Z" fill="black"/>
<path d="M338.66 322.685L340.288 322.517L339.436 314.218L337.807 314.385L338.66 322.685Z" fill="#407BFF"/>
<path d="M324.081 321.846L331.292 321.382L330.94 315.908L323.729 316.372L324.081 321.846Z" fill="white"/>
<path d="M318.491 323.579L320.12 323.411L319.267 315.113L317.639 315.281L318.491 323.579Z" fill="#407BFF"/>
<path opacity="0.6" d="M338.66 322.685L340.288 322.517L339.436 314.218L337.807 314.385L338.66 322.685Z" fill="white"/>
<path opacity="0.6" d="M318.491 323.579L320.12 323.411L319.267 315.113L317.639 315.281L318.491 323.579Z" fill="white"/>
<path d="M311.432 262.851C311.432 262.851 319.836 265.489 330.406 264.949C340.975 264.41 353.611 269.545 353.611 269.545L349.07 314.696L316.003 316.365C316.003 316.375 304.895 278.667 311.432 262.851Z" fill="#ACB5FF"/>
<path d="M316.742 237.353C316.742 237.353 318.598 215.422 336.913 223.395C359.899 233.397 341.624 260.103 330.395 254.618C319.167 249.143 316.742 237.353 316.742 237.353Z" fill="#263238"/>
<path opacity="0.2" d="M321.872 266.178L322.401 278.567L326.503 272.743C326.503 272.743 325.036 286.451 325.894 293.904C325.894 293.904 326.683 280.526 328.539 272.743L332.901 278.567L339.159 266.258C339.169 266.258 329.038 262.611 321.872 266.178Z" fill="black"/>
<path d="M327.551 268.486L337.023 265.809C331.184 261.792 334.129 252.8 334.129 252.8L324.747 256.097C325.246 257.656 325.565 258.975 325.755 260.114C326.733 265.968 324.088 266.438 324.088 266.438L327.551 268.486Z" fill="#FFCCAF"/>
<path opacity="0.2" d="M324.747 256.097C325.246 257.656 325.565 258.975 325.755 260.114C330.246 258.315 334.128 252.8 334.128 252.8L324.747 256.097Z" fill="black"/>
<path d="M330.865 228.001C322.561 226.163 318.898 230.02 316.393 238.452C313.269 248.993 313.957 257.126 324.846 257.136C339.648 257.156 344.658 231.059 330.865 228.001Z" fill="#FFCCAF"/>
<path d="M321.872 239.182C321.872 239.182 320.245 241.1 318.688 242.099C318.688 242.099 319.147 243.388 320.674 243.528L321.872 239.182Z" fill="#DE5753"/>
<path d="M327.102 239.621C326.932 240.301 327.162 240.94 327.621 241.05C328.07 241.16 328.579 240.7 328.739 240.021C328.908 239.342 328.679 238.702 328.22 238.592C327.77 238.482 327.271 238.942 327.102 239.621Z" fill="#263238"/>
<path d="M328.408 238.672L327.071 237.733C327.071 237.733 327.5 239.162 328.408 238.672Z" fill="#263238"/>
<path d="M318.698 237.403C318.528 238.083 318.758 238.722 319.217 238.832C319.666 238.942 320.175 238.482 320.335 237.803C320.504 237.123 320.275 236.484 319.816 236.374C319.367 236.264 318.868 236.724 318.698 237.403Z" fill="#263238"/>
<path d="M320.004 236.454L318.667 235.515C318.667 235.515 319.096 236.934 320.004 236.454Z" fill="#263238"/>
<path d="M328.459 233.896C328.459 233.896 330.864 234.106 331.783 235.955" stroke="#263238" stroke-width="0.7247" stroke-miterlimit="10" stroke-linecap="round" stroke-linejoin="round"/>
<path d="M322.501 232.208C322.501 232.208 321.154 231.339 319.038 232.158" stroke="#263238" stroke-width="0.7247" stroke-miterlimit="10" stroke-linecap="round" stroke-linejoin="round"/>
<path d="M336.843 244.027C336.843 244.027 334.468 236.334 336.224 231.189C336.224 231.189 321.253 220.808 316.742 237.353C316.742 237.353 318.418 222.147 332.771 224.974C347.103 227.802 342.442 248.703 333.689 253.299C333.689 253.309 338.3 248.833 336.843 244.027Z" fill="#263238"/>
<path d="M335.096 245.476C335.446 244.147 337.332 242.189 339.757 243.008C342.273 243.858 342.322 249.423 335.645 249.273C334.687 249.263 334.368 248.254 335.096 245.476Z" fill="#E4897B"/>
<path d="M319.187 246.675C319.476 247.774 319.616 249.763 319.616 249.763C319.796 249.783 319.985 249.803 320.165 249.813C322.64 250.022 323.868 249.303 324.467 248.434C324.796 247.964 324.926 247.435 324.986 247.005C325.056 246.505 324.986 246.136 324.986 246.136C323.609 246.805 321.273 246.795 320.035 246.725C319.506 246.715 319.187 246.675 319.187 246.675Z" fill="#263238"/>
<path d="M320.035 246.735L320.185 247.644C322.52 247.834 324.197 247.664 324.986 247.015C325.056 246.515 324.986 246.146 324.986 246.146C323.598 246.815 321.273 246.795 320.035 246.735Z" fill="white"/>
<path d="M320.165 249.823C322.64 250.032 323.868 249.313 324.467 248.444C323.618 248.404 322.59 248.454 321.662 248.753C320.954 248.983 320.484 249.393 320.165 249.823Z" fill="#DE5753"/>
<path d="M330.895 228.661C330.895 228.661 331.214 243.088 339.857 244.817C348.501 246.545 339.049 226.283 339.049 226.283C339.049 226.283 326.174 217.87 317.6 223.795C309.017 229.73 316.732 237.353 316.732 237.353C316.732 237.353 318.558 226.643 330.895 228.661Z" fill="#263238"/>
<path d="M331.194 227.712C331.194 227.712 328.11 236.834 334.198 241.62" stroke="#263238" stroke-width="0.5" stroke-miterlimit="10" stroke-linecap="round" stroke-linejoin="round"/>
<path d="M342.383 247.784C341.285 250.722 338.46 252.37 336.075 251.471C333.689 250.572 332.651 247.475 333.749 244.537C334.847 241.6 337.672 239.951 340.057 240.85C342.442 241.75 343.49 244.857 342.383 247.784Z" fill="#407BFF"/>
<path opacity="0.4" d="M342.383 247.784C341.285 250.722 338.46 252.37 336.075 251.471C333.689 250.572 332.651 247.475 333.749 244.537C334.847 241.6 337.672 239.951 340.057 240.85C342.442 241.75 343.49 244.857 342.383 247.784Z" fill="black"/>
<path d="M339.638 242.978C339.638 242.978 343.221 226.922 335.187 222.716C335.187 222.716 336.863 222.946 337.901 223.246C338.939 223.545 345.357 230.06 342.113 244.487L339.638 242.978Z" fill="white"/>
<path d="M324.567 252.17C324.367 252.14 324.167 252.11 323.968 252.08L324.127 251.091C331.364 252.27 336.743 248.444 336.793 248.404L337.382 249.213C337.162 249.373 331.932 253.14 324.567 252.17Z" fill="white"/>
<path d="M342.053 247.385C341.325 249.323 339.458 250.412 337.881 249.823C336.304 249.233 335.616 247.175 336.344 245.237C337.073 243.298 338.939 242.209 340.516 242.799C342.093 243.398 342.782 245.446 342.053 247.385Z" fill="#407BFF"/>
<path d="M323.679 252.49L322.88 252.38C322.281 252.3 321.862 251.761 321.942 251.161C322.022 250.562 322.561 250.142 323.16 250.222L323.958 250.332C324.557 250.412 324.966 250.952 324.896 251.551C324.816 252.15 324.267 252.57 323.679 252.49Z" fill="#407BFF"/>
<path opacity="0.4" d="M323.679 252.49L322.88 252.38C322.281 252.3 321.862 251.761 321.942 251.161C322.022 250.562 322.561 250.142 323.16 250.222L323.958 250.332C324.557 250.412 324.966 250.952 324.896 251.551C324.816 252.15 324.267 252.57 323.679 252.49Z" fill="black"/>
<path d="M334.478 262.372L328.549 268.197L330.915 275.34L339.169 266.258L334.478 262.372Z" fill="#4754C7"/>
<path d="M325.904 263.59L326.862 268.077L323.788 274.421L321.872 266.178L325.904 263.59Z" fill="#4754C7"/>
<path d="M333.21 267.427L336.653 254.808C336.653 254.808 334.987 251.661 335.346 251.011C335.705 250.352 337.502 241.879 338.779 240.96C340.057 240.041 345.307 241.61 345.846 242.469C346.375 243.328 340.815 254.808 340.815 254.808L338.789 268.476L333.21 267.427Z" fill="#FFCCAF"/>
<path d="M353.611 269.545C363.083 279.257 344.089 301.258 333.21 300.318C322.331 299.379 333.48 259.494 333.48 259.494L340.446 260.643C340.446 260.643 338.001 277.908 338.769 279.257C339.548 280.616 350.427 266.288 353.611 269.545Z" fill="#4754C7"/>
<path d="M332.901 258.215L331.873 261.512L341.584 262.372V259.494L332.901 258.215Z" fill="#4754C7"/>
<path opacity="0.6" d="M318.189 293.315H314.257C313.818 293.315 313.468 292.965 313.468 292.525V285.092C313.468 284.652 313.818 284.302 314.257 284.302H318.189C318.628 284.302 318.978 284.652 318.978 285.092V292.525C318.978 292.965 318.628 293.315 318.189 293.315Z" fill="white"/>
<path opacity="0.2" d="M318.269 284.892H313.798V291.017H318.269V284.892Z" fill="black"/>
<path d="M316.622 282.134H315.634V285.741H316.622V282.134Z" fill="#263238"/>
<path d="M234.5 437.539C235.498 437.079 236.576 436.81 237.664 436.73C237.664 436.73 241.457 434.492 245.21 425.819L249.432 425.799C250.899 425.819 252.186 426.749 252.675 428.127C252.745 428.317 252.785 428.517 252.795 428.717C252.755 429.736 252.645 430.755 252.466 431.764C252.086 434.931 250 441.715 250 441.715L249.282 441.536L250.579 435.221C251.009 433.073 248.763 435.151 247.715 437.309C246.667 439.467 245.07 441.646 240.399 440.576C234.989 439.298 232.794 438.518 234.5 437.539Z" fill="#172176"/>
<path d="M245.978 423.541C245.978 423.541 240.698 434.592 237.664 436.73C237.664 436.73 241.736 439.158 245.978 433.752C251.457 426.758 252.805 428.707 252.805 428.707C252.805 428.707 252.575 426.309 252.146 425.14C251.318 422.882 245.978 423.541 245.978 423.541Z" fill="#FFCCAF"/>
<path d="M292.608 463.866C293.467 463.187 294.445 462.667 295.493 462.327C295.493 462.327 298.647 459.26 300.244 449.938L304.346 448.909C305.773 448.579 307.25 449.169 308.048 450.398C308.158 450.568 308.248 450.748 308.308 450.937C308.508 451.936 308.647 452.956 308.717 453.975C309.096 457.142 308.677 464.226 308.677 464.226L307.939 464.216L307.709 457.771C307.619 455.583 305.923 458.131 305.424 460.479C304.924 462.827 303.877 465.325 299.096 465.395C293.497 465.465 291.181 465.225 292.608 463.866Z" fill="#172176"/>
<path d="M300.443 447.55C300.443 447.55 297.938 459.54 295.493 462.327C295.493 462.327 300.024 463.726 302.859 457.462C306.531 449.359 308.298 450.947 308.298 450.947C308.298 450.947 307.51 448.679 306.811 447.64C305.473 445.642 300.443 447.55 300.443 447.55Z" fill="#FFCCAF"/>
<path d="M393.244 230.769H358.391C355.597 230.769 353.331 228.501 353.331 225.704V210.777C353.331 207.979 355.597 205.711 358.391 205.711H393.244C396.039 205.711 398.294 207.979 398.294 210.777V225.704C398.304 228.501 396.039 230.769 393.244 230.769Z" fill="#FF64AE"/>
<path d="M365.388 227.912L354.898 242.199L371.835 228.871L365.388 227.912Z" fill="#FF64AE"/>
<path d="M365.787 218.24C365.787 219.049 365.128 219.719 364.31 219.719C363.491 219.719 362.833 219.059 362.833 218.24C362.833 217.431 363.491 216.761 364.31 216.761C365.128 216.761 365.787 217.431 365.787 218.24Z" fill="white"/>
<path d="M373.462 218.24C373.462 219.049 372.803 219.719 371.985 219.719C371.177 219.719 370.508 219.059 370.508 218.24C370.508 217.431 371.167 216.761 371.985 216.761C372.803 216.771 373.462 217.431 373.462 218.24Z" fill="white"/>
<path d="M381.137 218.24C381.137 219.049 380.479 219.719 379.66 219.719C378.842 219.719 378.183 219.059 378.183 218.24C378.183 217.431 378.842 216.761 379.66 216.761C380.479 216.761 381.137 217.431 381.137 218.24Z" fill="white"/>
<path d="M388.802 218.24C388.802 219.049 388.144 219.719 387.325 219.719C386.507 219.719 385.848 219.059 385.848 218.24C385.848 217.431 386.507 216.761 387.325 216.761C388.144 216.761 388.802 217.431 388.802 218.24Z" fill="white"/>
<path d="M253.184 211.066L228.332 197.668C227.663 197.308 227.404 196.469 227.773 195.79L235.698 181.062C236.057 180.393 236.896 180.133 237.574 180.503L262.426 193.901C263.095 194.261 263.355 195.1 262.985 195.78L255.061 210.507C254.701 211.176 253.863 211.436 253.184 211.066Z" fill="#ACB5FF"/>
<path opacity="0.2" d="M235.049 182.281L242.824 196.819C243.433 197.948 244.661 198.607 245.928 198.477L262.107 196.879L245.629 199.307C244.152 199.526 242.705 198.747 242.076 197.388L235.049 182.281Z" fill="black"/>
<path d="M216.175 179.574C216.435 174.019 220.547 162.818 225.547 159.391C230.548 155.964 227.254 160.71 227.254 160.71C227.254 160.71 231.995 156.094 234.49 156.234C236.995 156.364 234.49 159.261 234.49 159.261C234.49 159.261 239.62 156.094 241.995 156.224C244.361 156.354 241.995 159.122 241.995 159.122C241.995 159.122 246.207 156.094 247.914 157.543C249.621 158.992 226.066 174.538 223.431 180.863C220.806 187.187 215.906 185.199 216.175 179.574Z" fill="#FF64AE"/>
<path d="M236.406 178.755L239.55 180.773C239.78 180.923 239.66 181.272 239.39 181.252L236.087 180.993L236.366 183.53C236.396 183.81 236.057 183.96 235.867 183.75L233.961 181.592L236.406 178.755Z" fill="#407BFF"/>
<path opacity="0.3" d="M236.406 178.755L239.55 180.773C239.78 180.923 239.66 181.272 239.39 181.252L236.087 180.993L236.366 183.53C236.396 183.81 236.057 183.96 235.867 183.75L233.961 181.592L236.406 178.755Z" fill="white"/>
<path d="M192.251 166.245C192.251 166.245 196.593 163.218 203.18 165.186C203.18 165.186 205.077 173.879 210.247 176.776C213.091 178.365 220.048 178.235 225.557 176.447C232.095 174.328 235.299 174.328 236.486 176.776C237.604 179.094 236.356 181.782 231.356 182.971C226.356 184.16 222.403 192.852 213.321 192.982C204.238 193.112 199.458 184 201.743 175.987C201.723 175.987 198.959 170.022 192.251 166.245Z" fill="#FFBEDD"/>
<path d="M233.971 178.425C233.971 178.675 233.772 178.864 233.532 178.864C233.293 178.864 233.083 178.665 233.083 178.425C233.083 178.175 233.283 177.975 233.532 177.975C233.782 177.975 233.971 178.185 233.971 178.425Z" fill="#263238"/>
<path d="M211.195 185.748C205.836 187.217 193.918 186.758 189.118 183.051C184.317 179.344 189.846 181.013 189.846 181.013C189.846 181.013 183.998 177.925 183.359 175.507C182.71 173.089 186.233 174.568 186.233 174.568C186.233 174.568 181.642 170.662 181.033 168.364C180.434 166.066 183.788 167.464 183.788 167.464C183.788 167.464 179.606 164.387 180.454 162.309C181.303 160.231 203.35 177.865 210.167 178.425C217.004 178.984 216.625 184.27 211.195 185.748Z" fill="#FF64AE"/>
<path d="M176.073 161.07C175.134 160.74 174.186 160.42 173.228 160.131" stroke="#407BFF" stroke-width="0.75" stroke-linecap="round" stroke-linejoin="round"/>
<path d="M167.39 158.642C163.896 157.913 160.333 157.433 156.8 157.183C147.099 156.504 131.878 155.545 125.939 165.226C120.52 174.049 129.842 189.095 133.146 197.288C137.198 207.32 142.018 219.719 137.228 230.34C127.387 252.161 85.2778 240.83 71.0752 220.728" stroke="#407BFF" stroke-width="0.75" stroke-linecap="round" stroke-linejoin="round" stroke-dasharray="6.03 6.03"/>
<path d="M69.4681 218.2C68.969 217.321 68.5199 216.422 68.1406 215.512" stroke="#407BFF" stroke-width="0.75" stroke-linecap="round" stroke-linejoin="round"/>
<path d="M190.685 297.531H152.798V305.304H190.685V297.531Z" fill="white"/>
<path opacity="0.1" d="M190.685 297.531H152.798V305.304H190.685V297.531Z" fill="black"/>
<path opacity="0.1" d="M168.757 297.531H152.798V305.304H168.757V297.531Z" fill="black"/>
<path opacity="0.1" d="M152.798 298.65H186.523L152.798 299.609V298.65Z" fill="black"/>
<path opacity="0.1" d="M190.685 299.999L161.451 300.728H190.685V299.999Z" fill="black"/>
<path opacity="0.1" d="M154.345 302.177L168.757 301.587L189.946 302.177L168.757 302.507L154.345 302.177Z" fill="black"/>
<path opacity="0.1" d="M152.798 303.826H177.77L152.798 304.415V303.826Z" fill="black"/>
<path opacity="0.1" d="M190.635 304.415L173.957 304.725H190.685L190.635 304.415Z" fill="black"/>
<path d="M185.415 289.758H147.528V297.531H185.415V289.758Z" fill="white"/>
<path opacity="0.1" d="M185.415 289.758H147.528V297.531H185.415V289.758Z" fill="black"/>
<path opacity="0.1" d="M163.487 289.758H147.528V297.531H163.487V289.758Z" fill="black"/>
<path opacity="0.1" d="M147.528 290.877H181.253L147.528 291.826V290.877Z" fill="black"/>
<path opacity="0.1" d="M185.415 292.226L156.181 292.945H185.415V292.226Z" fill="black"/>
<path opacity="0.1" d="M149.075 294.394L163.487 293.804L184.676 294.394L163.487 294.724L149.075 294.394Z" fill="black"/>
<path opacity="0.1" d="M147.528 296.042H172.5L147.528 296.642V296.042Z" fill="black"/>
<path opacity="0.1" d="M185.355 296.642L168.687 296.952H185.415L185.355 296.642Z" fill="black"/>
<path d="M189.737 281.975H151.85V289.748H189.737V281.975Z" fill="white"/>
<path opacity="0.1" d="M189.737 281.975H151.85V289.748H189.737V281.975Z" fill="black"/>
<path opacity="0.1" d="M167.809 281.975H151.85V289.748H167.809V281.975Z" fill="black"/>
<path opacity="0.1" d="M151.85 283.094H185.575L151.85 284.053V283.094Z" fill="black"/>
<path opacity="0.1" d="M189.737 284.443L160.503 285.172H189.737V284.443Z" fill="black"/>
<path opacity="0.1" d="M153.396 286.62L167.809 286.031L188.998 286.62L167.809 286.95L153.396 286.62Z" fill="black"/>
<path opacity="0.1" d="M151.85 288.269H176.821L151.85 288.859V288.269Z" fill="black"/>
<path opacity="0.1" d="M189.687 288.859L173.009 289.168H189.737L189.687 288.859Z" fill="black"/>
<path d="M214.978 305.144L215.966 301.418H256.438L275.072 303.286L275.781 305.144H214.978Z" fill="#263238"/>
<path opacity="0.4" d="M256.438 301.418V305.144H214.978L215.966 301.418H256.438Z" fill="black"/>
<path d="M248.303 283.583C248.483 285.551 247.046 287.15 245.09 287.15H183.089C181.123 287.15 179.386 285.551 179.207 283.583L175.524 243.848C175.484 243.438 175.514 243.048 175.604 242.689C175.953 241.29 177.181 240.281 178.738 240.281H240.738C242.704 240.281 244.441 241.879 244.621 243.848L248.303 283.583Z" fill="#263238"/>
<path opacity="0.4" d="M244.87 287.15H183.089C181.123 287.15 179.386 285.552 179.207 283.583L175.524 243.848C175.484 243.438 175.514 243.049 175.604 242.689H237.384C239.341 242.689 241.077 244.287 241.267 246.256L244.95 285.991C244.99 286.401 244.96 286.79 244.87 287.15Z" fill="white"/>
<path d="M202.272 262.781H215.107L211.684 299.539L231.965 302.587V305.144H189.247V302.587L198 299.539L202.272 262.781Z" fill="#263238"/>
<path opacity="0.1" d="M215.108 262.781L205.596 304.565L198 304.335L202.272 262.781H215.108Z" fill="white"/>
<path d="M215.048 465.415H208.93L197.941 312.298H206.055L215.048 465.415Z" fill="#263238"/>
<path opacity="0.4" d="M215.048 465.414H208.93L198.48 319.911L197.941 312.547H206.055L206.494 319.911L215.048 465.414Z" fill="white"/>
<path opacity="0.2" d="M206.494 319.541H198.48L197.941 312.547H206.055L206.494 319.541Z" fill="black"/>
<path d="M259.921 465.415H253.803L252.805 312.298H260.92L259.921 465.415Z" fill="#263238"/>
<path opacity="0.5" d="M260.92 312.547L260.76 337.256L259.921 465.414H253.803L252.965 337.256L252.805 312.547H260.92Z" fill="white"/>
<path opacity="0.2" d="M260.92 312.547L260.76 337.525H252.965L252.805 312.547H260.92Z" fill="black"/>
<path d="M324.836 465.415H318.718L307.729 312.298H315.843L324.836 465.415Z" fill="#263238"/>
<path opacity="0.5" d="M324.836 465.414H318.718L308.268 319.911L307.729 312.547H315.843L316.283 319.911L324.836 465.414Z" fill="white"/>
<path opacity="0.2" d="M316.283 319.541H308.268L307.729 312.547H315.843L316.283 319.541Z" fill="black"/>
<path d="M145.093 465.415H138.984L147.967 312.298H156.081L145.093 465.415Z" fill="#263238"/>
<path opacity="0.5" d="M156.081 312.547L155.542 319.911L145.093 465.414H138.984L147.528 319.911L147.967 312.547H156.081Z" fill="white"/>
<path opacity="0.2" d="M147.967 312.548H156.081L155.542 319.542H147.528L147.967 312.548Z" fill="black"/>
<path d="M320.115 316.135H143.695C142.508 316.135 141.54 315.166 141.54 313.977V308.472H322.271V313.977C322.271 315.166 321.313 316.135 320.115 316.135Z" fill="#FF64AE"/>
<path opacity="0.2" d="M322.271 308.472H141.54V312.308H322.271V308.472Z" fill="black"/>
<path d="M326.064 309.471H137.747C136.559 309.471 135.591 308.501 135.591 307.313C135.591 306.124 136.559 305.154 137.747 305.154H326.064C327.252 305.154 328.22 306.124 328.22 307.313C328.22 308.501 327.252 309.471 326.064 309.471Z" fill="#FF64AE"/>
<path d="M281.51 298.49L283.825 295.013C284.284 294.324 285.063 293.904 285.901 293.904H288.836C289.085 293.904 289.325 293.944 289.554 294.014L300.024 297.191C300.623 297.371 301.122 297.771 301.441 298.3L302.939 300.828L281.51 298.49Z" fill="#407BFF"/>
<path opacity="0.2" d="M302.948 300.828L287.708 299.17L281.51 298.49L283.825 295.013C284.284 294.324 285.063 293.904 285.901 293.904H288.836C289.085 293.904 289.325 293.944 289.564 294.014L289.794 294.084L300.024 297.191C300.623 297.371 301.132 297.761 301.451 298.3L302.948 300.828Z" fill="black"/>
<path opacity="0.2" d="M302.949 300.828L287.708 299.17L289.794 294.084L300.024 297.191C300.623 297.371 301.132 297.761 301.451 298.3L302.949 300.828Z" fill="black"/>
<path d="M310.195 304.815V305.144H296.91H277.837L279.035 300.458C279.504 298.7 281.101 297.471 282.917 297.471H297.269C297.749 297.471 298.218 297.551 298.667 297.721L300.463 298.39L307.59 301.048C309.157 301.637 310.195 303.136 310.195 304.815Z" fill="#407BFF"/>
<path opacity="0.2" d="M310.195 304.815V305.144H296.91L297.619 300.079C297.808 298.74 299.196 297.921 300.463 298.39L307.59 301.048C309.157 301.638 310.195 303.136 310.195 304.815Z" fill="black"/>
<path d="M298.976 301.707L303.198 289.008C303.378 288.459 304.006 288.209 304.525 288.469C304.915 288.669 305.114 289.118 305.005 289.548L301.441 303.106C301.451 303.096 299.076 304.055 298.976 301.707Z" fill="#263238"/>
<path opacity="0.2" d="M281.51 304.095H279.633L279.993 302.247H281.869L281.51 304.095Z" fill="black"/>
<path opacity="0.2" d="M284.305 304.025H282.428L282.788 302.177H284.664L284.305 304.025Z" fill="black"/>
</svg>
