<svg width="422" height="400" viewBox="0 0 422 400" fill="none" xmlns="http://www.w3.org/2000/svg">
<path d="M391.027 0.5C399.696 17.5285 396.517 60.2605 314.452 94.9602C211.87 138.335 134.813 183.155 131.442 249.181C128.071 315.207 47.6425 390.389 25.4886 370.63C7.76555 354.822 0.766214 316.171 -0.518066 298.821" stroke="#E3E6FF"/>
<path d="M417.372 0.981934C426.635 19.1389 423.239 64.7025 335.55 101.702C225.94 147.95 143.603 195.741 140.001 266.142C136.399 336.543 50.4603 416.707 26.7886 395.638C7.85117 378.783 0.372275 337.57 -1 319.071" stroke="#E3E6FF"/>
<path d="M364.837 0.981934C372.937 16.8528 369.967 56.6796 293.29 89.0201C197.443 129.446 125.445 171.219 122.296 232.756C119.146 294.293 43.9984 364.364 23.2991 345.948C6.73972 331.215 0.199957 295.191 -1 279.021" stroke="#E3E6FF"/>
<path d="M343.823 0.981934C351.457 15.9295 348.658 53.4395 276.385 83.8988C186.044 121.973 118.182 161.316 115.213 219.273C112.244 277.23 41.4136 343.226 21.9034 325.881C6.29515 312.005 0.13103 278.077 -1 262.847" stroke="#E3E6FF"/>
</svg>
