<svg width="552" height="521" viewBox="0 0 552 521" fill="none" xmlns="http://www.w3.org/2000/svg">
<path d="M39.9331 520.6C28.6318 498.401 32.7756 442.693 139.761 397.457C273.492 340.911 373.947 282.481 378.342 196.407C382.737 110.332 487.587 12.3199 516.468 38.0794C539.573 58.6871 548.698 109.075 550.372 131.694" stroke="#E3E6FF"/>
<path d="M5.58772 519.972C-6.48782 496.301 -2.06011 436.902 112.255 388.668C255.149 328.376 362.487 266.074 367.183 174.295C371.879 82.517 483.914 -21.9897 514.773 5.47679C539.461 27.45 549.211 81.1772 551 105.294" stroke="#E3E6FF"/>
<path d="M74.0755 519.972C63.5163 499.282 67.388 447.361 167.349 405.201C292.299 352.499 386.159 298.042 390.265 217.819C394.372 137.596 492.338 46.2476 519.322 70.2558C540.91 89.4625 549.436 136.425 551 157.505" stroke="#E3E6FF"/>
<path d="M101.471 519.972C91.518 500.485 95.1673 451.585 189.386 411.877C307.159 362.242 395.628 310.952 399.498 235.396C403.369 159.84 495.707 73.805 521.142 96.4166C541.49 114.506 549.526 158.737 551 178.591" stroke="#E3E6FF"/>
</svg>
