<svg width="262" height="71" viewBox="0 0 262 71" fill="none" xmlns="http://www.w3.org/2000/svg">
<g filter="url(#filter0_d_91_39)">
<circle cx="35.5" cy="31.5" r="31.5" fill="#FF64AE"/>
<rect x="43" y="26" width="40" height="11" rx="5.5" fill="#091156"/>
<circle cx="32" cy="26" r="3" fill="white"/>
<circle cx="22.5" cy="17.5" r="6.5" fill="white"/>
<path d="M112.688 31.36C113.664 31.568 114.448 32.056 115.04 32.824C115.632 33.576 115.928 34.44 115.928 35.416C115.928 36.824 115.432 37.944 114.44 38.776C113.464 39.592 112.096 40 110.336 40H102.488V23.152H110.072C111.784 23.152 113.12 23.544 114.08 24.328C115.056 25.112 115.544 26.176 115.544 27.52C115.544 28.512 115.28 29.336 114.752 29.992C114.24 30.648 113.552 31.104 112.688 31.36ZM106.592 29.968H109.28C109.952 29.968 110.464 29.824 110.816 29.536C111.184 29.232 111.368 28.792 111.368 28.216C111.368 27.64 111.184 27.2 110.816 26.896C110.464 26.592 109.952 26.44 109.28 26.44H106.592V29.968ZM109.616 36.688C110.304 36.688 110.832 36.536 111.2 36.232C111.584 35.912 111.776 35.456 111.776 34.864C111.776 34.272 111.576 33.808 111.176 33.472C110.792 33.136 110.256 32.968 109.568 32.968H106.592V36.688H109.616ZM133.332 33.088C133.332 33.472 133.308 33.872 133.26 34.288H123.972C124.036 35.12 124.3 35.76 124.764 36.208C125.244 36.64 125.828 36.856 126.516 36.856C127.54 36.856 128.252 36.424 128.652 35.56H133.02C132.796 36.44 132.388 37.232 131.796 37.936C131.22 38.64 130.492 39.192 129.612 39.592C128.732 39.992 127.748 40.192 126.66 40.192C125.348 40.192 124.18 39.912 123.156 39.352C122.132 38.792 121.332 37.992 120.756 36.952C120.18 35.912 119.892 34.696 119.892 33.304C119.892 31.912 120.172 30.696 120.732 29.656C121.308 28.616 122.108 27.816 123.132 27.256C124.156 26.696 125.332 26.416 126.66 26.416C127.956 26.416 129.108 26.688 130.116 27.232C131.124 27.776 131.908 28.552 132.468 29.56C133.044 30.568 133.332 31.744 133.332 33.088ZM129.132 32.008C129.132 31.304 128.892 30.744 128.412 30.328C127.932 29.912 127.332 29.704 126.612 29.704C125.924 29.704 125.34 29.904 124.86 30.304C124.396 30.704 124.108 31.272 123.996 32.008H129.132ZM137.081 33.28C137.081 31.904 137.337 30.696 137.849 29.656C138.377 28.616 139.089 27.816 139.985 27.256C140.881 26.696 141.881 26.416 142.985 26.416C143.929 26.416 144.753 26.608 145.457 26.992C146.177 27.376 146.729 27.88 147.113 28.504V26.608H151.217V40H147.113V38.104C146.713 38.728 146.153 39.232 145.433 39.616C144.729 40 143.905 40.192 142.961 40.192C141.873 40.192 140.881 39.912 139.985 39.352C139.089 38.776 138.377 37.968 137.849 36.928C137.337 35.872 137.081 34.656 137.081 33.28ZM147.113 33.304C147.113 32.28 146.825 31.472 146.249 30.88C145.689 30.288 145.001 29.992 144.185 29.992C143.369 29.992 142.673 30.288 142.097 30.88C141.537 31.456 141.257 32.256 141.257 33.28C141.257 34.304 141.537 35.12 142.097 35.728C142.673 36.32 143.369 36.616 144.185 36.616C145.001 36.616 145.689 36.32 146.249 35.728C146.825 35.136 147.113 34.328 147.113 33.304ZM169.81 26.608V40H165.706V38.176C165.29 38.768 164.722 39.248 164.002 39.616C163.298 39.968 162.514 40.144 161.65 40.144C160.626 40.144 159.722 39.92 158.938 39.472C158.154 39.008 157.546 38.344 157.114 37.48C156.682 36.616 156.466 35.6 156.466 34.432V26.608H160.546V33.88C160.546 34.776 160.778 35.472 161.242 35.968C161.706 36.464 162.33 36.712 163.114 36.712C163.914 36.712 164.546 36.464 165.01 35.968C165.474 35.472 165.706 34.776 165.706 33.88V26.608H169.81ZM182.622 36.52V40H180.534C179.046 40 177.886 39.64 177.054 38.92C176.222 38.184 175.806 36.992 175.806 35.344V30.016H174.174V26.608H175.806V23.344H179.91V26.608H182.598V30.016H179.91V35.392C179.91 35.792 180.006 36.08 180.198 36.256C180.39 36.432 180.71 36.52 181.158 36.52H182.622ZM189.372 25.216C188.652 25.216 188.06 25.008 187.596 24.592C187.148 24.16 186.924 23.632 186.924 23.008C186.924 22.368 187.148 21.84 187.596 21.424C188.06 20.992 188.652 20.776 189.372 20.776C190.076 20.776 190.652 20.992 191.1 21.424C191.564 21.84 191.796 22.368 191.796 23.008C191.796 23.632 191.564 24.16 191.1 24.592C190.652 25.008 190.076 25.216 189.372 25.216ZM191.412 26.608V40H187.308V26.608H191.412ZM195.97 33.304C195.97 31.912 196.25 30.696 196.81 29.656C197.386 28.616 198.178 27.816 199.186 27.256C200.21 26.696 201.378 26.416 202.69 26.416C204.37 26.416 205.77 26.856 206.89 27.736C208.026 28.616 208.77 29.856 209.122 31.456H204.754C204.386 30.432 203.674 29.92 202.618 29.92C201.866 29.92 201.266 30.216 200.818 30.808C200.37 31.384 200.146 32.216 200.146 33.304C200.146 34.392 200.37 35.232 200.818 35.824C201.266 36.4 201.866 36.688 202.618 36.688C203.674 36.688 204.386 36.176 204.754 35.152H209.122C208.77 36.72 208.026 37.952 206.89 38.848C205.754 39.744 204.354 40.192 202.69 40.192C201.378 40.192 200.21 39.912 199.186 39.352C198.178 38.792 197.386 37.992 196.81 36.952C196.25 35.912 195.97 34.696 195.97 33.304ZM226.342 33.088C226.342 33.472 226.318 33.872 226.27 34.288H216.982C217.046 35.12 217.31 35.76 217.774 36.208C218.254 36.64 218.838 36.856 219.526 36.856C220.55 36.856 221.262 36.424 221.662 35.56H226.03C225.806 36.44 225.398 37.232 224.806 37.936C224.23 38.64 223.502 39.192 222.622 39.592C221.742 39.992 220.758 40.192 219.67 40.192C218.358 40.192 217.19 39.912 216.166 39.352C215.142 38.792 214.342 37.992 213.766 36.952C213.19 35.912 212.902 34.696 212.902 33.304C212.902 31.912 213.182 30.696 213.742 29.656C214.318 28.616 215.118 27.816 216.142 27.256C217.166 26.696 218.342 26.416 219.67 26.416C220.966 26.416 222.118 26.688 223.126 27.232C224.134 27.776 224.918 28.552 225.478 29.56C226.054 30.568 226.342 31.744 226.342 33.088ZM222.142 32.008C222.142 31.304 221.902 30.744 221.422 30.328C220.942 29.912 220.342 29.704 219.622 29.704C218.934 29.704 218.35 29.904 217.87 30.304C217.406 30.704 217.118 31.272 217.006 32.008H222.142Z" fill="#091156"/>
</g>
<defs>
<filter id="filter0_d_91_39" x="0" y="0" width="230.342" height="71" filterUnits="userSpaceOnUse" color-interpolation-filters="sRGB">
<feFlood flood-opacity="0" result="BackgroundImageFix"/>
<feColorMatrix in="SourceAlpha" type="matrix" values="0 0 0 0 0 0 0 0 0 0 0 0 0 0 0 0 0 0 127 0" result="hardAlpha"/>
<feOffset dy="4"/>
<feGaussianBlur stdDeviation="2"/>
<feComposite in2="hardAlpha" operator="out"/>
<feColorMatrix type="matrix" values="0 0 0 0 0 0 0 0 0 0 0 0 0 0 0 0 0 0 0.25 0"/>
<feBlend mode="normal" in2="BackgroundImageFix" result="effect1_dropShadow_91_39"/>
<feBlend mode="normal" in="SourceGraphic" in2="effect1_dropShadow_91_39" result="shape"/>
</filter>
</defs>
</svg>
