<svg width="103" height="103" viewBox="0 0 103 103" fill="none" xmlns="http://www.w3.org/2000/svg">
<g filter="url(#filter0_d_2_1030)">
<circle cx="51.5" cy="47.5" r="21.5" fill="white"/>
</g>
<path d="M51.5046 41.8848C48.3992 41.8848 45.8943 44.3896 45.8943 47.4951C45.8943 50.6006 48.3992 53.1055 51.5046 53.1055C54.6101 53.1055 57.115 50.6006 57.115 47.4951C57.115 44.3896 54.6101 41.8848 51.5046 41.8848ZM51.5046 51.1426C49.4978 51.1426 47.8572 49.5068 47.8572 47.4951C47.8572 45.4834 49.4929 43.8477 51.5046 43.8477C53.5164 43.8477 55.1521 45.4834 55.1521 47.4951C55.1521 49.5068 53.5115 51.1426 51.5046 51.1426ZM58.6531 41.6553C58.6531 42.3828 58.0671 42.9639 57.3445 42.9639C56.6169 42.9639 56.0359 42.3779 56.0359 41.6553C56.0359 40.9326 56.6218 40.3467 57.3445 40.3467C58.0671 40.3467 58.6531 40.9326 58.6531 41.6553ZM62.3689 42.9834C62.2859 41.2305 61.8855 39.6777 60.6013 38.3984C59.322 37.1191 57.7693 36.7188 56.0164 36.6309C54.2097 36.5283 48.7947 36.5283 46.988 36.6309C45.24 36.7139 43.6873 37.1143 42.4031 38.3936C41.1189 39.6729 40.7234 41.2256 40.6355 42.9785C40.533 44.7852 40.533 50.2002 40.6355 52.0068C40.7185 53.7598 41.1189 55.3125 42.4031 56.5918C43.6873 57.8711 45.2351 58.2715 46.988 58.3594C48.7947 58.4619 54.2097 58.4619 56.0164 58.3594C57.7693 58.2764 59.322 57.876 60.6013 56.5918C61.8806 55.3125 62.281 53.7598 62.3689 52.0068C62.4714 50.2002 62.4714 44.79 62.3689 42.9834ZM60.0349 53.9453C59.6541 54.9023 58.9167 55.6396 57.9548 56.0254C56.5144 56.5967 53.0964 56.4648 51.5046 56.4648C49.9128 56.4648 46.49 56.5918 45.0544 56.0254C44.0974 55.6445 43.3601 54.9072 42.9744 53.9453C42.4031 52.5049 42.5349 49.0869 42.5349 47.4951C42.5349 45.9033 42.408 42.4805 42.9744 41.0449C43.3552 40.0879 44.0925 39.3506 45.0544 38.9648C46.4949 38.3936 49.9128 38.5254 51.5046 38.5254C53.0964 38.5254 56.5193 38.3984 57.9548 38.9648C58.9119 39.3457 59.6492 40.083 60.0349 41.0449C60.6062 42.4854 60.4744 45.9033 60.4744 47.4951C60.4744 49.0869 60.6062 52.5098 60.0349 53.9453Z" fill="#091156"/>
<defs>
<filter id="filter0_d_2_1030" x="0" y="0" width="103" height="103" filterUnits="userSpaceOnUse" color-interpolation-filters="sRGB">
<feFlood flood-opacity="0" result="BackgroundImageFix"/>
<feColorMatrix in="SourceAlpha" type="matrix" values="0 0 0 0 0 0 0 0 0 0 0 0 0 0 0 0 0 0 127 0" result="hardAlpha"/>
<feMorphology radius="11" operator="dilate" in="SourceAlpha" result="effect1_dropShadow_2_1030"/>
<feOffset dy="4"/>
<feGaussianBlur stdDeviation="9.5"/>
<feComposite in2="hardAlpha" operator="out"/>
<feColorMatrix type="matrix" values="0 0 0 0 0.964706 0 0 0 0 0.968627 0 0 0 0 1 0 0 0 1 0"/>
<feBlend mode="normal" in2="BackgroundImageFix" result="effect1_dropShadow_2_1030"/>
<feBlend mode="normal" in="SourceGraphic" in2="effect1_dropShadow_2_1030" result="shape"/>
</filter>
</defs>
</svg>
