<svg width="25" height="28" viewBox="0 0 25 28" fill="none" xmlns="http://www.w3.org/2000/svg">
<path d="M12.5046 7.66685C9.39917 7.66685 6.89429 10.4562 6.89429 13.9143C6.89429 17.3724 9.39917 20.1617 12.5046 20.1617C15.6101 20.1617 18.115 17.3724 18.115 13.9143C18.115 10.4562 15.6101 7.66685 12.5046 7.66685ZM12.5046 17.9759C10.4978 17.9759 8.85718 16.1544 8.85718 13.9143C8.85718 11.6741 10.4929 9.85264 12.5046 9.85264C14.5164 9.85264 16.1521 11.6741 16.1521 13.9143C16.1521 16.1544 14.5115 17.9759 12.5046 17.9759ZM19.6531 7.4113C19.6531 8.22146 19.0671 8.86849 18.3445 8.86849C17.6169 8.86849 17.0359 8.21602 17.0359 7.4113C17.0359 6.60659 17.6218 5.95411 18.3445 5.95411C19.0671 5.95411 19.6531 6.60659 19.6531 7.4113ZM23.3689 8.89024C23.2859 6.93826 22.8855 5.20921 21.6013 3.78464C20.322 2.36008 18.7693 1.91422 17.0164 1.81635C15.2097 1.70217 9.79468 1.70217 7.98804 1.81635C6.23999 1.90878 4.68726 2.35464 3.40308 3.7792C2.1189 5.20377 1.72339 6.93282 1.6355 8.8848C1.53296 10.8966 1.53296 16.9265 1.6355 18.9383C1.71851 20.8903 2.1189 22.6194 3.40308 24.0439C4.68726 25.4685 6.23511 25.9143 7.98804 26.0122C9.79468 26.1264 15.2097 26.1264 17.0164 26.0122C18.7693 25.9198 20.322 25.4739 21.6013 24.0439C22.8806 22.6194 23.281 20.8903 23.3689 18.9383C23.4714 16.9265 23.4714 10.902 23.3689 8.89024ZM21.0349 21.0969C20.6541 22.1626 19.9167 22.9836 18.9548 23.4132C17.5144 24.0494 14.0964 23.9025 12.5046 23.9025C10.9128 23.9025 7.48999 24.0439 6.05444 23.4132C5.09741 22.9891 4.36011 22.1681 3.97437 21.0969C3.40308 19.4929 3.53491 15.6868 3.53491 13.9143C3.53491 12.1417 3.40796 8.3302 3.97437 6.73164C4.35522 5.66594 5.09253 4.84491 6.05444 4.41537C7.49487 3.7792 10.9128 3.92601 12.5046 3.92601C14.0964 3.92601 17.5193 3.78464 18.9548 4.41537C19.9119 4.83947 20.6492 5.6605 21.0349 6.73164C21.6062 8.33564 21.4744 12.1417 21.4744 13.9143C21.4744 15.6868 21.6062 19.4984 21.0349 21.0969Z" fill="white"/>
</svg>
