<svg width="79" height="79" viewBox="0 0 79 79" fill="none" xmlns="http://www.w3.org/2000/svg">
<g filter="url(#filter0_d_2_4357)">
<circle cx="41.5" cy="33.5" r="24.5" fill="white"/>
</g>
<path d="M41.5046 27.8848C38.3992 27.8848 35.8943 30.3896 35.8943 33.4951C35.8943 36.6006 38.3992 39.1055 41.5046 39.1055C44.6101 39.1055 47.115 36.6006 47.115 33.4951C47.115 30.3896 44.6101 27.8848 41.5046 27.8848ZM41.5046 37.1426C39.4978 37.1426 37.8572 35.5068 37.8572 33.4951C37.8572 31.4834 39.4929 29.8477 41.5046 29.8477C43.5164 29.8477 45.1521 31.4834 45.1521 33.4951C45.1521 35.5068 43.5115 37.1426 41.5046 37.1426ZM48.6531 27.6553C48.6531 28.3828 48.0671 28.9639 47.3445 28.9639C46.6169 28.9639 46.0359 28.3779 46.0359 27.6553C46.0359 26.9326 46.6218 26.3467 47.3445 26.3467C48.0671 26.3467 48.6531 26.9326 48.6531 27.6553ZM52.3689 28.9834C52.2859 27.2305 51.8855 25.6777 50.6013 24.3984C49.322 23.1191 47.7693 22.7188 46.0164 22.6309C44.2097 22.5283 38.7947 22.5283 36.988 22.6309C35.24 22.7139 33.6873 23.1143 32.4031 24.3936C31.1189 25.6729 30.7234 27.2256 30.6355 28.9785C30.533 30.7852 30.533 36.2002 30.6355 38.0068C30.7185 39.7598 31.1189 41.3125 32.4031 42.5918C33.6873 43.8711 35.2351 44.2715 36.988 44.3594C38.7947 44.4619 44.2097 44.4619 46.0164 44.3594C47.7693 44.2764 49.322 43.876 50.6013 42.5918C51.8806 41.3125 52.281 39.7598 52.3689 38.0068C52.4714 36.2002 52.4714 30.79 52.3689 28.9834ZM50.0349 39.9453C49.6541 40.9023 48.9167 41.6396 47.9548 42.0254C46.5144 42.5967 43.0964 42.4648 41.5046 42.4648C39.9128 42.4648 36.49 42.5918 35.0544 42.0254C34.0974 41.6445 33.3601 40.9072 32.9744 39.9453C32.4031 38.5049 32.5349 35.0869 32.5349 33.4951C32.5349 31.9033 32.408 28.4805 32.9744 27.0449C33.3552 26.0879 34.0925 25.3506 35.0544 24.9648C36.4949 24.3936 39.9128 24.5254 41.5046 24.5254C43.0964 24.5254 46.5193 24.3984 47.9548 24.9648C48.9119 25.3457 49.6492 26.083 50.0349 27.0449C50.6062 28.4854 50.4744 31.9033 50.4744 33.4951C50.4744 35.0869 50.6062 38.5098 50.0349 39.9453Z" fill="#091156"/>
<defs>
<filter id="filter0_d_2_4357" x="0" y="0" width="79" height="79" filterUnits="userSpaceOnUse" color-interpolation-filters="sRGB">
<feFlood flood-opacity="0" result="BackgroundImageFix"/>
<feColorMatrix in="SourceAlpha" type="matrix" values="0 0 0 0 0 0 0 0 0 0 0 0 0 0 0 0 0 0 127 0" result="hardAlpha"/>
<feMorphology radius="1" operator="erode" in="SourceAlpha" result="effect1_dropShadow_2_4357"/>
<feOffset dx="-2" dy="6"/>
<feGaussianBlur stdDeviation="8"/>
<feComposite in2="hardAlpha" operator="out"/>
<feColorMatrix type="matrix" values="0 0 0 0 0.900764 0 0 0 0 0.912127 0 0 0 0 0.991667 0 0 0 1 0"/>
<feBlend mode="normal" in2="BackgroundImageFix" result="effect1_dropShadow_2_4357"/>
<feBlend mode="normal" in="SourceGraphic" in2="effect1_dropShadow_2_4357" result="shape"/>
</filter>
</defs>
</svg>
