<svg width="25" height="28" viewBox="0 0 25 28" fill="none" xmlns="http://www.w3.org/2000/svg">
<g clip-path="url(#clip0_2_3480)">
<path d="M6.45898 24.3592H1.92383V8.09629H6.45898V24.3592ZM4.18896 5.87788C2.73877 5.87788 1.5625 4.54031 1.5625 2.92544C1.5625 2.14976 1.83922 1.40585 2.33177 0.85736C2.82433 0.30887 3.49238 0.000732422 4.18896 0.000732422C4.88555 0.000732422 5.5536 0.30887 6.04616 0.85736C6.53871 1.40585 6.81543 2.14976 6.81543 2.92544C6.81543 4.54031 5.63867 5.87788 4.18896 5.87788ZM23.4326 24.3592H18.9072V16.4425C18.9072 14.5558 18.873 12.1362 16.5493 12.1362C14.1914 12.1362 13.8301 14.186 13.8301 16.3066V24.3592H9.29981V8.09629H13.6494V10.3147H13.7129C14.3184 9.03693 15.7974 7.68849 18.0039 7.68849C22.5938 7.68849 23.4375 11.0542 23.4375 15.4257V24.3592H23.4326Z" fill="white"/>
</g>
<defs>
<clipPath id="clip0_2_3480">
<rect width="25" height="27.8388" fill="white" transform="translate(0 0.000244141)"/>
</clipPath>
</defs>
</svg>
