<svg width="166" height="166" viewBox="0 0 166 166" fill="none" xmlns="http://www.w3.org/2000/svg">
<circle cx="83" cy="83" r="83" fill="url(#paint0_linear_2_4466)"/>
<path opacity="0.5" d="M44.788 105.308C43.4303 102.061 48.6071 99.3849 48.6071 99.3849C48.6071 99.3849 55.3243 101.687 56.3089 101.108C57.2855 100.528 50.9494 98.0192 50.9494 98.0192C52.5533 96.5027 58.6115 95.2005 58.6115 95.2005C58.6115 95.2005 62.5814 100.893 63.3913 100.084C64.2012 99.2737 59.6119 95.2243 59.6119 95.2243C61.6763 94.4224 64.7649 95.1687 64.7649 95.1687C69.1954 96.8361 66.8293 102.434 66.8293 102.434C66.8293 102.434 68.2505 104.379 71.1169 105.642C71.1169 105.642 71.6965 105.84 72.4905 106.316L72.03 106.674C71.895 106.578 71.7679 106.491 71.633 106.412C71.633 106.412 71.633 106.412 71.625 106.412C71.5377 106.364 71.4186 106.301 71.2677 106.221C70.9184 106.054 70.6643 105.927 70.4896 105.832C69.4018 105.3 67.933 104.649 67.3533 104.728C67.3533 104.728 67.3454 104.617 67.2898 104.443C67.3136 104.53 67.3295 104.625 67.3533 104.728C67.8694 107.015 64.1774 110.326 61.6525 111.573C59.1276 112.819 59.596 111.469 60.0009 109.556C60.3979 107.65 63.0578 105.999 63.4866 105.046C63.9074 104.093 62.5417 104.522 61.1761 105.761C59.8104 106.999 60.2153 109.016 58.0398 111.065C55.8642 113.113 50.6477 110.088 50.6477 110.088C52.6565 109.334 54.8717 106.181 54.5462 105.538C54.2207 104.895 49.9649 108.293 49.1629 108.643C48.361 108.976 46.1457 108.548 44.788 105.308Z" fill="#A8CCFF"/>
<path d="M40.7307 62.2657C41.1357 58.3354 47.6782 58.4704 47.6782 58.4704C47.6782 58.4704 53.0694 64.3539 54.3477 64.3062C55.6261 64.2586 50.7192 58.3751 50.7192 58.3751C53.1091 57.7399 59.7945 59.709 59.7945 59.709C59.7945 59.709 60.66 67.4584 61.8907 67.0932C63.1214 66.7279 60.7791 60.2728 60.7791 60.2728C63.2484 60.5904 65.8924 62.9803 65.8924 62.9803C69.3701 66.9979 64.0265 71.2537 64.0265 71.2537C64.0265 71.2537 64.3838 73.9295 66.5276 76.7243C66.5276 76.7243 66.9881 77.2245 67.528 78.1297L66.8849 78.2329C66.8055 78.0662 66.7182 77.9153 66.6308 77.7644V77.7565C66.5673 77.6612 66.4879 77.5342 66.3767 77.3754C66.1147 77.026 65.9401 76.764 65.821 76.5735C65.0349 75.4619 63.9312 74.0327 63.3199 73.7945C63.3199 73.7945 63.3754 73.6833 63.4072 73.4769C63.3754 73.5801 63.3516 73.6833 63.3199 73.7945C62.6053 76.3273 57.1823 77.6136 54.0222 77.4865C50.8621 77.3595 52.0531 76.2797 53.4743 74.6123C54.8956 72.9449 58.405 72.7464 59.334 72.0318C60.263 71.3172 58.6829 71.0076 56.6741 71.4998C54.6574 71.9921 53.9746 74.1915 50.7351 75.049C47.4956 75.8986 43.9702 70.1183 43.9702 70.1183C46.3602 70.4518 50.2348 68.5303 50.2587 67.7204C50.2904 66.9105 44.264 67.9745 43.2795 67.8951C42.279 67.8078 40.3258 66.1959 40.7307 62.2657Z" fill="#DCEAFB"/>
<path opacity="0.5" d="M117.621 61.4558C117.073 56.0963 108.157 56.2869 108.157 56.2869C108.157 56.2869 100.812 64.2983 99.0655 64.2347C97.3187 64.1712 104.004 56.1598 104.004 56.1598C100.741 55.2944 91.6416 57.9781 91.6416 57.9781C91.6416 57.9781 90.4665 68.5382 88.7912 68.0459C87.1159 67.5536 90.3077 58.7482 90.3077 58.7482C86.9412 59.1849 83.3444 62.4324 83.3444 62.4324C78.6122 67.9109 85.8852 73.7071 85.8852 73.7071C85.8852 73.7071 85.4008 77.3595 82.471 81.1548C82.471 81.1548 81.8358 81.8376 81.1133 83.0683L81.9867 83.2112C82.0978 82.9889 82.209 82.7745 82.336 82.5681C82.336 82.5681 82.336 82.5601 82.344 82.5601C82.4234 82.4331 82.5425 82.2584 82.6854 82.044C83.0347 81.5676 83.2809 81.2103 83.4397 80.9483C84.5116 79.4397 86.0122 77.4865 86.8539 77.1689C86.8539 77.1689 86.7824 77.0181 86.7348 76.7402C86.7745 76.8751 86.8142 77.0181 86.8539 77.1689C87.8225 80.6228 95.2146 82.3775 99.526 82.2028C103.829 82.0282 102.21 80.5593 100.28 78.2805C98.3509 76.0097 93.5631 75.7397 92.3007 74.7631C91.0303 73.7865 93.1899 73.3736 95.9292 74.0406C98.6685 74.7075 99.6054 77.7168 104.028 78.876C108.443 80.0352 113.246 72.1588 113.246 72.1588C109.991 72.6114 104.711 69.9991 104.671 68.8955C104.631 67.7918 112.841 69.2448 114.175 69.1337C115.509 69.0067 118.177 66.8152 117.621 61.4558Z" fill="#A8CCFF"/>
<path d="M55.1421 44.4802C55.1421 44.4802 56.6507 41.8442 60.2634 42.1379C60.2634 42.1379 65.5117 37.7471 71.1014 41.5504C71.1014 41.5504 77.0484 40.6055 81.4551 42.3682C84.3928 43.5433 85.3615 44.774 85.3615 44.774L55.1421 44.4802Z" fill="#F6FBFF"/>
<path d="M93.9443 49.7285C93.9443 49.7285 94.8495 47.6482 97.025 47.8785C97.025 47.8785 100.177 44.4087 103.544 47.418C103.544 47.418 107.125 46.6716 109.769 48.0611C111.531 48.9901 112.119 49.9588 112.119 49.9588L93.9443 49.7285Z" fill="#F6FBFF"/>
<path d="M47.877 50.6099C47.877 50.6099 48.7186 48.9901 50.7195 49.1648C50.7195 49.1648 53.6255 46.4652 56.73 48.8075C56.73 48.8075 60.0251 48.2279 62.4706 49.3077C64.0983 50.0303 64.6382 50.7846 64.6382 50.7846L47.877 50.6099Z" fill="#F6FBFF"/>
<path d="M137.36 84.5056V115.932H88.6641V84.5056C88.6641 84.5056 95.7624 83.8148 99.0019 83.8148C102.908 83.8227 110.697 84.5214 114.596 84.5056C118.224 84.4897 125.474 83.7513 129.11 83.8148C131.182 83.8545 137.36 84.5056 137.36 84.5056Z" fill="#FFA5A8"/>
<path d="M137.36 84.3706V92.2708C133.66 91.8024 133.247 95.1292 130.857 95.28C128.467 95.4309 129.912 92.6202 127.673 92.5646C125.434 92.509 126.3 94.3114 124.124 95.0736C121.957 95.8358 120.361 94.3114 119.567 93.1442C118.773 91.977 117.756 91.6277 116.311 92.5011C114.866 93.3745 115.152 95.1848 112.405 95.0657C109.658 94.9466 110.309 91.9215 108.133 92.7393C105.966 93.5571 105.164 95.1292 103.139 95.0657C101.114 95.0022 101.694 92.4455 99.4469 92.5011C97.2078 92.5566 97.8906 94.4543 94.3097 94.9783C90.7288 95.5024 88.6724 93.4062 88.6724 93.4062V84.3706C88.6724 84.3706 95.7707 83.8148 99.0102 83.8148C102.917 83.8227 110.706 84.3785 114.604 84.3706C118.233 84.3626 125.482 83.7592 129.118 83.8148C131.183 83.8465 137.36 84.3706 137.36 84.3706Z" fill="#FFE1CC"/>
<path d="M137.36 84.5056V87.88C137.36 87.88 126.657 87.4751 120.146 87.8006C113.636 88.1262 103.536 87.3639 99.5183 87.2607C95.5007 87.1496 88.6724 87.8006 88.6724 87.8006V84.5135C88.6724 84.5135 95.7707 83.8227 99.0102 83.8227C102.917 83.8307 110.706 84.5294 114.604 84.5135C118.233 84.4976 125.482 83.7592 129.118 83.8227C131.183 83.8545 137.36 84.5056 137.36 84.5056Z" fill="#FFCCA9"/>
<path d="M88.6641 111.041C88.6641 111.041 92.6737 110.517 96.7946 111.041C100.923 111.565 108.951 110.048 113.73 110.811C118.51 111.573 121.98 110.922 127.951 110.596C133.922 110.271 137.352 111.168 137.352 111.168V115.932H88.6641V111.041Z" fill="#FF7A7E"/>
<path d="M103.186 109.707C101.868 109.707 100.677 109.651 99.7086 109.5C95.0082 108.786 88.7436 109.191 88.6801 109.191L88.6562 108.865C88.7198 108.857 95.0161 108.46 99.7563 109.175C102.257 109.556 106.283 109.318 110.166 109.088C113.659 108.881 116.962 108.691 118.86 108.961C120.678 109.223 124.187 108.992 127.578 108.77C131.588 108.508 135.732 108.238 137.4 108.746L137.304 109.056C135.692 108.564 131.58 108.834 127.594 109.088C124.029 109.318 120.662 109.54 118.804 109.27C116.938 109 113.651 109.191 110.173 109.397C107.776 109.556 105.314 109.707 103.186 109.707Z" fill="#FF7A7E"/>
<path d="M103.623 108.921C102.885 108.921 102.154 108.881 101.4 108.786C96.6437 108.19 88.7435 108.27 88.6641 108.27V107.944C88.7435 107.944 96.6675 107.873 101.439 108.468C103.583 108.738 105.584 108.54 108.125 108.301C111.269 108 115.183 107.627 121.123 107.944C127.165 108.27 130.214 107.754 132.437 107.38C134.208 107.079 135.486 106.864 137.376 107.174L137.32 107.492C135.486 107.19 134.223 107.404 132.485 107.698C130.246 108.079 127.181 108.595 121.099 108.27C115.183 107.944 111.285 108.325 108.149 108.627C106.481 108.786 105.036 108.921 103.623 108.921Z" fill="#7E9BEA"/>
<path opacity="0.4" d="M91.0543 114.709C91.3613 114.709 91.6101 114.46 91.6101 114.153C91.6101 113.846 91.3613 113.598 91.0543 113.598C90.7474 113.598 90.4985 113.846 90.4985 114.153C90.4985 114.46 90.7474 114.709 91.0543 114.709Z" fill="#FFA0A3"/>
<path opacity="0.4" d="M89.2837 114.391C89.2837 114.082 89.5298 113.836 89.8395 113.836C90.1412 113.836 90.3953 114.082 90.3953 114.391C90.3953 114.693 90.1491 114.947 89.8395 114.947C89.5378 114.947 89.2837 114.701 89.2837 114.391Z" fill="#FFA0A3"/>
<path opacity="0.4" d="M90.8877 112.859C90.8877 112.549 91.1338 112.303 91.4435 112.303C91.7531 112.303 91.9993 112.549 91.9993 112.859C91.9993 113.161 91.7531 113.415 91.4435 113.415C91.1338 113.415 90.8877 113.161 90.8877 112.859Z" fill="#FFA0A3"/>
<path opacity="0.4" d="M89.5933 113.145C89.5933 112.843 89.8394 112.589 90.1491 112.589C90.4508 112.589 90.7048 112.835 90.7048 113.145C90.7048 113.455 90.4587 113.701 90.1491 113.701C89.8394 113.701 89.5933 113.455 89.5933 113.145Z" fill="#FFA0A3"/>
<path opacity="0.4" d="M92.444 114.431C92.7509 114.431 92.9998 114.182 92.9998 113.875C92.9998 113.568 92.7509 113.32 92.444 113.32C92.137 113.32 91.8882 113.568 91.8882 113.875C91.8882 114.182 92.137 114.431 92.444 114.431Z" fill="#FFA0A3"/>
<path opacity="0.4" d="M94.0319 113.875C94.3388 113.875 94.5877 113.627 94.5877 113.32C94.5877 113.013 94.3388 112.764 94.0319 112.764C93.7249 112.764 93.4761 113.013 93.4761 113.32C93.4761 113.627 93.7249 113.875 94.0319 113.875Z" fill="#FFA0A3"/>
<path opacity="0.4" d="M92.8409 113.145C93.1479 113.145 93.3967 112.896 93.3967 112.589C93.3967 112.282 93.1479 112.033 92.8409 112.033C92.534 112.033 92.2852 112.282 92.2852 112.589C92.2852 112.896 92.534 113.145 92.8409 113.145Z" fill="#FFA0A3"/>
<path opacity="0.4" d="M95.3976 114.519C95.7045 114.519 95.9534 114.27 95.9534 113.963C95.9534 113.656 95.7045 113.407 95.3976 113.407C95.0906 113.407 94.8418 113.656 94.8418 113.963C94.8418 114.27 95.0906 114.519 95.3976 114.519Z" fill="#FFA0A3"/>
<path opacity="0.4" d="M93.1823 114.066C93.3966 113.852 93.746 113.852 93.9683 114.066C94.1827 114.28 94.1827 114.63 93.9683 114.852C93.7539 115.066 93.4046 115.066 93.1823 114.852C92.9679 114.63 92.9679 114.28 93.1823 114.066Z" fill="#FFA0A3"/>
<path opacity="0.4" d="M96.7155 113.987C97.0224 113.987 97.2713 113.738 97.2713 113.431C97.2713 113.124 97.0224 112.875 96.7155 112.875C96.4085 112.875 96.1597 113.124 96.1597 113.431C96.1597 113.738 96.4085 113.987 96.7155 113.987Z" fill="#FFA0A3"/>
<path opacity="0.4" d="M96.5568 112.764C96.8637 112.764 97.1126 112.515 97.1126 112.208C97.1126 111.901 96.8637 111.652 96.5568 111.652C96.2498 111.652 96.001 111.901 96.001 112.208C96.001 112.515 96.2498 112.764 96.5568 112.764Z" fill="#FFA0A3"/>
<path opacity="0.4" d="M97.8986 113.415C98.2055 113.415 98.4544 113.166 98.4544 112.859C98.4544 112.552 98.2055 112.303 97.8986 112.303C97.5916 112.303 97.3428 112.552 97.3428 112.859C97.3428 113.166 97.5916 113.415 97.8986 113.415Z" fill="#FFA0A3"/>
<path opacity="0.4" d="M97.4538 113.764C97.6681 113.55 98.0175 113.55 98.2398 113.764C98.4542 113.979 98.4542 114.328 98.2398 114.55C98.0254 114.765 97.6761 114.765 97.4538 114.55C97.2394 114.328 97.2394 113.979 97.4538 113.764Z" fill="#FFA0A3"/>
<path opacity="0.4" d="M99.129 114.09C99.436 114.09 99.6848 113.841 99.6848 113.534C99.6848 113.227 99.436 112.978 99.129 112.978C98.8221 112.978 98.5732 113.227 98.5732 113.534C98.5732 113.841 98.8221 114.09 99.129 114.09Z" fill="#FFA0A3"/>
<path opacity="0.4" d="M100.312 113.534C100.619 113.534 100.868 113.285 100.868 112.978C100.868 112.671 100.619 112.422 100.312 112.422C100.005 112.422 99.7563 112.671 99.7563 112.978C99.7563 113.285 100.005 113.534 100.312 113.534Z" fill="#FFA0A3"/>
<path opacity="0.4" d="M102.662 113.756C102.969 113.756 103.218 113.507 103.218 113.2C103.218 112.893 102.969 112.645 102.662 112.645C102.355 112.645 102.106 112.893 102.106 113.2C102.106 113.507 102.355 113.756 102.662 113.756Z" fill="#FFA0A3"/>
<path opacity="0.4" d="M104.052 113.272C104.359 113.272 104.608 113.023 104.608 112.716C104.608 112.409 104.359 112.16 104.052 112.16C103.745 112.16 103.496 112.409 103.496 112.716C103.496 113.023 103.745 113.272 104.052 113.272Z" fill="#FFA0A3"/>
<path opacity="0.4" d="M103.814 114.638C104.121 114.638 104.369 114.389 104.369 114.082C104.369 113.775 104.121 113.526 103.814 113.526C103.507 113.526 103.258 113.775 103.258 114.082C103.258 114.389 103.507 114.638 103.814 114.638Z" fill="#FFA0A3"/>
<path opacity="0.4" d="M105.156 114.09C105.463 114.09 105.712 113.841 105.712 113.534C105.712 113.227 105.463 112.978 105.156 112.978C104.849 112.978 104.6 113.227 104.6 113.534C104.6 113.841 104.849 114.09 105.156 114.09Z" fill="#FFA0A3"/>
<path opacity="0.4" d="M106.426 113.756C106.733 113.756 106.982 113.507 106.982 113.2C106.982 112.893 106.733 112.645 106.426 112.645C106.119 112.645 105.87 112.893 105.87 113.2C105.87 113.507 106.119 113.756 106.426 113.756Z" fill="#FFA0A3"/>
<path opacity="0.4" d="M105.426 112.859C105.733 112.859 105.982 112.61 105.982 112.303C105.982 111.996 105.733 111.747 105.426 111.747C105.119 111.747 104.87 111.996 104.87 112.303C104.87 112.61 105.119 112.859 105.426 112.859Z" fill="#FFA0A3"/>
<path opacity="0.4" d="M104.989 115.4C105.296 115.4 105.545 115.151 105.545 114.844C105.545 114.537 105.296 114.288 104.989 114.288C104.682 114.288 104.433 114.537 104.433 114.844C104.433 115.151 104.682 115.4 104.989 115.4Z" fill="#FFA0A3"/>
<path opacity="0.4" d="M106.267 114.987C106.574 114.987 106.823 114.738 106.823 114.431C106.823 114.124 106.574 113.875 106.267 113.875C105.96 113.875 105.711 114.124 105.711 114.431C105.711 114.738 105.96 114.987 106.267 114.987Z" fill="#FFA0A3"/>
<path opacity="0.4" d="M108.689 115.193C108.996 115.193 109.245 114.945 109.245 114.638C109.245 114.331 108.996 114.082 108.689 114.082C108.382 114.082 108.133 114.331 108.133 114.638C108.133 114.945 108.382 115.193 108.689 115.193Z" fill="#FFA0A3"/>
<path opacity="0.4" d="M109.634 113.693C109.848 113.478 110.198 113.478 110.42 113.693C110.634 113.907 110.634 114.256 110.42 114.479C110.206 114.693 109.856 114.693 109.634 114.479C109.42 114.264 109.42 113.907 109.634 113.693Z" fill="#FFA0A3"/>
<path opacity="0.4" d="M112.27 114.638C112.577 114.638 112.825 114.389 112.825 114.082C112.825 113.775 112.577 113.526 112.27 113.526C111.963 113.526 111.714 113.775 111.714 114.082C111.714 114.389 111.963 114.638 112.27 114.638Z" fill="#FFA0A3"/>
<path opacity="0.4" d="M113.397 113.987C113.704 113.987 113.953 113.738 113.953 113.431C113.953 113.124 113.704 112.875 113.397 112.875C113.09 112.875 112.841 113.124 112.841 113.431C112.841 113.738 113.09 113.987 113.397 113.987Z" fill="#FFA0A3"/>
<path opacity="0.4" d="M112.27 113.272C112.577 113.272 112.825 113.023 112.825 112.716C112.825 112.409 112.577 112.16 112.27 112.16C111.963 112.16 111.714 112.409 111.714 112.716C111.714 113.023 111.963 113.272 112.27 113.272Z" fill="#FFA0A3"/>
<path opacity="0.4" d="M111.087 112.716C111.394 112.716 111.642 112.467 111.642 112.16C111.642 111.853 111.394 111.605 111.087 111.605C110.78 111.605 110.531 111.853 110.531 112.16C110.531 112.467 110.78 112.716 111.087 112.716Z" fill="#FFA0A3"/>
<path opacity="0.4" d="M107.165 112.256C107.379 112.041 107.728 112.041 107.951 112.256C108.165 112.47 108.165 112.819 107.951 113.042C107.736 113.256 107.387 113.256 107.165 113.042C106.95 112.819 106.95 112.47 107.165 112.256Z" fill="#FFA0A3"/>
<path opacity="0.4" d="M107.165 113.574C107.379 113.359 107.728 113.359 107.951 113.574C108.165 113.788 108.165 114.137 107.951 114.36C107.736 114.574 107.387 114.574 107.165 114.36C106.95 114.137 106.95 113.788 107.165 113.574Z" fill="#FFA0A3"/>
<path opacity="0.4" d="M108.816 113.883C109.123 113.883 109.372 113.634 109.372 113.328C109.372 113.021 109.123 112.772 108.816 112.772C108.509 112.772 108.26 113.021 108.26 113.328C108.26 113.634 108.509 113.883 108.816 113.883Z" fill="#FFA0A3"/>
<path opacity="0.4" d="M109.634 112.47C109.848 112.256 110.198 112.256 110.42 112.47C110.634 112.684 110.634 113.034 110.42 113.256C110.206 113.47 109.856 113.47 109.634 113.256C109.42 113.034 109.42 112.684 109.634 112.47Z" fill="#FFA0A3"/>
<path opacity="0.4" d="M111.158 113.987C111.465 113.987 111.714 113.738 111.714 113.431C111.714 113.124 111.465 112.875 111.158 112.875C110.851 112.875 110.603 113.124 110.603 113.431C110.603 113.738 110.851 113.987 111.158 113.987Z" fill="#FFA0A3"/>
<path opacity="0.4" d="M111.158 115.257C111.465 115.257 111.714 115.008 111.714 114.701C111.714 114.394 111.465 114.145 111.158 114.145C110.851 114.145 110.603 114.394 110.603 114.701C110.603 115.008 110.851 115.257 111.158 115.257Z" fill="#FFA0A3"/>
<path opacity="0.4" d="M109.118 111.525C109.396 111.652 109.523 111.978 109.404 112.256C109.277 112.534 108.951 112.661 108.673 112.541C108.395 112.414 108.268 112.089 108.387 111.811C108.507 111.533 108.832 111.406 109.118 111.525Z" fill="#FFA0A3"/>
<path opacity="0.4" d="M102.408 115.066C102.715 115.066 102.964 114.818 102.964 114.511C102.964 114.204 102.715 113.955 102.408 113.955C102.101 113.955 101.853 114.204 101.853 114.511C101.853 114.818 102.101 115.066 102.408 115.066Z" fill="#FFA0A3"/>
<path opacity="0.4" d="M101.138 112.105C101.352 111.89 101.702 111.89 101.924 112.105C102.138 112.319 102.138 112.668 101.924 112.891C101.71 113.105 101.36 113.105 101.138 112.891C100.923 112.676 100.923 112.319 101.138 112.105Z" fill="#FFA0A3"/>
<path opacity="0.4" d="M99.129 112.716C99.436 112.716 99.6848 112.467 99.6848 112.16C99.6848 111.853 99.436 111.605 99.129 111.605C98.8221 111.605 98.5732 111.853 98.5732 112.16C98.5732 112.467 98.8221 112.716 99.129 112.716Z" fill="#FFA0A3"/>
<path opacity="0.4" d="M100.17 114.86C100.477 114.86 100.725 114.611 100.725 114.304C100.725 113.997 100.477 113.748 100.17 113.748C99.8626 113.748 99.6138 113.997 99.6138 114.304C99.6138 114.611 99.8626 114.86 100.17 114.86Z" fill="#FFA0A3"/>
<path opacity="0.4" d="M101.424 114.312C101.731 114.312 101.98 114.063 101.98 113.756C101.98 113.449 101.731 113.2 101.424 113.2C101.117 113.2 100.868 113.449 100.868 113.756C100.868 114.063 101.117 114.312 101.424 114.312Z" fill="#FFA0A3"/>
<path opacity="0.4" d="M103.028 112.446C103.335 112.446 103.584 112.197 103.584 111.89C103.584 111.583 103.335 111.335 103.028 111.335C102.721 111.335 102.472 111.583 102.472 111.89C102.472 112.197 102.721 112.446 103.028 112.446Z" fill="#FFA0A3"/>
<path opacity="0.4" d="M95.318 113.272C95.625 113.272 95.8738 113.023 95.8738 112.716C95.8738 112.409 95.625 112.16 95.318 112.16C95.011 112.16 94.7622 112.409 94.7622 112.716C94.7622 113.023 95.011 113.272 95.318 113.272Z" fill="#FFA0A3"/>
<path opacity="0.4" d="M113.746 114.455C113.746 114.153 113.992 113.899 114.302 113.899C114.612 113.899 114.858 114.145 114.858 114.455C114.858 114.765 114.612 115.011 114.302 115.011C113.992 115.011 113.746 114.765 113.746 114.455Z" fill="#FFA0A3"/>
<path opacity="0.4" d="M113.127 115.567C113.434 115.567 113.683 115.318 113.683 115.011C113.683 114.704 113.434 114.455 113.127 114.455C112.82 114.455 112.571 114.704 112.571 115.011C112.571 115.318 112.82 115.567 113.127 115.567Z" fill="#FFA0A3"/>
<path opacity="0.4" d="M114.866 115.098C114.866 114.796 115.112 114.542 115.422 114.542C115.731 114.542 115.977 114.788 115.977 115.098C115.977 115.408 115.731 115.654 115.422 115.654C115.12 115.654 114.866 115.408 114.866 115.098Z" fill="#FFA0A3"/>
<path opacity="0.4" d="M121.353 114.947C121.353 114.646 121.599 114.391 121.909 114.391C122.218 114.391 122.465 114.638 122.465 114.947C122.465 115.249 122.218 115.503 121.909 115.503C121.599 115.503 121.353 115.257 121.353 114.947Z" fill="#FFA0A3"/>
<path opacity="0.4" d="M117.081 115.011C117.081 114.709 117.327 114.455 117.637 114.455C117.939 114.455 118.193 114.701 118.193 115.011C118.193 115.32 117.947 115.567 117.637 115.567C117.327 115.567 117.081 115.312 117.081 115.011Z" fill="#FFA0A3"/>
<path opacity="0.4" d="M118.899 114.701C118.899 114.399 119.146 114.145 119.455 114.145C119.757 114.145 120.011 114.392 120.011 114.701C120.011 115.011 119.765 115.257 119.455 115.257C119.146 115.249 118.899 115.003 118.899 114.701Z" fill="#FFA0A3"/>
<path opacity="0.4" d="M113.865 112.859C113.865 112.549 114.111 112.303 114.421 112.303C114.723 112.303 114.977 112.549 114.977 112.859C114.977 113.161 114.731 113.415 114.421 113.415C114.119 113.415 113.865 113.161 113.865 112.859Z" fill="#FFA0A3"/>
<path opacity="0.4" d="M112.849 112.192C112.849 111.93 113.064 111.716 113.318 111.716C113.572 111.716 113.794 111.93 113.794 112.192C113.794 112.454 113.58 112.668 113.318 112.668C113.056 112.668 112.849 112.446 112.849 112.192Z" fill="#FFA0A3"/>
<path opacity="0.4" d="M115.422 114.431C115.728 114.431 115.977 114.182 115.977 113.875C115.977 113.568 115.728 113.32 115.422 113.32C115.115 113.32 114.866 113.568 114.866 113.875C114.866 114.182 115.115 114.431 115.422 114.431Z" fill="#FFA0A3"/>
<path opacity="0.4" d="M117.009 113.875C117.316 113.875 117.565 113.627 117.565 113.32C117.565 113.013 117.316 112.764 117.009 112.764C116.702 112.764 116.454 113.013 116.454 113.32C116.454 113.627 116.702 113.875 117.009 113.875Z" fill="#FFA0A3"/>
<path opacity="0.4" d="M115.818 113.145C116.125 113.145 116.374 112.896 116.374 112.589C116.374 112.282 116.125 112.033 115.818 112.033C115.512 112.033 115.263 112.282 115.263 112.589C115.263 112.896 115.512 113.145 115.818 113.145Z" fill="#FFA0A3"/>
<path opacity="0.4" d="M118.383 114.519C118.69 114.519 118.939 114.27 118.939 113.963C118.939 113.656 118.69 113.407 118.383 113.407C118.076 113.407 117.828 113.656 117.828 113.963C117.828 114.27 118.076 114.519 118.383 114.519Z" fill="#FFA0A3"/>
<path opacity="0.4" d="M116.557 115.011C116.864 115.011 117.113 114.762 117.113 114.455C117.113 114.148 116.864 113.899 116.557 113.899C116.25 113.899 116.001 114.148 116.001 114.455C116.001 114.762 116.25 115.011 116.557 115.011Z" fill="#FFA0A3"/>
<path opacity="0.4" d="M119.304 113.042C119.519 112.827 119.868 112.827 120.09 113.042C120.305 113.256 120.305 113.605 120.09 113.828C119.876 114.042 119.527 114.042 119.304 113.828C119.09 113.605 119.09 113.256 119.304 113.042Z" fill="#FFA0A3"/>
<path opacity="0.4" d="M119.534 112.764C119.841 112.764 120.09 112.515 120.09 112.208C120.09 111.901 119.841 111.652 119.534 111.652C119.227 111.652 118.979 111.901 118.979 112.208C118.979 112.515 119.227 112.764 119.534 112.764Z" fill="#FFA0A3"/>
<path opacity="0.4" d="M120.877 113.415C121.184 113.415 121.432 113.166 121.432 112.859C121.432 112.552 121.184 112.303 120.877 112.303C120.57 112.303 120.321 112.552 120.321 112.859C120.321 113.166 120.57 113.415 120.877 113.415Z" fill="#FFA0A3"/>
<path opacity="0.4" d="M120.821 114.709C121.128 114.709 121.377 114.46 121.377 114.153C121.377 113.846 121.128 113.598 120.821 113.598C120.514 113.598 120.265 113.846 120.265 114.153C120.265 114.46 120.514 114.709 120.821 114.709Z" fill="#FFA0A3"/>
<path opacity="0.4" d="M122.115 114.09C122.422 114.09 122.671 113.841 122.671 113.534C122.671 113.227 122.422 112.978 122.115 112.978C121.808 112.978 121.559 113.227 121.559 113.534C121.559 113.841 121.808 114.09 122.115 114.09Z" fill="#FFA0A3"/>
<path opacity="0.4" d="M123.29 113.534C123.597 113.534 123.846 113.285 123.846 112.978C123.846 112.671 123.597 112.422 123.29 112.422C122.983 112.422 122.734 112.671 122.734 112.978C122.734 113.285 122.983 113.534 123.29 113.534Z" fill="#FFA0A3"/>
<path opacity="0.4" d="M125.648 113.756C125.955 113.756 126.204 113.507 126.204 113.2C126.204 112.893 125.955 112.645 125.648 112.645C125.341 112.645 125.092 112.893 125.092 113.2C125.092 113.507 125.341 113.756 125.648 113.756Z" fill="#FFA0A3"/>
<path opacity="0.4" d="M127.03 113.272C127.337 113.272 127.586 113.023 127.586 112.716C127.586 112.409 127.337 112.16 127.03 112.16C126.723 112.16 126.474 112.409 126.474 112.716C126.474 113.023 126.723 113.272 127.03 113.272Z" fill="#FFA0A3"/>
<path opacity="0.4" d="M126.792 114.638C127.099 114.638 127.347 114.389 127.347 114.082C127.347 113.775 127.099 113.526 126.792 113.526C126.485 113.526 126.236 113.775 126.236 114.082C126.236 114.389 126.485 114.638 126.792 114.638Z" fill="#FFA0A3"/>
<path opacity="0.4" d="M128.133 114.09C128.44 114.09 128.689 113.841 128.689 113.534C128.689 113.227 128.44 112.978 128.133 112.978C127.826 112.978 127.578 113.227 127.578 113.534C127.578 113.841 127.826 114.09 128.133 114.09Z" fill="#FFA0A3"/>
<path opacity="0.4" d="M129.404 113.756C129.711 113.756 129.96 113.507 129.96 113.2C129.96 112.893 129.711 112.645 129.404 112.645C129.097 112.645 128.848 112.893 128.848 113.2C128.848 113.507 129.097 113.756 129.404 113.756Z" fill="#FFA0A3"/>
<path opacity="0.4" d="M128.403 112.859C128.71 112.859 128.959 112.61 128.959 112.303C128.959 111.996 128.71 111.747 128.403 111.747C128.096 111.747 127.848 111.996 127.848 112.303C127.848 112.61 128.096 112.859 128.403 112.859Z" fill="#FFA0A3"/>
<path opacity="0.4" d="M127.578 114.455C127.792 114.241 128.142 114.241 128.364 114.455C128.578 114.669 128.578 115.019 128.364 115.241C128.149 115.455 127.8 115.455 127.578 115.241C127.363 115.027 127.363 114.669 127.578 114.455Z" fill="#FFA0A3"/>
<path opacity="0.4" d="M129.245 114.987C129.552 114.987 129.801 114.738 129.801 114.431C129.801 114.124 129.552 113.875 129.245 113.875C128.938 113.875 128.689 114.124 128.689 114.431C128.689 114.738 128.938 114.987 129.245 114.987Z" fill="#FFA0A3"/>
<path opacity="0.4" d="M131.667 115.193C131.974 115.193 132.222 114.945 132.222 114.638C132.222 114.331 131.974 114.082 131.667 114.082C131.36 114.082 131.111 114.331 131.111 114.638C131.111 114.945 131.36 115.193 131.667 115.193Z" fill="#FFA0A3"/>
<path opacity="0.4" d="M132.611 113.693C132.826 113.478 133.175 113.478 133.398 113.693C133.62 113.907 133.612 114.256 133.398 114.479C133.183 114.693 132.834 114.693 132.611 114.479C132.397 114.264 132.397 113.907 132.611 113.693Z" fill="#FFA0A3"/>
<path opacity="0.4" d="M135.248 114.638C135.555 114.638 135.803 114.389 135.803 114.082C135.803 113.775 135.555 113.526 135.248 113.526C134.941 113.526 134.692 113.775 134.692 114.082C134.692 114.389 134.941 114.638 135.248 114.638Z" fill="#FFA0A3"/>
<path opacity="0.4" d="M136.383 113.987C136.69 113.987 136.939 113.738 136.939 113.431C136.939 113.124 136.69 112.875 136.383 112.875C136.076 112.875 135.827 113.124 135.827 113.431C135.827 113.738 136.076 113.987 136.383 113.987Z" fill="#FFA0A3"/>
<path opacity="0.4" d="M135.248 113.272C135.555 113.272 135.803 113.023 135.803 112.716C135.803 112.409 135.555 112.16 135.248 112.16C134.941 112.16 134.692 112.409 134.692 112.716C134.692 113.023 134.941 113.272 135.248 113.272Z" fill="#FFA0A3"/>
<path opacity="0.4" d="M134.065 112.716C134.372 112.716 134.62 112.467 134.62 112.16C134.62 111.853 134.372 111.605 134.065 111.605C133.758 111.605 133.509 111.853 133.509 112.16C133.509 112.467 133.758 112.716 134.065 112.716Z" fill="#FFA0A3"/>
<path opacity="0.4" d="M130.539 113.2C130.846 113.2 131.095 112.952 131.095 112.645C131.095 112.338 130.846 112.089 130.539 112.089C130.232 112.089 129.983 112.338 129.983 112.645C129.983 112.952 130.232 113.2 130.539 113.2Z" fill="#FFA0A3"/>
<path opacity="0.4" d="M130.539 114.519C130.846 114.519 131.095 114.27 131.095 113.963C131.095 113.656 130.846 113.407 130.539 113.407C130.232 113.407 129.983 113.656 129.983 113.963C129.983 114.27 130.232 114.519 130.539 114.519Z" fill="#FFA0A3"/>
<path opacity="0.4" d="M131.794 113.883C132.101 113.883 132.349 113.634 132.349 113.328C132.349 113.021 132.101 112.772 131.794 112.772C131.487 112.772 131.238 113.021 131.238 113.328C131.238 113.634 131.487 113.883 131.794 113.883Z" fill="#FFA0A3"/>
<path opacity="0.4" d="M132.611 112.47C132.826 112.256 133.175 112.256 133.398 112.47C133.612 112.684 133.612 113.034 133.398 113.256C133.183 113.47 132.834 113.47 132.611 113.256C132.397 113.034 132.397 112.684 132.611 112.47Z" fill="#FFA0A3"/>
<path opacity="0.4" d="M133.747 113.042C133.962 112.827 134.311 112.827 134.533 113.042C134.748 113.256 134.748 113.605 134.533 113.828C134.319 114.042 133.97 114.042 133.747 113.828C133.533 113.605 133.533 113.256 133.747 113.042Z" fill="#FFA0A3"/>
<path opacity="0.4" d="M133.747 114.304C133.962 114.09 134.311 114.09 134.533 114.304C134.748 114.518 134.748 114.868 134.533 115.09C134.319 115.305 133.97 115.305 133.747 115.09C133.533 114.876 133.533 114.526 133.747 114.304Z" fill="#FFA0A3"/>
<path opacity="0.4" d="M132.095 111.525C132.373 111.652 132.5 111.978 132.381 112.256C132.254 112.534 131.929 112.661 131.651 112.541C131.373 112.414 131.246 112.089 131.365 111.811C131.492 111.533 131.818 111.406 132.095 111.525Z" fill="#FFA0A3"/>
<path opacity="0.4" d="M125.386 115.066C125.693 115.066 125.942 114.818 125.942 114.511C125.942 114.204 125.693 113.955 125.386 113.955C125.079 113.955 124.831 114.204 124.831 114.511C124.831 114.818 125.079 115.066 125.386 115.066Z" fill="#FFA0A3"/>
<path opacity="0.4" d="M124.505 113.05C124.812 113.05 125.061 112.801 125.061 112.494C125.061 112.187 124.812 111.938 124.505 111.938C124.198 111.938 123.949 112.187 123.949 112.494C123.949 112.801 124.198 113.05 124.505 113.05Z" fill="#FFA0A3"/>
<path opacity="0.4" d="M122.115 112.716C122.422 112.716 122.671 112.467 122.671 112.16C122.671 111.853 122.422 111.605 122.115 111.605C121.808 111.605 121.559 111.853 121.559 112.16C121.559 112.467 121.808 112.716 122.115 112.716Z" fill="#FFA0A3"/>
<path opacity="0.4" d="M123.147 114.86C123.454 114.86 123.703 114.611 123.703 114.304C123.703 113.997 123.454 113.748 123.147 113.748C122.84 113.748 122.591 113.997 122.591 114.304C122.591 114.611 122.84 114.86 123.147 114.86Z" fill="#FFA0A3"/>
<path opacity="0.4" d="M124.401 114.312C124.708 114.312 124.957 114.063 124.957 113.756C124.957 113.449 124.708 113.2 124.401 113.2C124.095 113.2 123.846 113.449 123.846 113.756C123.846 114.063 124.095 114.312 124.401 114.312Z" fill="#FFA0A3"/>
<path opacity="0.4" d="M126.013 112.446C126.32 112.446 126.569 112.197 126.569 111.89C126.569 111.583 126.32 111.335 126.013 111.335C125.706 111.335 125.458 111.583 125.458 111.89C125.458 112.197 125.706 112.446 126.013 112.446Z" fill="#FFA0A3"/>
<path opacity="0.4" d="M118.296 113.272C118.603 113.272 118.852 113.023 118.852 112.716C118.852 112.409 118.603 112.16 118.296 112.16C117.989 112.16 117.74 112.409 117.74 112.716C117.74 113.023 117.989 113.272 118.296 113.272Z" fill="#FFA0A3"/>
<path d="M137.36 93.7079V94.0413C135.311 93.7873 134.152 95.2879 133.311 96.3995C132.969 96.8441 132.699 97.2014 132.429 97.3523C131.508 97.8684 129.936 97.7414 129.055 96.7171C128.705 96.3122 128.531 95.8199 128.372 95.3911C128.15 94.7718 127.951 94.2319 127.332 94.0652C126.99 93.9699 126.784 94.3828 126.443 95.1212C125.974 96.1375 125.323 97.527 123.648 97.6461C123.552 97.654 123.457 97.654 123.362 97.654C120.98 97.654 119.416 95.5182 118.368 94.081C118.256 93.9302 118.153 93.7952 118.058 93.6602C117.955 93.5173 117.844 93.4458 117.732 93.4458C117.375 93.43 116.859 94.0175 116.319 94.6368C115.477 95.5976 114.429 96.7886 113.072 96.9712C111.261 97.2094 110.42 96.1454 109.673 95.2006C109.308 94.7401 108.959 94.3034 108.538 94.0572C108.014 93.7634 107.268 94.3986 106.402 95.145C105.306 96.0898 104.06 97.1617 102.623 96.9474C100.947 96.7012 100.709 95.6928 100.511 94.883C100.392 94.3986 100.304 94.0096 99.9549 93.8508C99.2403 93.5173 98.9148 93.9381 98.4066 94.7162C98.2875 94.8909 98.1684 95.0815 98.0334 95.2562C97.3109 96.2089 95.9611 96.7092 93.5156 96.9235C91.4274 97.1062 89.3551 96.3995 88.6802 96.1375V95.7881C89.1566 95.9787 91.348 96.7886 93.4838 96.598C95.8341 96.3916 97.1124 95.931 97.7714 95.0577C97.8984 94.8909 98.0176 94.7083 98.1287 94.5336C98.5972 93.819 99.0815 93.0806 100.09 93.5491C100.582 93.7793 100.701 94.2795 100.828 94.8036C101.019 95.5896 101.209 96.4074 102.67 96.6218C103.965 96.8124 105.148 95.7881 106.188 94.8909C107.148 94.0652 107.974 93.3585 108.697 93.7714C109.181 94.0413 109.546 94.5098 109.927 94.9941C110.65 95.9152 111.396 96.86 113.024 96.6456C114.263 96.4789 115.263 95.3435 116.073 94.4225C116.724 93.684 117.232 93.1044 117.748 93.1203C117.963 93.1283 118.161 93.2473 118.328 93.4697C118.423 93.6046 118.534 93.7396 118.638 93.8905C119.686 95.3197 121.266 97.4873 123.632 97.3205C125.117 97.2173 125.688 95.9787 126.157 94.9783C126.506 94.224 126.808 93.5729 127.435 93.7476C128.221 93.9699 128.459 94.6368 128.697 95.28C128.848 95.7008 129.007 96.1454 129.317 96.5027C130.087 97.3999 131.476 97.519 132.278 97.0665C132.493 96.9474 132.755 96.6059 133.057 96.201C133.882 95.0974 135.145 93.4538 137.36 93.7079Z" fill="#7E9BEA"/>
<path d="M137.36 95.153V95.4865C135.875 95.2403 135.264 96.074 134.557 97.0268C134.009 97.7732 133.398 98.6148 132.286 98.9403C131.969 99.0356 131.667 99.0753 131.389 99.0753C129.476 99.0753 128.451 97.1221 128.039 96.3281C128.015 96.2804 127.991 96.2408 127.975 96.2011C127.792 95.8596 127.673 95.8041 127.626 95.8041C127.427 95.8041 127.102 96.3519 126.983 96.5583C126.427 97.4953 125.403 98.583 122.393 98.6545C120.273 98.7021 119.098 97.1697 118.32 96.1534C117.987 95.7167 117.693 95.3435 117.463 95.2641C117.24 95.1847 116.978 95.4309 116.55 95.8596C115.827 96.5901 114.731 97.6858 112.564 97.8764C109.84 98.1146 109.181 96.6219 108.792 95.7326C108.681 95.4865 108.586 95.2721 108.49 95.1768C108.173 94.883 107.871 95.0815 107.006 95.7961C106.839 95.939 106.64 96.0899 106.434 96.2566C105.41 97.0586 104.179 97.789 102.154 97.7255C100.535 97.6779 100.161 96.4313 99.9233 95.5976C99.8677 95.4071 99.8121 95.2244 99.7486 95.0895C99.6851 94.9386 99.6057 94.8592 99.5263 94.8592C99.3833 94.8513 99.0975 95.0418 98.7164 95.6294C98.0574 96.6457 96.3979 97.3285 93.7777 97.6461C91.1734 97.9717 89.379 97.2491 88.6724 96.8839V96.5107C89.4584 96.9633 91.3322 97.6144 93.7301 97.3126C96.8743 96.9236 98.0256 96.082 98.4385 95.4388C98.8514 94.8036 99.2166 94.5019 99.5421 94.5257C99.7486 94.5416 99.9153 94.6845 100.042 94.9545C100.114 95.1053 100.169 95.3038 100.233 95.5023C100.479 96.3281 100.781 97.3523 102.162 97.392C103.973 97.4476 105.1 96.8759 106.228 95.9946C106.434 95.8358 106.625 95.677 106.791 95.542C107.585 94.891 108.157 94.4225 108.705 94.9386C108.856 95.0815 108.959 95.3118 109.086 95.6056C110.031 97.7732 111.531 97.6382 112.524 97.5508C114.565 97.3682 115.613 96.3201 116.303 95.6294C116.764 95.1689 117.121 94.8116 117.558 94.9545C117.883 95.0656 118.185 95.4626 118.566 95.9549C119.344 96.9712 120.416 98.3687 122.369 98.329C125.577 98.2575 126.355 96.9553 126.681 96.3996C127.03 95.812 127.3 95.4706 127.618 95.4785C127.92 95.4865 128.126 95.8041 128.253 96.0502C128.277 96.0899 128.293 96.1296 128.317 96.1772C128.809 97.1062 129.952 99.2897 132.191 98.6307C133.2 98.3369 133.755 97.5747 134.287 96.8362C134.986 95.8834 135.709 94.8989 137.36 95.153Z" fill="#FF7A7E"/>
<path d="M115.962 107.992C115.962 107.952 115.755 103.958 115.072 102.529L115.295 102.426C116.001 103.895 116.2 107.817 116.208 107.984L115.962 107.992Z" fill="#FF7A7E"/>
<path d="M115.851 105.165L115.763 104.935C116.7 104.57 117.867 103.014 117.883 102.998L118.082 103.141C118.026 103.212 116.851 104.784 115.851 105.165Z" fill="#FF7A7E"/>
<path d="M118.637 103.823H117.24V104.069H118.637V103.823Z" fill="#FF7A7E"/>
<path d="M115.525 103.72C113.786 103.371 113.095 101.886 113.063 101.823L113.286 101.719C113.294 101.735 113.961 103.156 115.572 103.482L115.525 103.72Z" fill="#FF7A7E"/>
<path d="M114.159 102.887L113.921 102.839C114.127 101.767 114.064 101.029 114.064 101.021L114.31 100.997C114.302 101.029 114.373 101.775 114.159 102.887Z" fill="#FF7A7E"/>
<path d="M115.914 106.364C115.12 106.086 112.794 104.236 112.698 104.157L112.849 103.966C112.873 103.982 115.247 105.872 115.993 106.134L115.914 106.364Z" fill="#FF7A7E"/>
<path d="M113.715 104.903C113.603 104.3 113.063 103.188 113.063 103.18L113.286 103.077C113.31 103.125 113.842 104.228 113.961 104.864L113.715 104.903Z" fill="#FF7A7E"/>
<path d="M113.683 104.252L113.548 104.046C113.897 103.808 113.992 103.411 113.992 103.403L114.231 103.458C114.231 103.482 114.12 103.966 113.683 104.252Z" fill="#FF7A7E"/>
<path d="M115.462 103.069L115.295 102.895C115.692 102.505 115.684 102.005 115.684 101.997L115.93 101.989C115.93 102.021 115.938 102.609 115.462 103.069Z" fill="#FF7A7E"/>
<path d="M115.628 102.569C115.057 102.053 115.057 101.052 115.057 101.013H115.303C115.303 101.021 115.303 101.942 115.787 102.386L115.628 102.569Z" fill="#FF7A7E"/>
<path d="M117.446 103.665C117.224 103.299 117.319 102.466 117.327 102.37L117.573 102.402C117.55 102.632 117.51 103.291 117.661 103.538L117.446 103.665Z" fill="#FF7A7E"/>
<path d="M116.438 104.681C116.16 104.324 116.097 103.482 116.097 103.442L116.343 103.426C116.359 103.649 116.438 104.284 116.637 104.53L116.438 104.681Z" fill="#FF7A7E"/>
<path d="M118.201 104.006L117.994 103.879C118.216 103.522 118.55 103.26 118.558 103.252L118.709 103.442C118.709 103.442 118.399 103.688 118.201 104.006Z" fill="#FF7A7E"/>
<path d="M114.556 106.023C113.627 106.023 112.762 105.626 112.722 105.61L112.825 105.388C112.841 105.396 114.112 105.975 115.16 105.713L115.223 105.951C114.993 106.007 114.771 106.023 114.556 106.023Z" fill="#FF7A7E"/>
<path d="M128.515 108.992L128.277 108.945C128.285 108.905 129.087 104.983 128.785 103.434L129.023 103.387C129.341 104.991 128.555 108.834 128.515 108.992Z" fill="#FF7A7E"/>
<path d="M128.872 106.182L128.84 105.935C129.833 105.816 131.365 104.602 131.381 104.586L131.532 104.776C131.468 104.832 129.936 106.055 128.872 106.182Z" fill="#FF7A7E"/>
<path d="M130.566 105.23L130.504 105.468L131.857 105.818L131.919 105.58L130.566 105.23Z" fill="#FF7A7E"/>
<path d="M128.92 104.697C127.324 103.927 127.03 102.307 127.014 102.243L127.252 102.204L127.133 102.228L127.252 102.204C127.252 102.22 127.546 103.768 129.023 104.483L128.92 104.697Z" fill="#FF7A7E"/>
<path d="M127.808 103.546L127.586 103.442C128.054 102.45 128.173 101.727 128.173 101.719L128.412 101.759C128.412 101.791 128.293 102.529 127.808 103.546Z" fill="#FF7A7E"/>
<path d="M128.634 107.357C127.935 106.888 126.149 104.514 126.069 104.419L126.268 104.276C126.284 104.3 128.11 106.721 128.769 107.158L128.634 107.357Z" fill="#FF7A7E"/>
<path d="M127.117 105.411L126.871 105.396C126.919 104.776 126.673 103.569 126.673 103.561L126.911 103.514C126.927 103.561 127.165 104.768 127.117 105.411Z" fill="#FF7A7E"/>
<path d="M127.006 104.752L126.927 104.522C127.324 104.387 127.522 104.014 127.522 104.014L127.737 104.125C127.729 104.141 127.498 104.586 127.006 104.752Z" fill="#FF7A7E"/>
<path d="M129.023 104.054L128.904 103.839C129.388 103.561 129.507 103.077 129.507 103.069L129.745 103.125C129.738 103.157 129.603 103.728 129.023 104.054Z" fill="#FF7A7E"/>
<path d="M129.309 103.609C128.88 102.966 129.134 101.997 129.15 101.958L129.388 102.021C129.388 102.029 129.15 102.918 129.515 103.474L129.309 103.609Z" fill="#FF7A7E"/>
<path d="M130.793 105.126C130.674 104.721 130.968 103.935 131 103.847L131.23 103.935C131.143 104.149 130.944 104.776 131.032 105.062L130.793 105.126Z" fill="#FF7A7E"/>
<path d="M129.563 105.856C129.38 105.443 129.531 104.61 129.539 104.57L129.777 104.617C129.738 104.84 129.658 105.467 129.785 105.761L129.563 105.856Z" fill="#FF7A7E"/>
<path d="M131.437 105.65L131.27 105.475C131.58 105.189 131.961 105.015 131.977 105.007L132.072 105.229C132.072 105.229 131.715 105.388 131.437 105.65Z" fill="#FF7A7E"/>
<path d="M128.062 106.777C126.895 106.769 125.776 105.864 125.728 105.824L125.887 105.634C125.895 105.642 126.983 106.523 128.062 106.531V106.777Z" fill="#FF7A7E"/>
<path d="M137.368 85.236L137.36 85.2916L137.352 85.3472C137.281 85.3313 129.801 83.9021 119.86 85.1249C117.288 85.4424 114.985 85.5616 112.937 85.5616C109.006 85.5616 106.005 85.1249 103.758 84.7993C102.813 84.6643 102.003 84.5452 101.273 84.4738C98.1446 84.18 90.0617 84.9264 88.6802 85.101V84.9899C89.4345 84.8946 91.745 84.6882 93.5791 84.5532C96.0881 84.3706 99.4626 84.1959 101.281 84.3626C102.011 84.4341 102.829 84.5532 103.774 84.6882C107.188 85.1884 112.357 85.9427 119.852 85.0137C129.65 83.8068 137.05 85.1725 137.368 85.236C137.368 85.236 137.36 85.236 137.368 85.236Z" fill="#FF9D5D"/>
<path d="M137.36 85.8316L137.344 85.9427C137.265 85.9348 129.269 85.0773 119.844 85.7204C116.787 85.9269 114.136 86.0063 111.833 86.0063C106.553 86.0063 103.178 85.5854 101.249 85.3472C97.7872 84.9185 90.014 85.5457 88.6562 85.6887V85.5854C89.3867 85.506 91.5702 85.3314 93.452 85.2361C95.9292 85.1011 99.2958 84.9979 101.265 85.244C104.028 85.5854 109.769 86.308 119.836 85.6172C129.166 84.9661 137.09 85.7998 137.36 85.8316Z" fill="#FF9D5D"/>
<path d="M137.368 86.7764L137.352 86.8876C137.272 86.8717 129.047 85.514 119.852 86.6653C117.272 86.9908 114.961 87.1099 112.905 87.1099C108.998 87.1099 106.005 86.6653 103.758 86.3397C102.813 86.1968 101.987 86.0777 101.257 86.0142C98.1285 85.7204 90.0456 86.4668 88.6641 86.6414V86.5223C89.4184 86.4271 91.7289 86.2206 93.563 86.0857C96.072 85.903 99.4465 85.7284 101.265 85.8951C102.003 85.9666 102.821 86.0857 103.774 86.2286C107.188 86.7288 112.357 87.491 119.836 86.5541C128.912 85.4187 137.042 86.7208 137.352 86.7764C137.36 86.7685 137.368 86.7764 137.368 86.7764Z" fill="#FF9D5D"/>
<path d="M88.6641 87.3242C90.0059 87.1098 97.6521 86.1173 100.757 86.4111C101.471 86.4746 102.289 86.5858 103.234 86.7049C106.831 87.1733 112.262 87.88 119.852 87.3639C129.277 86.7208 137.272 87.5783 137.352 87.5862L137.36 87.5306L137.368 87.4751C137.368 87.4751 137.368 87.4751 137.36 87.4751C137.098 87.4433 129.174 86.6175 119.844 87.2527C112.262 87.7688 106.839 87.0622 103.25 86.5937C102.305 86.4667 101.487 86.3635 100.772 86.2999C98.9542 86.1253 95.7147 86.3873 93.3248 86.6414C91.4272 86.8399 89.3787 87.1019 88.672 87.221V87.3242H88.6641Z" fill="#FF9D5D"/>
<path d="M122.449 105.999C121.631 105.999 120.9 105.57 120.956 105.03C122.933 87.7212 117.065 76.7244 117.065 76.7244C117.597 77.0658 123.933 86.4349 123.933 105.014C123.933 105.554 123.282 105.999 122.457 105.999C122.457 105.999 122.457 105.999 122.449 105.999Z" fill="#0B3563"/>
<path d="M122.409 99.3531C122.409 99.3531 122.092 102.616 121.885 103.593C121.679 104.57 121.718 105.324 122.631 105.221C123.973 105.07 122.409 99.3531 122.409 99.3531Z" fill="#FFCCA9"/>
<path d="M108.045 105.999C107.228 105.999 106.497 105.57 106.553 105.03C108.53 87.7212 102.662 76.7244 102.662 76.7244C103.194 77.0658 109.53 86.4349 109.53 105.014C109.53 105.554 108.879 105.999 108.053 105.999C108.053 105.999 108.053 105.999 108.045 105.999Z" fill="#0B3563"/>
<path d="M108.006 99.3531C108.006 99.3531 107.688 102.616 107.482 103.593C107.275 104.57 107.315 105.324 108.228 105.221C109.57 105.07 108.006 99.3531 108.006 99.3531Z" fill="#FFCCA9"/>
<path d="M81.6375 59.9632C81.6375 59.9632 80.0495 54.2226 86.7031 52.5393C93.3568 50.856 96.7948 56.287 97.2156 59.9632C97.6364 63.6393 94.6193 70.301 88.0926 69.5387C81.5581 68.7844 81.6375 59.9632 81.6375 59.9632Z" fill="#052D52"/>
<path d="M94.1747 56.5172C93.4204 55.2627 93.865 53.4921 91.5783 52.1344C90.173 51.3007 88.8787 51.0625 87.2193 51.1975C85.8219 51.3086 84.8214 51.8644 83.9401 53.0395C83.2731 53.9288 82.7174 55.2706 82.7094 55.2786L82.0742 54.8181C82.0822 54.7784 82.3442 53.8812 83.0588 52.9363C84.0036 51.6739 85.2899 50.9434 86.7905 50.8243C88.5135 50.6893 90.2285 51.0148 91.753 51.785C93.2219 52.5234 94.8496 54.5084 95.6436 55.8264L94.1747 56.5172Z" fill="#052D52"/>
<path d="M95.604 100.719C90.9353 99.258 80.0734 98.3449 79.0015 98.2814C74.6902 98.0273 69.6086 99.0516 65.5116 100.751C65.3131 100.838 55.9836 102.942 51.3229 108.286C50.1319 109.651 48.3931 113.463 48.3931 119.402C48.3931 119.402 109.912 119.346 111.007 119.298C107.569 108.834 105.481 103.816 95.604 100.719Z" fill="#FF64AE"/>
<path d="M59.1834 65.2432C59.4137 64.9653 59.8663 64.9892 60.2315 64.8701C60.2315 64.8701 60.0727 64.1237 60.1203 62.9883C60.1203 62.9486 60.1203 62.9089 60.1283 62.8771C60.2315 60.8922 60.962 57.8273 64.1618 55.5406C65.5672 54.5323 67.4569 53.6747 69.9738 53.1348C77.2309 51.5627 85.1868 55.7868 87.9181 58.2799C93.1108 63.028 92.563 68.4907 90.6812 75.3508C86.2586 91.3895 77.6438 87.3719 77.6597 87.3957C68.3858 89.9682 54.8403 70.4677 59.1834 65.2432Z" fill="#0B3563"/>
<path d="M58.5641 62.8692C58.31 61.448 57.9368 58.3196 60.1203 56.0964C62.0021 54.1829 65.1542 53.0872 69.4815 52.849C76.3654 52.4679 81.5423 54.2782 84.2974 55.89C87.6798 57.875 89.2917 60.3443 89.3631 60.3999L87.6719 59.8044C87.6084 59.7488 82.4792 52.4997 69.5053 53.2143C65.3051 53.4445 62.804 54.3417 61.0016 56.1759C58.9214 58.2879 59.3025 60.4714 59.5486 61.8291C59.5645 61.9005 58.7467 62.504 58.7467 62.5199L60.5332 63.036C60.5332 63.028 58.572 62.901 58.5641 62.8692Z" fill="#0B3563"/>
<path d="M72.6893 106.142C66.2183 106.245 65.8689 103.966 65.5831 101.529C65.464 100.52 65.3846 98.7737 65.3052 96.6855C65.2734 95.8121 65.2337 94.8752 65.194 93.9065C65.1226 92.0406 64.9717 90.1191 64.8447 88.6185C64.7017 86.9828 64.5747 85.8554 64.5747 85.8554L77.6677 82.7429L78.4458 82.5603C78.7951 92.8108 81.8758 97.3842 82.2093 99.123C82.916 102.775 76.9372 106.078 72.6893 106.142Z" fill="#FFE1CC"/>
<path d="M77.6593 87.3958C76.2063 91.1672 72.6016 96.1615 65.3048 96.6855C65.273 95.8121 65.2333 94.8752 65.1936 93.9065C65.1221 92.0406 64.9713 90.1192 64.8442 88.6185L77.6593 87.3958Z" fill="#FFCCA9"/>
<path d="M57.365 89.873C57.365 89.873 73.1814 97.3127 77.6595 87.3878C82.1377 77.4628 87.1954 71.7461 77.2864 66.5772C67.3773 61.4083 63.6932 64.3063 61.3906 67.2521C59.0959 70.1978 53.3633 87.6895 57.365 89.873Z" fill="#FFE1CC"/>
<path d="M76.6276 75.1602C76.2068 70.8726 72.9117 67.4346 68.64 66.8629C66.4645 66.5691 63.8919 66.3389 61.3908 66.3865C57.1747 66.458 56.738 57.7241 66.1389 54.7783C75.6589 51.785 84.2579 57.1841 87.9817 59.8837C94.1352 64.346 83.9403 85.1963 83.2971 85.2995C82.654 85.4027 78.8031 87.0621 78.8031 87.0621C78.8031 87.0621 78.2235 83.4733 78.8746 83.0366C81.8282 81.0357 82.8446 75.3666 78.152 77.5501C77.1516 78.0027 76.7705 76.6449 76.6276 75.1602Z" fill="#0B3563"/>
<path d="M57.8096 85.8315C57.8096 85.5853 58.0081 85.3868 58.2542 85.3868C58.5003 85.3868 58.6988 85.5853 58.6988 85.8315C58.6988 86.0776 58.5003 86.2761 58.2542 86.2761C58.0081 86.2761 57.8096 86.0776 57.8096 85.8315Z" fill="#FF8463"/>
<path d="M59.2944 84.6246C59.2944 84.3784 59.4929 84.1799 59.7391 84.1799C59.9852 84.1799 60.1837 84.3784 60.1837 84.6246C60.1837 84.8707 59.9852 85.0692 59.7391 85.0692C59.4929 85.0692 59.2944 84.8707 59.2944 84.6246Z" fill="#FF8463"/>
<path d="M60.7554 85.1169C60.7554 84.8707 60.9539 84.6722 61.2 84.6722C61.4461 84.6722 61.6446 84.8707 61.6446 85.1169C61.6446 85.363 61.4461 85.5615 61.2 85.5615C60.9539 85.5615 60.7554 85.363 60.7554 85.1169Z" fill="#FF8463"/>
<path d="M59.4058 86.1728C59.4058 85.9267 59.6043 85.7281 59.8504 85.7281C60.0965 85.7281 60.295 85.9267 60.295 86.1728C60.295 86.4189 60.0965 86.6174 59.8504 86.6174C59.6043 86.6095 59.4058 86.4189 59.4058 86.1728Z" fill="#FF8463"/>
<path d="M59.6199 87.8323C59.8655 87.8323 60.0646 87.6332 60.0646 87.3876C60.0646 87.1421 59.8655 86.943 59.6199 86.943C59.3744 86.943 59.1753 87.1421 59.1753 87.3876C59.1753 87.6332 59.3744 87.8323 59.6199 87.8323Z" fill="#FF8463"/>
<path d="M61.438 87.0541C61.438 86.808 61.6365 86.6095 61.8826 86.6095C62.1288 86.6095 62.3273 86.808 62.3273 87.0541C62.3273 87.3003 62.1288 87.4988 61.8826 87.4988C61.6365 87.4988 61.438 87.3003 61.438 87.0541Z" fill="#FF8463"/>
<path d="M70.1245 80.472C70.1245 80.2258 70.323 80.0273 70.5691 80.0273C70.8153 80.0273 71.0138 80.2258 71.0138 80.472C71.0138 80.7181 70.8153 80.9166 70.5691 80.9166C70.323 80.9087 70.1245 80.7102 70.1245 80.472Z" fill="#FF8463"/>
<path d="M71.6094 79.2571C71.6094 79.011 71.8079 78.8125 72.054 78.8125C72.3001 78.8125 72.4986 79.011 72.4986 79.2571C72.4986 79.5033 72.3001 79.7018 72.054 79.7018C71.8079 79.7018 71.6094 79.5033 71.6094 79.2571Z" fill="#FF8463"/>
<path d="M73.0703 79.7494C73.0703 79.5033 73.2688 79.3048 73.515 79.3048C73.7611 79.3048 73.9596 79.5033 73.9596 79.7494C73.9596 79.9956 73.7611 80.1941 73.515 80.1941C73.2688 80.1941 73.0703 79.9956 73.0703 79.7494Z" fill="#FF8463"/>
<path d="M71.7285 80.8055C71.7285 80.5593 71.927 80.3608 72.1732 80.3608C72.4193 80.3608 72.6178 80.5593 72.6178 80.8055C72.6178 81.0516 72.4193 81.2501 72.1732 81.2501C71.927 81.2501 71.7285 81.0516 71.7285 80.8055Z" fill="#FF8463"/>
<path d="M71.498 82.0203C71.498 81.7742 71.6965 81.5757 71.9427 81.5757C72.1888 81.5757 72.3873 81.7742 72.3873 82.0203C72.3873 82.2665 72.1888 82.465 71.9427 82.465C71.6965 82.465 71.498 82.2665 71.498 82.0203Z" fill="#FF8463"/>
<path d="M73.7607 81.6868C73.7607 81.4407 73.9592 81.2422 74.2054 81.2422C74.4515 81.2422 74.65 81.4407 74.65 81.6868C74.65 81.933 74.4515 82.1315 74.2054 82.1315C73.9592 82.1315 73.7607 81.933 73.7607 81.6868Z" fill="#FF8463"/>
<path d="M48.1147 81.5359C48.1147 81.5359 48.2815 81.1548 48.3926 80.9722C48.5038 80.7895 48.9723 80.2655 49.0517 80.3846C49.1311 80.5037 49.4487 81.3056 49.2819 81.5359C49.1152 81.7662 49.2899 82.1552 48.4482 82.3934L48.1147 81.5359Z" fill="#FFAE73"/>
<path d="M38.7539 79.1301C38.7539 79.1301 43.0653 82.7269 44.7486 82.3934C46.0666 82.1314 48.0833 81.4406 48.0833 81.4406L48.4883 82.4728C48.4883 82.4728 46.678 84.9263 44.7883 84.9422C41.8425 84.966 39.6591 83.6638 39.6591 83.6638L38.7539 79.1301Z" fill="#83B7C9"/>
<path d="M31.187 117.099C31.187 117.099 31.3141 119.116 31.7031 119.148C31.7587 119.148 33.6881 119.148 33.6881 119.148L36.1495 119.132C36.1495 119.132 36.1336 118.536 35.4111 118.409C34.6885 118.282 33.4896 117.774 33.0529 116.829C32.5924 115.837 31.187 117.099 31.187 117.099Z" fill="#282828"/>
<path d="M31.0518 117.242C31.0518 117.242 31.7981 117.496 32.3857 117.496C33.0368 117.496 33.6323 117.321 33.6323 117.321C33.6323 117.321 33.7752 115.956 34.5454 112.954C34.9503 111.382 35.5299 109.357 36.3557 106.841C38.6424 99.8851 39.3331 95.8199 39.3967 95.4388C39.3967 95.4149 39.4046 95.407 39.4046 95.407H39.3967L32.3698 92.3263C32.3698 92.3263 33.2353 101.91 32.1316 105.586C31.9728 106.102 31.8458 106.698 31.7267 107.349C31.0359 111.327 31.0518 117.242 31.0518 117.242Z" fill="#282828"/>
<path d="M34.5456 112.946C34.9506 111.374 35.5302 109.35 36.3559 106.833C38.6426 99.8772 39.3334 95.8119 39.3969 95.4308C39.3969 95.4229 39.3969 95.407 39.3969 95.3991L32.3701 92.3184C32.3701 92.3184 33.2355 101.902 32.1319 105.578C31.981 106.078 34.5456 112.946 34.5456 112.946Z" fill="#282828"/>
<path d="M36.6733 117.099C36.6733 117.099 36.8004 119.116 37.1894 119.148C37.245 119.148 39.1744 119.148 39.1744 119.148L41.6358 119.132C41.6358 119.132 41.6199 118.536 40.8974 118.409C40.1749 118.282 38.9759 117.774 38.5392 116.829C38.0787 115.837 36.6733 117.099 36.6733 117.099Z" fill="#3D3D3D"/>
<path d="M40.6593 92.5327C40.6593 92.5327 40.7467 98.7417 39.6748 106.364C38.6029 113.986 38.9681 117.226 38.9681 117.226C38.9681 117.226 38.2297 117.464 37.9359 117.488C37.1737 117.551 36.3956 117.313 36.3956 117.313C36.3956 117.313 34.8552 109.683 35.2999 105.872C35.7445 102.053 33.1958 92.7789 33.1958 92.7789L40.6593 92.5327Z" fill="#3D3D3D"/>
<path d="M38.5157 77.0261C38.476 77.6533 38.3807 78.4314 38.1425 78.8999H37.0548L35.6812 78.0027C35.6812 78.0027 36.1972 77.0261 36.0623 75.581C36.0543 75.5016 36.0067 74.9458 35.9988 74.9299L36.6895 75.2316L38.5395 76.0495C38.5395 76.0574 38.5554 76.4782 38.5157 77.0261Z" fill="#FFE1CC"/>
<path d="M41.0722 92.8027C41.0405 96.0819 40.8261 103.744 40.6673 103.903C38.9602 105.554 31.449 103.45 31.052 101.632C30.655 99.8137 32.5686 78.36 35.4825 77.5024C36.0859 77.3278 39.3254 78.3679 39.3254 78.3679C39.3254 78.3679 39.8336 79.6939 40.1671 81.3851C40.2941 82.0123 40.6911 86.4825 40.9293 89.4679C40.9928 90.2619 41.0405 90.9527 41.0722 91.437C41.0722 91.6435 41.0722 92.1278 41.0722 92.8027Z" fill="#A9CFE0"/>
<path d="M38.5157 77.026C37.8011 76.764 36.5625 76.224 36.1973 75.6127C36.0305 75.3268 36.2767 75.2395 36.6895 75.2474L38.5396 76.0652C38.5396 76.0573 38.5554 76.4781 38.5157 77.026Z" fill="#FFCCA9"/>
<path d="M39.2384 75.9383C39.2384 75.9383 36.2609 76.8672 35.7051 75.0014C35.1573 73.1355 34.403 72.0001 36.2768 71.3252C38.1586 70.6503 38.7382 71.2537 39.0716 71.8333C39.4131 72.4209 40.0006 75.6524 39.2384 75.9383Z" fill="#FFE1CC"/>
<path d="M38.9604 71.6586C38.9604 71.6586 38.6746 74.0327 38.3252 73.7309C37.6582 73.1751 37.2454 73.1752 37.4836 74.0803C37.6503 74.7155 36.634 75.8192 36.0861 75.9224C34.7205 76.1844 33.4659 72.2859 33.8471 71.611C34.9428 69.6736 40.5484 69.2846 38.9604 71.6586Z" fill="#0B3563"/>
<path d="M38.5235 77.55C38.4838 77.5341 36.3083 76.5575 36.0463 76.6369C35.7922 76.7243 35.4746 77.5024 35.4746 77.5024L39.3175 78.3678C39.3175 78.3678 39.0158 77.7564 38.5235 77.55Z" fill="#83B7C9"/>
<g opacity="0.2">
<path opacity="0.2" d="M65.0826 87.2051C63.8122 88.5549 62.2322 89.4283 60.5648 89.8253C57.6905 90.5081 54.5383 89.7776 52.2278 87.6021C48.5675 84.1562 48.3928 78.3997 51.8388 74.7473C54.0143 72.4368 57.1109 71.5158 60.0248 72.016C61.724 72.3098 63.3517 73.0879 64.7015 74.3503C68.3459 77.7883 68.5206 83.5448 65.0826 87.2051Z" fill="#ACCEFC"/>
</g>
<path d="M51.5929 87.8483L40.5484 99.5915C40.3341 99.8217 40.0641 99.9249 39.9609 99.8217L39.6195 99.4962C39.5083 99.393 39.5957 99.123 39.818 98.8927L50.8545 87.1575C51.0689 86.9273 51.3388 86.824 51.442 86.9273L51.7835 87.2528C51.8946 87.3481 51.8073 87.618 51.5929 87.8483Z" fill="#0B4D87"/>
<path d="M45.606 94.2081L40.5562 99.5755C40.3339 99.8137 40.056 99.9249 39.9528 99.8296L39.6113 99.504C39.5002 99.4008 39.5955 99.1229 39.8257 98.8847L44.8755 93.5173L45.606 94.2081Z" fill="#062538"/>
<path d="M65.17 74.1439C65.1223 74.0963 65.0667 74.0486 65.0191 74.001C61.1682 70.3724 55.1021 70.563 51.4815 74.4139C49.0439 77.0023 48.3293 80.5991 49.298 83.775C49.7665 85.3233 50.6399 86.7684 51.8944 87.9594C55.7452 91.588 61.8114 91.3974 65.4399 87.5465C69.0129 83.7353 68.8779 77.7804 65.17 74.1439ZM65.0509 87.1813C63.7884 88.5231 62.2163 89.3886 60.5489 89.7856C57.6905 90.4605 54.5542 89.7379 52.2517 87.5703C48.6072 84.1403 48.4325 78.4156 51.8626 74.7712C54.0302 72.4686 57.1109 71.5555 60.009 72.0557C61.7002 72.3495 63.3199 73.1196 64.6618 74.3821C68.2983 77.8042 68.473 83.5369 65.0509 87.1813Z" fill="#0B3563"/>
<path d="M41.0724 92.8027C33.9503 87.9752 34.5299 81.3453 34.5299 81.3453C37.3089 82.9095 40.0641 86.6254 40.9216 89.4758C40.9851 90.2698 41.0327 90.9606 41.0645 91.4449C41.0724 91.6434 41.0724 92.1278 41.0724 92.8027Z" fill="#98C7D3"/>
<path d="M47.345 90.3572C47.8214 90.246 48.139 89.8887 48.2025 89.8252C48.2025 89.8252 48.409 89.8411 48.1708 90.2698C48.1549 90.3095 48.1073 90.3969 48.0755 90.4683C48.0596 90.4922 48.0834 90.5239 48.1073 90.5319C48.3852 90.5557 48.6551 90.4445 49.1871 90.5557C49.2586 90.5716 49.2824 90.7462 49.2744 90.8177C49.2665 90.9447 49.2824 91.0876 49.1315 91.2782C49.0442 91.3894 48.806 91.5085 48.2819 91.7228C48.0834 91.8022 47.5038 91.7467 46.9639 91.5561L46.5352 91.3576L46.6781 90.5557L46.7892 90.5795C46.956 90.6112 47.1704 90.4048 47.345 90.3572Z" fill="#FFAE73"/>
<path d="M36.6182 78.3679C36.6182 78.3679 30.5679 79.5192 38.3967 88.2849C39.6512 89.6903 46.416 91.5085 46.416 91.5085C46.416 91.5085 47.0989 90.921 46.7575 90.4525C46.7575 90.4525 42.0967 87.0701 41.0725 86.5302C40.6119 86.292 39.286 81.131 38.5317 79.8844C37.7774 78.6458 36.6182 78.3679 36.6182 78.3679Z" fill="#83B7C9"/>
<path d="M48.2817 81.6392C48.2817 81.6392 48.4802 81.258 48.5199 81.0595C48.5596 80.861 48.8058 80.2814 48.909 80.1782C48.9487 80.1385 49.0837 80.1941 49.0996 80.3688C49.1075 80.4482 49.0678 80.5832 49.0043 80.7499C48.8931 81.0198 48.9169 81.3851 48.8772 81.5121C48.782 81.8138 48.2817 81.6392 48.2817 81.6392Z" fill="#FFAE73"/>
<path d="M81.9071 110.715C82.5185 110.961 84.694 110.763 84.7655 110.588C84.8369 110.413 83.4157 108.754 82.8043 108.508C82.1929 108.262 81.5022 108.556 81.256 109.167C81.002 109.778 81.2957 110.469 81.9071 110.715Z" fill="#9BD399"/>
<path d="M87.3933 111.755C87.0519 112.319 86.8931 114.495 87.0598 114.598C87.2186 114.693 89.0845 113.558 89.426 112.994C89.7674 112.43 89.5927 111.7 89.029 111.358C88.4732 111.017 87.7347 111.192 87.3933 111.755Z" fill="#9BD399"/>
<path d="M84.4637 116.027C85.0909 116.226 87.2427 115.86 87.3062 115.686C87.3618 115.503 85.8135 113.963 85.1942 113.764C84.5669 113.566 83.8999 113.907 83.7014 114.534C83.4871 115.154 83.8364 115.821 84.4637 116.027Z" fill="#9BD399"/>
<path d="M87.6317 118.131C87.6317 118.083 87.3856 113.145 84.686 110.596L84.7416 110.533C87.465 113.105 87.7111 118.076 87.7111 118.123L87.6317 118.131Z" fill="#9BD399"/>
<path d="M96.6519 110.826C96.2708 111.08 94.7701 111.247 94.6987 111.136C94.6272 111.025 95.3656 109.707 95.7468 109.453C96.1279 109.199 96.636 109.302 96.8901 109.683C97.1362 110.064 97.033 110.572 96.6519 110.826Z" fill="#9BD399"/>
<path d="M93.0709 112.287C93.3805 112.621 93.7855 114.082 93.6902 114.169C93.5949 114.257 92.1737 113.74 91.8561 113.407C91.5464 113.073 91.5623 112.549 91.8958 112.24C92.2372 111.938 92.7612 111.954 93.0709 112.287Z" fill="#9BD399"/>
<path d="M95.6514 114.781C95.2544 115.003 93.7379 115.05 93.6743 114.939C93.6108 114.828 94.4445 113.566 94.8415 113.343C95.2385 113.121 95.7387 113.264 95.961 113.661C96.1913 114.058 96.0484 114.558 95.6514 114.781Z" fill="#9BD399"/>
<path d="M93.7932 116.654C93.7852 116.623 93.2692 113.24 94.7539 111.136L94.7063 111.104C93.2136 113.224 93.7376 116.638 93.7376 116.67L93.7932 116.654Z" fill="#9BD399"/>
<path d="M91.1178 117.845L90.9431 117.821C90.2682 109.064 87.5924 102.775 87.5527 102.688L87.7115 102.616C87.7512 102.704 90.4429 109.032 91.1178 117.845Z" fill="#9BD399"/>
<path d="M85.7344 101.807C86.0679 102.18 87.6083 102.783 87.7194 102.688C87.8226 102.593 87.4177 100.989 87.0922 100.616C86.7587 100.242 86.195 100.203 85.8218 100.536C85.4407 100.862 85.4089 101.433 85.7344 101.807Z" fill="white"/>
<path d="M88.1083 100.504C87.8066 100.901 87.5366 102.537 87.6557 102.624C87.7669 102.712 89.2596 101.981 89.5613 101.584C89.863 101.187 89.7757 100.616 89.3787 100.322C88.9658 100.02 88.4021 100.099 88.1083 100.504Z" fill="white"/>
<path d="M89.879 102.243C89.3946 102.108 87.7749 102.458 87.7431 102.593C87.7034 102.728 88.9262 103.847 89.4105 103.982C89.8949 104.117 90.3871 103.831 90.5221 103.347C90.6492 102.871 90.3633 102.37 89.879 102.243Z" fill="white"/>
<path d="M88.7912 104.411C88.7436 103.919 87.8464 102.521 87.7034 102.537C87.5605 102.553 86.9491 104.093 86.9968 104.586C87.0444 105.078 87.4891 105.443 87.9813 105.395C88.4736 105.348 88.8388 104.903 88.7912 104.411Z" fill="white"/>
<path d="M86.3299 104.3C86.7746 104.07 87.7194 102.712 87.6559 102.585C87.5924 102.458 85.9329 102.474 85.4883 102.704C85.0437 102.934 84.8769 103.482 85.1072 103.927C85.3454 104.363 85.8853 104.53 86.3299 104.3Z" fill="white"/>
<path d="M87.3621 102.537C87.3859 102.378 87.5368 102.267 87.7035 102.291C87.8623 102.315 87.9735 102.466 87.9497 102.632C87.9258 102.791 87.775 102.902 87.6082 102.879C87.4494 102.855 87.3383 102.704 87.3621 102.537Z" fill="#0B3563"/>
<path d="M91.0623 108.889C90.57 109.492 90.046 112.025 90.2127 112.16C90.3874 112.303 92.7535 111.263 93.2458 110.66C93.7381 110.056 93.6428 109.167 93.0394 108.683C92.4439 108.198 91.5546 108.286 91.0623 108.889Z" fill="#9BD399"/>
<path d="M81.3597 118.742H81.2406C80.0258 112.986 77.6914 109.048 77.6597 109L77.7549 108.945C77.7946 108.992 80.1369 112.954 81.3597 118.742Z" fill="#9BD399"/>
<path d="M76.381 108.571C76.6351 108.794 77.707 109.056 77.7705 108.984C77.834 108.913 77.4212 107.881 77.175 107.658C76.9209 107.436 76.5398 107.468 76.3254 107.714C76.1031 107.968 76.1269 108.349 76.381 108.571Z" fill="white"/>
<path d="M77.8341 107.5C77.6753 107.793 77.6356 108.897 77.715 108.945C77.7944 108.992 78.7234 108.381 78.8822 108.087C79.041 107.793 78.9377 107.428 78.6519 107.261C78.3661 107.103 78.0008 107.206 77.8341 107.5Z" fill="white"/>
<path d="M79.168 108.492C78.8345 108.444 77.7944 108.818 77.7785 108.913C77.7626 109.008 78.6757 109.643 79.0092 109.691C79.3427 109.739 79.6444 109.5 79.692 109.175C79.7317 108.841 79.5015 108.54 79.168 108.492Z" fill="white"/>
<path d="M78.6364 110.032C78.5649 109.707 77.8424 108.865 77.7471 108.881C77.6518 108.905 77.3818 109.977 77.4533 110.302C77.5248 110.628 77.8503 110.826 78.1758 110.755C78.5093 110.683 78.7078 110.358 78.6364 110.032Z" fill="white"/>
<path d="M76.9925 110.175C77.2625 109.985 77.7785 109 77.723 108.921C77.6674 108.841 76.5717 108.992 76.2938 109.191C76.0238 109.381 75.9603 109.762 76.1509 110.032C76.3414 110.302 76.7225 110.366 76.9925 110.175Z" fill="white"/>
<path d="M77.5244 108.913C77.5244 108.802 77.6197 108.714 77.7309 108.722C77.842 108.722 77.9294 108.817 77.9214 108.929C77.9214 109.04 77.8261 109.127 77.715 109.119C77.6038 109.119 77.5165 109.024 77.5244 108.913Z" fill="#0B3563"/>
<path d="M80.5419 112.803C80.2719 113.248 80.137 114.971 80.264 115.05C80.391 115.13 81.8758 114.233 82.1458 113.788C82.4157 113.343 82.2807 112.764 81.8361 112.494C81.3915 112.224 80.8119 112.359 80.5419 112.803Z" fill="#9BD399"/>
<path d="M99.9468 117.98L100.098 117.956C100.701 110.151 103.083 104.554 103.115 104.482L102.972 104.419C102.94 104.498 100.542 110.136 99.9468 117.98Z" fill="#9BD399"/>
<path d="M104.735 103.696C104.441 104.03 103.068 104.562 102.972 104.482C102.877 104.395 103.234 102.966 103.528 102.632C103.822 102.299 104.33 102.267 104.663 102.561C104.997 102.855 105.029 103.363 104.735 103.696Z" fill="white"/>
<path d="M102.623 102.537C102.885 102.894 103.131 104.347 103.028 104.427C102.925 104.506 101.599 103.855 101.337 103.498C101.075 103.14 101.146 102.64 101.503 102.37C101.853 102.108 102.361 102.18 102.623 102.537Z" fill="white"/>
<path d="M101.043 104.085C101.472 103.966 102.917 104.276 102.948 104.403C102.98 104.522 101.892 105.522 101.464 105.642C101.035 105.761 100.59 105.507 100.479 105.078C100.36 104.641 100.614 104.197 101.043 104.085Z" fill="white"/>
<path d="M102.019 106.015C102.059 105.57 102.861 104.332 102.988 104.347C103.115 104.363 103.663 105.729 103.615 106.174C103.576 106.618 103.179 106.936 102.734 106.896C102.297 106.849 101.972 106.459 102.019 106.015Z" fill="white"/>
<path d="M104.203 105.919C103.806 105.713 102.964 104.506 103.02 104.395C103.075 104.284 104.552 104.292 104.949 104.498C105.346 104.705 105.497 105.189 105.291 105.586C105.084 105.975 104.6 106.126 104.203 105.919Z" fill="white"/>
<path d="M103.29 104.347C103.266 104.204 103.131 104.101 102.988 104.125C102.845 104.149 102.742 104.284 102.766 104.427C102.789 104.57 102.924 104.673 103.067 104.649C103.21 104.633 103.313 104.49 103.29 104.347Z" fill="#0B3563"/>
<path d="M99.5896 112.097C100.026 112.637 100.495 114.892 100.344 115.011C100.193 115.138 98.081 114.217 97.6443 113.677C97.2076 113.137 97.287 112.351 97.8269 111.914C98.3589 111.477 99.1529 111.557 99.5896 112.097Z" fill="#9BD399"/>
<path d="M75.1899 119.346C75.1899 119.346 76.0554 117.067 79.1996 116.924C82.3438 116.781 84.5035 118.639 87.0999 117.782C89.6962 116.924 93.9917 114.987 98.057 116.281C102.122 117.567 102.805 119.346 102.805 119.346H75.1899Z" fill="#9BD399"/>
<defs>
<linearGradient id="paint0_linear_2_4466" x1="83" y1="0" x2="83" y2="166" gradientUnits="userSpaceOnUse">
<stop stop-color="#F0F1FF"/>
<stop offset="1" stop-color="white" stop-opacity="0"/>
</linearGradient>
</defs>
</svg>
