<svg width="166" height="166" viewBox="0 0 166 166" fill="none" xmlns="http://www.w3.org/2000/svg">
<circle cx="83" cy="83" r="83" fill="url(#paint0_linear_64_2)"/>
<path d="M54.6994 97.9615H128.036C132.064 97.9615 135.365 94.6608 135.365 90.6322V67.6786H54.6994C50.6708 67.6786 47.3701 70.9793 47.3701 75.0079V90.6394C47.3701 94.6608 50.6708 97.9615 54.6994 97.9615Z" fill="#D5D6DA"/>
<path d="M43.284 96.0879H129.78C132.785 96.0879 135.243 98.5454 135.243 101.551V104.628C135.243 112.945 128.44 119.755 120.116 119.755H43.284C40.2788 119.755 37.8213 117.297 37.8213 114.292V101.558C37.8213 98.5454 40.2788 96.0879 43.284 96.0879Z" fill="#D5D6DA"/>
<path d="M71.2392 119.503C68.234 119.503 65.7765 117.045 65.7765 114.04V101.306C65.7765 98.8697 67.398 96.7869 69.6105 96.0879H43.284C40.2788 96.0879 37.8213 98.5454 37.8213 101.551V114.285C37.8213 117.29 40.2788 119.748 43.284 119.748H120.123C121.053 119.748 121.968 119.661 122.854 119.496H71.2392V119.503Z" fill="#B8C1C9"/>
<path d="M123.928 96.5202H130.335V72.0675C130.335 69.6533 132.309 67.6786 134.724 67.6786H135.329C135.48 67.6786 135.596 67.8011 135.596 67.9452V96.9382V102.473V119.755H116.62C116.39 119.755 116.202 119.568 116.202 119.337V104.239C116.209 99.9939 119.683 96.5202 123.928 96.5202Z" fill="#657285"/>
<path d="M116.253 67.8804C116.253 67.8804 122.371 67.2966 124.49 70.8135C126.609 74.3305 124.49 87.5765 126.284 89.9188C128.079 92.2682 130.198 93.6879 130.118 96.4553L116.966 96.5995C116.966 96.5995 105.399 97.0175 105.486 103.179C105.572 109.341 105.486 120 105.486 120H98.8626C98.8626 120 95.8069 93.0465 102.509 91.4394C117.197 87.9225 116.253 67.8804 116.253 67.8804Z" fill="#B8C1C9"/>
<path d="M94.8916 79.5338C94.8916 79.5338 93.4142 78.6113 92.7656 78.7482C92.1242 78.8852 90.3657 79.3896 90.3081 80.1175C90.2504 80.8454 92.8233 81.9913 94.7186 81.3499C96.6212 80.7085 94.8916 79.5338 94.8916 79.5338Z" fill="#FFD0C5"/>
<path d="M102.74 118.177C102.74 118.501 102.581 118.724 102.307 118.876C102.307 118.876 102.307 118.876 102.3 118.876C101.796 119.15 100.996 118.941 100.03 118.897C99.9076 118.89 98.632 119.438 96.8231 119.596C94.762 119.769 93.998 119.142 93.8755 118.854C93.7746 118.609 94.6611 118.335 95.6484 118.018C95.6988 118.004 95.7421 117.989 95.7925 117.975C95.9223 117.932 96.0592 117.888 96.1889 117.845C97.3636 117.456 98.5239 116.987 98.8122 115.798C99.1221 114.537 98.1996 111.006 98.1996 111.006L101.471 110.653C101.471 110.653 101.789 114.343 101.99 115.488C102.098 116.101 102.38 116.591 102.545 117.117C102.56 117.153 102.567 117.189 102.581 117.225C102.661 117.535 102.74 117.852 102.74 118.177Z" fill="#FF9783"/>
<path d="M60.6521 96.0879H111.013L62.9943 93.9259L53.5967 96.4483L60.6521 96.0879Z" fill="#B8C1C9"/>
<path d="M102.74 118.177C102.74 118.501 102.581 118.724 102.308 118.876C102.308 118.876 102.308 118.876 102.3 118.876C101.573 119.344 100.275 118.695 98.1637 119.668C98.07 119.712 97.3637 119.661 96.8737 119.654C96.2323 119.647 95.3098 119.704 95.0936 119.668C94.0991 119.51 93.9477 119.02 93.8829 118.854C93.782 118.609 94.6684 118.335 95.6557 118.018C95.9296 118.126 97.2556 118.587 98.8195 118.285C100.196 118.025 101.565 117.341 102.545 117.11C102.56 117.146 102.567 117.182 102.581 117.218C102.661 117.535 102.74 117.852 102.74 118.177Z" fill="#131F2D"/>
<path d="M102.416 118.753L101.933 119.654H100.881V118.998L102.416 118.753Z" fill="#131F2D"/>
<path d="M119.633 86.7406L109.053 85.7317C109.053 85.7317 92.8593 85.8038 91.353 87.9442C91.353 87.9442 88.4631 89.9477 91.7278 98.2355C94.9997 106.523 98.8337 114.797 98.8337 114.797C98.8337 114.797 99.8138 115.063 101.154 114.962C101.68 114.919 102.401 114.739 102.401 114.739C102.401 114.739 101.666 102.379 100.03 97.5652C98.3941 92.7583 97.8896 93.688 100.787 93.9546C103.677 94.2213 112.981 96.3617 117.254 95.8284C121.513 95.2951 119.633 86.7406 119.633 86.7406Z" fill="#131F2D"/>
<path d="M61.5459 118.177C61.5459 118.501 61.7044 118.724 61.9783 118.876C61.9783 118.876 61.9783 118.876 61.9855 118.876C62.49 119.15 63.3764 119.178 64.3349 119.142C64.4574 119.135 64.5655 119.135 64.6664 119.135C64.6953 119.135 64.7169 119.135 64.7457 119.135C64.7673 119.135 64.789 119.135 64.8034 119.135C65.7547 119.157 65.6538 119.445 67.4627 119.596C69.5238 119.769 70.2877 119.142 70.4103 118.854C70.5112 118.609 69.6247 118.335 68.6374 118.018C68.5869 118.004 68.5437 117.989 68.4933 117.975C68.3635 117.932 68.2266 117.888 68.0969 117.845C66.9222 117.456 65.7619 116.987 65.4736 115.798C65.1637 114.537 66.0862 111.006 66.0862 111.006L62.8143 110.653C62.8143 110.653 62.4972 114.343 62.2954 115.488C62.1873 116.101 61.9062 116.591 61.7405 117.117C61.7261 117.153 61.7189 117.189 61.7044 117.225C61.6324 117.535 61.5459 117.852 61.5459 118.177Z" fill="#FF7955"/>
<path d="M61.5459 118.177C61.5459 118.501 61.7044 118.724 61.9783 118.876C61.9783 118.876 61.9783 118.876 61.9855 118.876C62.5188 119.121 63.3908 119.157 64.3349 119.135C64.4574 119.135 64.5655 119.128 64.6664 119.135C64.6953 119.135 64.7169 119.135 64.7457 119.135C64.7673 119.135 64.789 119.135 64.8034 119.135C65.7547 119.157 65.6538 119.445 67.4627 119.596C69.5238 119.769 70.2877 119.142 70.4103 118.854C70.5112 118.609 69.6247 118.335 68.6374 118.018C68.3635 118.126 67.0375 118.587 65.4736 118.285C64.0971 118.025 62.7278 117.341 61.7477 117.11C61.7333 117.146 61.7261 117.182 61.7117 117.218C61.6324 117.535 61.5459 117.852 61.5459 118.177Z" fill="#131F2D"/>
<path d="M104.779 118.177C104.779 118.501 104.621 118.724 104.347 118.876C104.347 118.876 104.347 118.876 104.34 118.876C103.835 119.15 103.014 118.544 99.2446 119.438C97.2267 119.913 96.0376 119.142 95.9151 118.854C95.8142 118.609 96.7006 118.335 97.688 118.018C97.7384 118.004 97.7816 117.989 97.8321 117.975C97.9618 117.932 98.0987 117.888 98.2285 117.845C99.4032 117.456 100.563 116.987 100.852 115.798C101.162 114.537 100.239 111.006 100.239 111.006L103.511 110.653C103.511 110.653 103.828 114.343 104.03 115.488C104.138 116.101 104.419 116.591 104.585 117.117C104.599 117.153 104.606 117.189 104.621 117.225C104.7 117.535 104.779 117.852 104.779 118.177Z" fill="#FFD0C5"/>
<path d="M82.7555 114.011C82.9357 114.919 84.2329 114.768 85.6743 114.415C87.1229 114.062 86.7769 114.48 88.8309 114.256C90.8848 114.026 91.5118 113.262 91.5767 112.959C91.6343 112.685 90.6182 112.591 89.5227 112.469C89.3858 112.454 89.2489 112.44 89.1119 112.418C87.8796 112.267 86.9787 111.467 85.8617 110.819C84.8023 110.199 83.224 107.684 83.224 107.684L80.3989 107.907C80.3989 107.907 81.8763 110.156 82.4529 111.136C82.7916 111.712 82.77 112.469 82.7267 113.06C82.7123 113.363 82.6979 113.687 82.7555 114.011Z" fill="#FFD0C5"/>
<path d="M85.6816 114.407C87.1302 114.054 86.7842 114.472 88.8382 114.249C90.8921 114.018 91.5191 113.254 91.584 112.952C91.6416 112.678 90.6255 112.584 89.53 112.462L89.5228 112.476C89.5228 112.476 88.2905 113.348 86.5752 113.391C85.1771 113.427 83.6997 113.024 82.734 113.038C82.7124 113.355 82.6908 113.687 82.7556 114.004C82.943 114.919 84.233 114.761 85.6816 114.407Z" fill="#131F2D"/>
<path d="M76.4785 72.5649C76.4785 72.5649 77.1487 70.9145 77.891 70.8496C78.6333 70.7848 80.9828 70.41 81.1485 70.7487C81.3143 71.0875 81.1485 72.2982 80.644 72.7306C80.1396 73.1702 77.0118 73.8765 77.0118 73.8765L76.4785 72.5649Z" fill="#FFD0C5"/>
<path d="M71.9453 95.9654L65.8628 112.332C65.8628 112.332 64.9259 112.426 64.0323 112.166C63.2107 111.928 62.2666 111.301 62.2666 111.301C62.2666 111.301 63.7728 95.5907 66.5402 92.3188C69.3076 89.0541 71.9453 95.9654 71.9453 95.9654Z" fill="#131F2D"/>
<path d="M66.778 89.1188C66.778 89.1188 63.7583 85.2848 64.479 79.8148C64.7096 78.0924 65.8267 76.615 67.4122 75.9015H68.4788L68.4355 75.8079C67.477 73.7251 67.5779 71.318 68.6662 69.2929C68.6734 69.2857 68.6734 69.2713 68.6806 69.2641C69.0769 68.4858 69.3868 67.6786 70.2661 67.6786H58.1442L57.4668 88.3477L66.778 89.1188Z" fill="#B8C1C9"/>
<path d="M45.9505 88.5639C47.1973 89.0612 48.5738 89.1116 49.8566 88.7008C54.5266 87.209 66.1728 83.6921 69.2717 84.6866C73.1706 85.9406 84.8672 109.226 84.8672 109.226C84.8672 109.226 84.6006 109.579 83.8799 109.846C83.2097 110.098 81.5881 110.083 81.5881 110.083C81.5881 110.083 71.0302 101.032 69.769 98.394C68.515 95.7563 68.0105 93.2411 66.7493 93.4934C65.4954 93.7456 50.5341 99.6552 47.1397 96.131C43.7453 92.6141 44.6317 88.0378 44.6317 88.0378L45.9505 88.5639Z" fill="#364154"/>
<path d="M58.5694 61.8628C58.8504 61.2862 59.1603 60.2628 59.3117 58.4395C59.29 58.6197 58.9729 60.9187 58.0865 62.2231C54.4543 64.6085 47.4853 72.5721 47.6222 74.0855C47.6222 74.0855 45.1719 69.9272 45.1287 69.8983C45.1287 69.8983 40.6028 64.1401 45.9647 60.8466C48.6888 59.1746 48.6744 57.0198 48.5663 55.1532C48.451 53.2867 49.3086 45.2439 54.7714 47.3483C54.7714 47.3483 55.6506 46.9591 56.0398 47.0168C56.0398 47.0168 55.7227 47.0816 55.5569 47.2474C56.1911 47.2113 57.092 47.2546 57.8487 47.687C59.8594 48.8185 61.6467 59.0305 58.5694 61.8628Z" fill="#131F2D"/>
<path d="M57.8776 62.3384C57.8993 62.3456 56.1264 63.2681 54.7931 62.9006C53.5391 62.5618 52.7176 60.9331 52.7392 60.9259C53.2725 60.8178 53.4238 60.0899 53.4094 56.955L53.6472 57.0054L57.683 57.8054C57.683 57.8054 57.5894 59.0738 57.5894 60.2701C57.5894 61.279 57.647 62.2303 57.8776 62.3384Z" fill="#FFD0C5"/>
<path d="M57.6833 57.8053C57.6833 57.8053 57.5896 59.0737 57.5896 60.2701C55.3266 60.2052 54.1375 58.144 53.6475 57.0054L57.6833 57.8053Z" fill="#FF9783"/>
<path d="M53.2291 56.5658C53.2291 56.5658 52.0471 54.692 51.7589 53.0921C51.5571 51.9534 52.1408 47.7158 56.3928 48.3284C56.3928 48.3284 57.6252 48.4509 58.7927 49.2364C59.7152 49.8634 61.0484 51.2039 59.5566 54.901L59.1675 56.1478L53.2291 56.5658Z" fill="#131F2D"/>
<path d="M58.4398 58.9367C58.4398 58.9367 53.0924 59.0232 53.0924 55.6937C53.0852 52.3641 52.3933 50.13 55.8094 49.9354C59.2254 49.7409 59.8884 51.0093 60.1551 52.1191C60.4289 53.2362 59.8308 58.8286 58.4398 58.9367Z" fill="#FFD0C5"/>
<path d="M53.3876 50.5624C53.3876 50.5624 57.0414 48.0689 58.1945 49.7913C58.5476 49.4886 59.1674 49.2724 59.9962 50.2742C61.2358 51.7732 60.1331 54.4325 60.1331 54.4325C59.6215 54.4901 59.5061 52.7461 59.2395 51.8957C59.0377 51.2543 58.3675 50.6057 58.0504 50.3174C57.5819 51.3696 56.2991 53.8848 54.5335 54.3388C52.2849 54.9153 51.312 54.3172 51.312 54.3172C51.312 54.3172 53.0344 52.9479 53.3876 50.5624Z" fill="#131F2D"/>
<path d="M45.9719 76.7232C45.4458 74.5107 47.2403 70.2227 49.1141 66.6697C50.8149 63.4483 52.5733 60.8394 52.7319 60.9331C57.2145 63.5924 57.6181 61.3799 57.6181 61.3799C57.6181 61.3799 61.6899 61.9204 62.843 63.9023C64.4357 66.6481 66.1725 74.8783 67.8806 74.7557C68.6661 74.6981 76.5431 71.7361 76.5431 71.7361C76.5431 71.7361 77.8548 72.9685 77.6025 74.4747C77.6025 74.4747 73.7109 77.0763 70.4246 78.7411C68.6877 79.6203 67.1094 80.2329 66.3743 80.0599C64.8753 79.7068 62.5331 76.2331 61.2719 74.1864C61.2719 74.1792 61.2647 74.1792 61.2647 74.172C59.6504 83.3102 61.8485 85.393 60.7314 86.3515C59.5567 87.3676 57.8847 85.8686 54.1948 87.4685C51.7734 88.5207 48.4222 90.0342 46.1593 90.3008C44.9774 90.4377 44.0909 90.2359 43.8026 89.436C42.9595 87.1082 46.9808 80.932 45.9719 76.7232Z" fill="#FFA9D6"/>
<path d="M57.2505 56.9189C57.2505 56.9189 57.3514 57.3441 58.4036 57.2793C58.4036 57.2793 59.29 57.2216 59.2612 56.7604C59.2612 56.7604 58.4036 56.4289 57.2505 56.9189Z" fill="white"/>
<path d="M55.9534 82.8922C56.0615 82.9355 56.1841 82.8778 56.2273 82.7769L58.1371 78.2222L57.4597 77.9628L55.8237 82.6256C55.7877 82.7265 55.8453 82.849 55.9534 82.8922Z" fill="#364154"/>
<path d="M58.1369 76.5718L58.5621 76.7303L58.1441 78.2149L57.4595 77.9555L58.1369 76.5718Z" fill="#131F2D"/>
<path d="M58.375 75.3683L59.2038 75.6854C59.3623 75.7502 59.4056 75.9592 59.2758 76.0745L59.1893 76.2043C59.0596 76.4133 58.8722 76.579 58.6488 76.6871L58.5551 76.7376L58.1372 76.579L58.1155 76.5214C58.0218 76.2979 57.993 76.0457 58.0363 75.8079L58.0651 75.6133C58.0507 75.4331 58.2164 75.3034 58.375 75.3683Z" fill="#131F2D"/>
<path d="M43.7954 89.436C44.0837 90.2359 44.9701 90.4449 46.152 90.3008C47.7159 89.6161 54.4687 87.0001 54.3966 85.2272C54.2813 82.6039 53.0994 82.5175 53.9354 79.2744C54.6056 76.6727 48.3645 71.837 47.37 70.7848C45.4962 74.3377 45.4458 74.5035 45.9718 76.716C46.9808 80.932 42.9594 87.1082 43.7954 89.436Z" fill="#FF64AE"/>
<path d="M61.2646 74.1936C62.5258 76.2403 64.868 79.714 66.3671 80.0671C67.1094 80.2401 68.6804 79.6275 70.4173 78.7483C69.1489 79.0726 67.9165 79.0654 66.713 78.9501C65.4158 78.8275 65.0338 77.2348 62.9799 74.8422C61.6538 73.2927 61.3295 73.6819 61.2646 74.1936Z" fill="#FF64AE"/>
<path d="M55.0022 79.2168C55.0022 79.2168 56.1337 78.3375 57.2003 78.5465C58.2669 78.7555 58.793 79.4906 58.7498 79.8221C58.7065 80.1609 58.1444 81.0977 57.3228 81.1842C56.5085 81.2707 54.1807 80.6797 54.1807 80.6797L55.0022 79.2168Z" fill="#FFD0C5"/>
<path d="M52.7318 60.9331C52.7318 60.9331 48.3717 61.1998 46.8655 63.3041C44.7395 66.2661 39.6443 79.4402 42.0586 81.1193C44.7755 83.0147 55.3119 81.0617 55.3119 81.0617C55.3119 81.0617 55.6362 79.5627 55.1894 78.8348C54.7425 78.1069 47.4781 76.9322 47.1466 76.6007C46.8079 76.262 51.3337 70.0641 51.3337 69.0552C51.3409 68.0534 52.7318 60.9331 52.7318 60.9331Z" fill="#FFA9D6"/>
<path d="M121.11 87.4974L111.186 86.6614C111.186 86.6614 94.9928 86.7334 93.4865 88.8018C93.4865 88.8018 91.0362 90.3368 94.3081 98.358C97.58 106.379 100.888 115.207 100.888 115.207C100.888 115.207 101.623 115.308 102.509 115.236C103.627 115.143 103.994 114.782 103.994 114.782C103.994 114.782 103.763 103.806 102.127 99.1435C100.492 94.488 99.8646 94.9564 102.754 95.2158C105.644 95.4753 113.774 97.5004 119.381 96.4266C123.611 95.6266 121.11 87.4974 121.11 87.4974Z" fill="#364154"/>
<path d="M95.9225 118.861C95.9874 119.02 96.1315 119.481 97.0396 119.654H100.247C101.349 119.15 102.236 119.092 102.928 119.085C103.54 119.078 104.009 119.099 104.347 118.883C104.347 118.883 104.347 118.883 104.354 118.883C104.369 118.876 104.391 118.861 104.405 118.854C104.65 118.703 104.787 118.487 104.787 118.184C104.787 117.86 104.7 117.543 104.621 117.233C104.614 117.197 104.6 117.161 104.585 117.125C103.605 117.355 102.236 118.04 100.859 118.299C99.2953 118.595 97.9693 118.133 97.6954 118.033C96.7009 118.335 95.8144 118.616 95.9225 118.861Z" fill="#131F2D"/>
<path d="M104.455 118.753L103.973 119.654H102.92V118.998L104.455 118.753Z" fill="#131F2D"/>
<path d="M94.171 81.4508C94.1854 81.5445 94.2143 81.631 94.2503 81.7175C94.6683 82.6399 103.389 83.8146 104.477 83.2237C104.967 82.9642 105.673 78.5681 106.307 73.79C107.093 67.8804 107.763 61.3871 107.763 61.3871C107.763 61.3871 104.145 62.5258 103.727 64.4572C103.309 66.3814 103.223 78.287 102.135 78.8708C101.046 79.4545 96.434 78.9573 94.8413 79.2095C94.834 79.1951 93.9981 80.5139 94.171 81.4508Z" fill="#FFA9D6"/>
<path d="M107.518 47.6797C108.196 47.1392 109.176 47.2041 109.81 47.2401C109.644 47.0744 109.327 47.0095 109.327 47.0095C109.716 46.9518 110.595 47.341 110.595 47.341C110.595 47.341 113.918 45.6402 115.453 50.0003C115.453 50.0003 115.186 49.6688 114.826 49.3013C115.712 51.8092 114.819 55.6 112.015 56.2774C110.199 56.717 100.578 53.2578 107.518 47.6797Z" fill="#131F2D"/>
<path d="M107.496 62.3384C107.475 62.3456 109.248 63.2681 110.581 62.9006C111.835 62.5618 112.656 60.9331 112.635 60.9259C112.101 60.8178 111.95 60.0899 111.965 56.955L111.727 57.0054L107.691 57.8054C107.691 57.8054 107.785 59.0738 107.785 60.2701C107.785 61.279 107.727 62.2303 107.496 62.3384Z" fill="#FFD0C5"/>
<path d="M107.691 57.8053C107.691 57.8053 107.785 59.0737 107.785 60.2701C110.048 60.2052 111.237 58.144 111.727 57.0054L107.691 57.8053Z" fill="#FF9783"/>
<path d="M112.145 56.5658C112.145 56.5658 113.327 54.692 113.615 53.0921C113.817 51.9534 113.233 47.7158 108.981 48.3284C108.981 48.3284 107.749 48.4509 106.581 49.2364C105.659 49.8634 104.326 51.2039 105.817 54.901L106.207 56.1478L112.145 56.5658Z" fill="#131F2D"/>
<path d="M106.934 58.9367C106.934 58.9367 112.282 59.0232 112.282 55.6937C112.289 52.3641 112.981 50.13 109.565 49.9354C106.149 49.7409 105.486 51.0093 105.219 52.1191C104.945 53.2362 105.543 58.8286 106.934 58.9367Z" fill="#FFD0C5"/>
<path d="M105.63 66.3094C105.724 65.9274 104.924 65.6463 104.729 65.9851C104.361 66.6193 104.289 67.4192 104.145 68.0534C103.727 69.8695 104.145 72.3559 104.145 72.3559L105.63 66.3094Z" fill="#FF64AE"/>
<path d="M105.378 50.2742C106.199 49.2724 106.826 49.4886 107.179 49.7913C108.332 48.0617 111.986 50.5625 111.986 50.5625C112.347 52.9551 114.069 54.3172 114.069 54.3172C114.069 54.3172 113.096 54.9226 110.847 54.3388C109.082 53.8848 107.799 51.3696 107.331 50.3174C107.013 50.5985 106.343 51.2543 106.141 51.8957C105.875 52.7461 105.752 54.4902 105.248 54.4325C105.241 54.4253 104.138 51.7732 105.378 50.2742Z" fill="#131F2D"/>
<path d="M108.123 56.9189C108.123 56.9189 108.022 57.3441 106.97 57.2793C106.97 57.2793 106.084 57.2216 106.113 56.7604C106.113 56.7604 106.97 56.4289 108.123 56.9189Z" fill="white"/>
<path d="M94.1709 81.4509C94.1853 81.5446 94.2141 81.6311 94.2502 81.7175C94.6682 82.64 103.388 83.8147 104.477 83.2238C104.967 82.9643 105.817 77.4944 105.204 72.6082C104.549 75.4044 104.347 81.141 102.805 81.4076C101.046 81.7103 96.4555 81.1266 94.1709 81.4509Z" fill="#FF64AE"/>
<path d="M103.814 72.5793C105.983 83.0219 104.167 84.6291 105.291 85.6524C105.299 85.6596 106.293 86.0848 106.3 86.092C107.475 87.1082 107.504 85.8758 111.194 87.4757C112.952 88.2397 115.201 89.2486 117.168 89.8468C117.91 90.0702 118.61 90.2359 119.229 90.308C120.411 90.4449 121.298 90.2431 121.586 89.4432C122.422 87.1154 118.401 80.9392 119.41 76.7232C119.417 76.6872 119.424 76.6511 119.431 76.6151C119.503 76.2475 119.518 75.8223 119.482 75.3611C119.294 73.0117 117.81 69.5885 116.267 66.6769C114.567 63.4555 112.808 60.8466 112.65 60.9403C108.167 63.5996 107.763 61.3871 107.763 61.3871C107.763 61.3871 103.072 69.0119 103.814 72.5793Z" fill="#FFA9D6"/>
<path d="M105.94 85.9478C105.947 85.9478 105.932 85.9406 105.94 85.9478C107.114 86.964 107.496 85.8758 111.186 87.4757C112.945 88.2396 115.193 89.2485 117.161 89.8467C118.162 90.0197 118.912 90.1782 119.222 90.3079C120.404 90.4449 121.29 90.2431 121.578 89.4431C122.414 87.1153 118.393 80.9391 119.402 76.7231C119.409 76.6871 119.416 76.6511 119.423 76.615C119.51 76.197 119.524 75.7862 119.474 75.361C119.265 73.5737 117.946 71.6351 116.462 68.8101C115.467 69.8623 107.986 68.6443 109.759 79.0365C110.292 82.2147 106.408 83.4759 105.94 85.9478Z" fill="#FF64AE"/>
<path d="M106.3 86.474C106.3 86.474 104.65 86.0848 103.9 86.3875C103.144 86.6974 101.637 87.4757 101.774 87.8937C101.911 88.3117 103.699 88.5351 104.455 88.1171C105.212 87.6991 105.767 88.2324 106.689 87.9225C107.619 87.6198 106.3 86.474 106.3 86.474Z" fill="#FFD0C5"/>
<path d="M112.642 60.9331C112.642 60.9331 118.725 61.0124 119.813 63.9455C120.901 66.8787 120.57 77.1844 118.977 80.2906C117.384 83.3895 108.332 87.5838 107.331 87.7496C106.322 87.9154 105.695 86.3659 105.738 86.2001C105.781 86.0344 115.251 78.3663 115.208 77.5664C115.157 76.7664 112.642 60.9331 112.642 60.9331Z" fill="#FFA9D6"/>
<path d="M109.99 70.6695L112.21 70.9578C112.642 71.0155 113.039 70.7128 113.089 70.2804L113.183 69.5453C113.24 69.1129 112.938 68.7165 112.505 68.666L110.286 68.3778C109.853 68.3201 109.457 68.6228 109.406 69.0552L109.313 69.7903C109.255 70.2227 109.558 70.6119 109.99 70.6695Z" fill="#131F2D"/>
<path d="M111.822 70.3419L112.722 70.4598L112.902 69.0879L112.002 68.9699L111.822 70.3419Z" fill="#00A3FE"/>
<path d="M109.76 69.0324L111.718 69.2889L111.764 68.9388L109.806 68.6823L109.76 69.0324Z" fill="#00A3FE"/>
<path d="M109.675 69.6422L111.633 69.8987L111.679 69.5486L109.721 69.292L109.675 69.6422Z" fill="#00A3FE"/>
<path d="M38.6137 119.676H75.9738C79.4835 119.676 82.3301 116.829 82.3301 113.319V107.323C82.3301 103.813 79.4835 100.967 75.9738 100.967H38.6137C35.104 100.967 32.2573 103.813 32.2573 107.323V113.319C32.2573 116.829 35.104 119.676 38.6137 119.676Z" fill="#FF64AE"/>
<path d="M35.3564 119.676H63.2323C66.742 119.676 69.5887 116.829 69.5887 113.319V107.323C69.5887 103.813 66.742 100.967 63.2323 100.967H35.3564C31.8467 100.967 29 103.813 29 107.323V113.319C29 116.829 31.8467 119.676 35.3564 119.676Z" fill="#FFA9D6"/>
<path d="M69.6686 100.996H72.6594C73.2647 100.996 73.762 100.506 73.762 99.893V98.8552C73.762 98.2498 73.272 97.7526 72.6594 97.7526H69.6686C69.0632 97.7526 68.5659 98.2426 68.5659 98.8552V99.893C68.5731 100.506 69.0632 100.996 69.6686 100.996Z" fill="#B05638"/>
<path d="M68.5646 100.168H73.7607V99.0729H68.5646V100.168Z" fill="#A0462D"/>
<path d="M68.5646 98.6648H73.7607V98.4774H68.5646V98.6648Z" fill="#A0462D"/>
<path d="M91.0792 81.6455L93.335 79.678C93.7962 79.2816 93.8394 78.5826 93.4431 78.1213L92.7584 77.3358C92.362 76.8746 91.663 76.8313 91.2018 77.2277L88.946 79.1952C88.4848 79.5915 88.4416 80.2906 88.8379 80.7518L89.5226 81.5374C89.9261 81.9986 90.6252 82.049 91.0792 81.6455Z" fill="#131F2D"/>
<path d="M89.7042 81.7508L93.6221 78.3375L92.9025 77.5116L88.9846 80.9249L89.7042 81.7508Z" fill="#B05638"/>
<path d="M88.7184 80.6133L92.6362 77.2L92.5131 77.0587L88.5953 80.472L88.7184 80.6133Z" fill="#016EB9"/>
<path d="M78.9142 73.545L81.0979 72.6297L79.1088 66.0859L75.6279 67.5489L78.9142 73.545Z" fill="#FF64AE"/>
<path d="M79.0583 70.8352C79.6781 70.5758 79.9736 69.8551 79.7141 69.2353C79.4547 68.6155 78.734 68.3201 78.1142 68.5795C77.4944 68.839 77.199 69.5596 77.4584 70.1794C77.7179 70.8064 78.4385 71.0947 79.0583 70.8352Z" fill="#C63CC0"/>
<path d="M76.2814 68.2486L79.1709 67.0328L79.1094 66.8867L76.2199 68.1024L76.2814 68.2486Z" fill="#A0462D"/>
<path d="M80.3844 74.9431L81.0762 74.6477C81.4798 74.4747 81.6744 74.0063 81.5014 73.6027L81.0906 72.6298L78.9214 73.5378L79.3322 74.5107C79.5123 74.9215 79.9736 75.1089 80.3844 74.9431Z" fill="#C63CC0"/>
<path d="M63.6504 99.0858L66.0143 99.1074L66.7782 92.3114L62.9946 92.2826L63.6504 99.0858Z" fill="#FF64AE"/>
<path d="M64.8539 97.4355C65.5313 97.4427 66.079 96.895 66.0862 96.2247C66.0934 95.5473 65.5457 94.9996 64.8755 94.9924C64.1981 94.9852 63.6503 95.5329 63.6431 96.2031C63.6359 96.8734 64.1764 97.4283 64.8539 97.4355Z" fill="#C63CC0"/>
<path d="M63.3221 93.1744L66.457 93.2007L66.4584 93.0421L63.3234 93.0158L63.3221 93.1744Z" fill="#A0462D"/>
<path d="M64.4434 100.952L65.2001 100.96C65.6397 100.967 66 100.606 66.0072 100.167L66.0144 99.1146L63.665 99.093L63.6578 100.145C63.6506 100.585 64.0037 100.945 64.4434 100.952Z" fill="#C63CC0"/>
<path d="M52.1698 98.7471L54.8868 98.7688C55.0526 98.7688 55.1823 98.6462 55.1967 98.4805L55.8237 90.7332L51.3555 90.6971L51.8527 98.4517C51.8672 98.6174 52.0041 98.7471 52.1698 98.7471Z" fill="#FFA9D6"/>
<path d="M53.5465 96.7942C54.3464 96.8014 54.995 96.16 55.0022 95.36C55.0094 94.5601 54.368 93.9114 53.5681 93.9042C52.7681 93.897 52.1195 94.5384 52.1123 95.3384C52.1123 96.1311 52.7537 96.787 53.5465 96.7942Z" fill="#FFD2EC"/>
<path d="M51.7396 91.7556L55.4438 91.7866L55.4454 91.5992L51.7411 91.5682L51.7396 91.7556Z" fill="#131F2D"/>
<path d="M51.7376 93.3216L55.4419 93.3527L55.4496 92.4374L51.7453 92.4063L51.7376 93.3216Z" fill="#FFD2EC"/>
<path d="M53.0707 100.945L53.9643 100.952C54.4832 100.96 54.9084 100.534 54.9156 100.015L54.9228 98.7687L52.1482 98.7471L52.141 99.9938C52.1266 100.513 52.5446 100.945 53.0707 100.945Z" fill="#FFD2EC"/>
<path d="M56.9766 100.96H59.8449V90.9566C59.8449 90.416 59.4053 89.9836 58.872 89.9836H57.9495C57.409 89.9836 56.9766 90.4233 56.9766 90.9566V100.96Z" fill="#B2CBFD"/>
<path d="M58.2809 90.0989H58.6412C58.8574 90.0989 59.0232 89.926 59.0232 89.717V88.8738C59.0232 88.6576 58.8502 88.4918 58.6412 88.4918H58.2809C58.0647 88.4918 57.8989 88.6648 57.8989 88.8738V89.717C57.8989 89.926 58.0719 90.0989 58.2809 90.0989Z" fill="#1A51AA"/>
<path d="M56.9761 99.3748H59.1382V93.1697H56.9761V99.3748Z" fill="#1A51AA"/>
<path d="M37.7418 100.938H48.8475L45.4891 94.3727H34.3906L37.7418 100.938Z" fill="#8C8C8C"/>
<path d="M37.5113 100.938H48.617L45.2586 94.3727H34.1602L37.5113 100.938Z" fill="#D1D1D1"/>
<path d="M51.658 100.938H48.6167V100.707H51.658C51.7228 100.707 51.7733 100.758 51.7733 100.823C51.7733 100.888 51.7228 100.938 51.658 100.938Z" fill="#8C8C8C"/>
<path d="M40.4802 98.1491C40.646 98.6031 41.064 98.8698 41.4099 98.7401C41.7558 98.6103 41.9072 98.1419 41.7414 97.6879C41.5757 97.2338 41.1577 96.9672 40.8118 97.0969C40.4658 97.2194 40.3217 97.6951 40.4802 98.1491Z" fill="#131F2D"/>
<path d="M87.0721 95.187C86.2361 94.6681 86.3658 93.7168 86.3658 93.7168V76.9177L85.0542 93.7096C84.9533 95.0068 85.9262 95.4104 85.9262 95.4104C85.9262 95.4104 87.9081 95.6986 87.0721 95.187Z" fill="#B8C1C9"/>
<defs>
<linearGradient id="paint0_linear_64_2" x1="83" y1="0" x2="83" y2="166" gradientUnits="userSpaceOnUse">
<stop stop-color="#EEF0FF"/>
<stop offset="1" stop-color="white"/>
</linearGradient>
</defs>
</svg>
