<svg width="166" height="166" viewBox="0 0 166 166" fill="none" xmlns="http://www.w3.org/2000/svg">
<circle cx="83" cy="83" r="83" fill="url(#paint0_linear_2_4436)"/>
<path d="M43.8185 93.2554C44.4122 93.479 45.0831 93.1937 45.3298 92.6077L55.7626 67.7325L52.0537 66.3291L43.1245 91.7518C42.9086 92.3609 43.217 93.024 43.8185 93.2554Z" fill="#364154"/>
<path d="M55.7549 58.7494L58.045 59.6207L55.7626 67.7325L52.0537 66.3291L55.7549 58.7494Z" fill="#131F2D"/>
<path d="M57.0502 52.1797L61.5688 53.8915C62.4555 54.2231 62.6714 55.372 61.9774 56.012L61.5225 56.7291C60.7977 57.8626 59.7798 58.7725 58.577 59.3662L58.0526 59.6207L55.7625 58.7493L55.6314 58.4178C55.1302 57.184 54.976 55.8269 55.1765 54.5084L55.3384 53.4597C55.2613 52.5344 56.1789 51.8481 57.0502 52.1797Z" fill="#131F2D"/>
<path d="M25.5513 113.867H51.5446C52.1923 113.867 52.7244 113.342 52.7244 112.687V97.3576C52.7244 96.7099 52.2 96.1779 51.5446 96.1779H25.5513C24.9036 96.1779 24.3716 96.7022 24.3716 97.3576V112.687C24.3793 113.342 24.9036 113.867 25.5513 113.867Z" fill="#9DA8ED"/>
<path d="M24.3732 109.34H52.7183V103.349H24.3732V109.34Z" fill="#4754C7"/>
<path d="M24.3732 101.135H52.7183V100.124H24.3732V101.135Z" fill="#4754C7"/>
<path d="M102.683 108.13L114.558 103.133L103.732 67.4164L84.7168 75.4125L102.683 108.13Z" fill="#FF64AE"/>
<path d="M103.447 93.3326C106.839 91.9061 108.436 87.9967 107.009 84.5962C105.583 81.2034 101.673 79.6073 98.2727 81.0338C94.8799 82.4603 93.2838 86.3697 94.7103 89.7702C96.1368 93.1629 100.054 94.7591 103.447 93.3326Z" fill="#C63CC0"/>
<path d="M88.2797 79.2113L104.05 72.5759L103.712 71.7728L87.9418 78.4082L88.2797 79.2113Z" fill="#A0462D"/>
<path d="M107.449 117.097L117.696 112.787C118.128 112.602 118.336 112.101 118.151 111.669L114.558 103.133L102.737 108.107L106.331 116.642C106.516 117.074 107.017 117.282 107.449 117.097Z" fill="#C63CC0"/>
<path d="M68.4389 104.914L83.2592 105.022C84.1459 105.03 84.8861 104.351 84.9633 103.465L88.4023 61.2015L64.0283 60.9933L66.758 103.326C66.8119 104.22 67.5445 104.914 68.4389 104.914Z" fill="#FFA9D6"/>
<path d="M75.9802 94.227C80.3369 94.2655 83.8916 90.7648 83.9301 86.4082C83.9687 82.0516 80.468 78.4969 76.1113 78.4583C71.7547 78.4198 68.2 81.9205 68.1614 86.2771C68.1229 90.6337 71.6236 94.1962 75.9802 94.227Z" fill="#FFD2EC"/>
<path d="M66.1041 66.7797L86.3296 66.9493L86.3382 65.9238L66.1127 65.7542L66.1041 66.7797Z" fill="#131F2D"/>
<path d="M66.0694 75.3221L86.2949 75.4918L86.3368 70.4952L66.1113 70.3255L66.0694 75.3221Z" fill="#FFD2EC"/>
<path d="M69.2178 116.874L82.3571 116.982C82.9123 116.989 83.3672 116.534 83.3749 115.979L83.4675 105.03L68.308 104.906L68.2154 115.856C68.2077 116.411 68.655 116.866 69.2178 116.874Z" fill="#FFD2EC"/>
<path d="M121.968 117.051H137.628V58.1788C137.628 57.6005 137.158 57.1378 136.588 57.1378H123.016C122.438 57.1378 121.975 57.6082 121.975 58.1788V117.051H121.968Z" fill="#B2CBFD"/>
<path d="M127.404 57.7701H132.763C132.994 57.7701 133.172 57.5851 133.172 57.3614V49.3807C133.172 49.1494 132.987 48.972 132.763 48.972H127.404C127.173 48.972 126.995 49.1571 126.995 49.3807V57.3537C126.988 57.5851 127.173 57.7701 127.404 57.7701Z" fill="#1A51AA"/>
<path d="M121.965 108.398H133.755V74.5395H121.965V108.398Z" fill="#1A51AA"/>
<defs>
<linearGradient id="paint0_linear_2_4436" x1="83" y1="0" x2="83" y2="166" gradientUnits="userSpaceOnUse">
<stop stop-color="#EEEFFF"/>
<stop offset="1" stop-color="white" stop-opacity="0"/>
</linearGradient>
</defs>
</svg>
