<svg width="169" height="25" viewBox="0 0 169 25" fill="none" xmlns="http://www.w3.org/2000/svg">
<path d="M11.2543 2.16143L8.42005 7.90795L2.07891 8.83243C0.941752 8.99736 0.486023 10.3993 1.31068 11.2022L5.89835 15.6727L4.81328 21.9878C4.61797 23.1293 5.82022 23.9843 6.82717 23.4505L12.4999 20.4687L18.1727 23.4505C19.1796 23.98 20.3819 23.1293 20.1865 21.9878L19.1015 15.6727L23.6891 11.2022C24.5138 10.3993 24.0581 8.99736 22.9209 8.83243L16.5798 7.90795L13.7456 2.16143C13.2378 1.13712 11.7664 1.1241 11.2543 2.16143Z" fill="#FFA800"/>
<path d="M47.2543 2.16143L44.4201 7.90795L38.0789 8.83243C36.9418 8.99736 36.486 10.3993 37.3107 11.2022L41.8983 15.6727L40.8133 21.9878C40.618 23.1293 41.8202 23.9843 42.8272 23.4505L48.4999 20.4687L54.1727 23.4505C55.1796 23.98 56.3819 23.1293 56.1865 21.9878L55.1015 15.6727L59.6891 11.2022C60.5138 10.3993 60.0581 8.99736 58.9209 8.83243L52.5798 7.90795L49.7456 2.16143C49.2378 1.13712 47.7664 1.1241 47.2543 2.16143Z" fill="#FFA800"/>
<path d="M83.2543 2.16143L80.4201 7.90795L74.0789 8.83243C72.9418 8.99736 72.486 10.3993 73.3107 11.2022L77.8983 15.6727L76.8133 21.9878C76.618 23.1293 77.8202 23.9843 78.8272 23.4505L84.4999 20.4687L90.1727 23.4505C91.1796 23.98 92.3819 23.1293 92.1865 21.9878L91.1015 15.6727L95.6891 11.2022C96.5138 10.3993 96.0581 8.99736 94.9209 8.83243L88.5798 7.90795L85.7456 2.16143C85.2378 1.13712 83.7664 1.1241 83.2543 2.16143Z" fill="#FFA800"/>
<path d="M119.254 2.16143L116.42 7.90795L110.079 8.83243C108.942 8.99736 108.486 10.3993 109.311 11.2022L113.898 15.6727L112.813 21.9878C112.618 23.1293 113.82 23.9843 114.827 23.4505L120.5 20.4687L126.173 23.4505C127.18 23.98 128.382 23.1293 128.187 21.9878L127.101 15.6727L131.689 11.2022C132.514 10.3993 132.058 8.99736 130.921 8.83243L124.58 7.90795L121.746 2.16143C121.238 1.13712 119.766 1.1241 119.254 2.16143Z" fill="#FFA800"/>
<path d="M155.254 2.16143L152.42 7.90795L146.079 8.83243C144.942 8.99736 144.486 10.3993 145.311 11.2022L149.898 15.6727L148.813 21.9878C148.618 23.1293 149.82 23.9843 150.827 23.4505L156.5 20.4687L162.173 23.4505C163.18 23.98 164.382 23.1293 164.187 21.9878L163.101 15.6727L167.689 11.2022C168.514 10.3993 168.058 8.99736 166.921 8.83243L160.58 7.90795L157.746 2.16143C157.238 1.13712 155.766 1.1241 155.254 2.16143Z" fill="#FFA800"/>
</svg>
