<svg width="36" height="36" viewBox="0 0 36 36" fill="none" xmlns="http://www.w3.org/2000/svg">
<rect y="0.000244141" width="36" height="36" rx="5" fill="#FF64AE"/>
<path d="M11.3521 19.178L10.5716 18.3976C10.2411 18.0671 10.2411 17.5327 10.5716 17.2058L17.4024 10.3714C17.7329 10.0409 18.2673 10.0409 18.5942 10.3714L25.4251 17.2022C25.7556 17.5327 25.7556 18.0671 25.4251 18.394L24.6446 19.1745C24.3106 19.5085 23.7657 19.5015 23.4388 19.1604L19.4063 14.9276V25.0315C19.4063 25.4991 19.0302 25.8753 18.5626 25.8753H17.4376C16.97 25.8753 16.5938 25.4991 16.5938 25.0315V14.9276L12.5579 19.164C12.231 19.5085 11.686 19.5155 11.3521 19.178Z" fill="white"/>
</svg>
