<svg width="79" height="79" viewBox="0 0 79 79" fill="none" xmlns="http://www.w3.org/2000/svg">
<g filter="url(#filter0_d_2_4365)">
<circle cx="41.5" cy="33.5" r="24.5" fill="white"/>
</g>
<path d="M51.4302 28.408C51.446 28.6301 51.446 28.8522 51.446 29.0743C51.446 35.8477 46.2906 43.6523 36.868 43.6523C33.9651 43.6523 31.2684 42.8115 29 41.3522C29.4125 41.3998 29.809 41.4156 30.2373 41.4156C32.6326 41.4156 34.8375 40.6067 36.5983 39.2266C34.3458 39.179 32.4581 37.7037 31.8077 35.6733C32.125 35.7208 32.4422 35.7526 32.7754 35.7526C33.2354 35.7526 33.6955 35.6891 34.1237 35.5781C31.776 35.1022 30.0152 33.04 30.0152 30.5495V30.4861C30.6973 30.8668 31.4905 31.1048 32.3312 31.1364C30.9511 30.2164 30.0469 28.646 30.0469 26.8693C30.0469 25.9176 30.3007 25.0451 30.7449 24.2837C33.2671 27.3928 37.0583 29.4232 41.3096 29.6453C41.2303 29.2646 41.1827 28.8681 41.1827 28.4715C41.1827 25.6479 43.4669 23.3478 46.3064 23.3478C47.7816 23.3478 49.1141 23.9664 50.05 24.9658C51.208 24.7437 52.3184 24.3154 53.302 23.7285C52.9212 24.9182 52.1122 25.9176 51.0494 26.5521C52.0805 26.4411 53.0799 26.1555 53.9999 25.759C53.302 26.7741 52.4295 27.6783 51.4302 28.408Z" fill="#091156"/>
<defs>
<filter id="filter0_d_2_4365" x="0" y="0" width="79" height="79" filterUnits="userSpaceOnUse" color-interpolation-filters="sRGB">
<feFlood flood-opacity="0" result="BackgroundImageFix"/>
<feColorMatrix in="SourceAlpha" type="matrix" values="0 0 0 0 0 0 0 0 0 0 0 0 0 0 0 0 0 0 127 0" result="hardAlpha"/>
<feMorphology radius="1" operator="erode" in="SourceAlpha" result="effect1_dropShadow_2_4365"/>
<feOffset dx="-2" dy="6"/>
<feGaussianBlur stdDeviation="8"/>
<feComposite in2="hardAlpha" operator="out"/>
<feColorMatrix type="matrix" values="0 0 0 0 0.900764 0 0 0 0 0.912127 0 0 0 0 0.991667 0 0 0 1 0"/>
<feBlend mode="normal" in2="BackgroundImageFix" result="effect1_dropShadow_2_4365"/>
<feBlend mode="normal" in="SourceGraphic" in2="effect1_dropShadow_2_4365" result="shape"/>
</filter>
</defs>
</svg>
