<svg width="103" height="103" viewBox="0 0 103 103" fill="none" xmlns="http://www.w3.org/2000/svg">
<g filter="url(#filter0_d_2_1034)">
<circle cx="51.5" cy="47.5" r="21.5" fill="white"/>
</g>
<path d="M61.4302 42.408C61.446 42.6301 61.446 42.8522 61.446 43.0743C61.446 49.8477 56.2906 57.6523 46.868 57.6523C43.9651 57.6523 41.2684 56.8115 39 55.3522C39.4125 55.3997 39.809 55.4156 40.2373 55.4156C42.6326 55.4156 44.8375 54.6066 46.5983 53.2266C44.3458 53.1789 42.4581 51.7037 41.8077 49.6732C42.125 49.7208 42.4422 49.7525 42.7754 49.7525C43.2354 49.7525 43.6955 49.6891 44.1237 49.5781C41.776 49.1021 40.0152 47.04 40.0152 44.5495V44.4861C40.6973 44.8668 41.4905 45.1047 42.3312 45.1364C40.9511 44.2164 40.0469 42.6459 40.0469 40.8693C40.0469 39.9175 40.3007 39.0451 40.7449 38.2836C43.2671 41.3928 47.0583 43.4232 51.3096 43.6453C51.2303 43.2646 51.1827 42.8681 51.1827 42.4715C51.1827 39.6478 53.4669 37.3477 56.3064 37.3477C57.7816 37.3477 59.1141 37.9664 60.05 38.9658C61.208 38.7437 62.3184 38.3154 63.302 37.7285C62.9212 38.9182 62.1122 39.9176 61.0494 40.552C62.0805 40.4411 63.0799 40.1555 63.9999 39.7589C63.302 40.7741 62.4295 41.6783 61.4302 42.408Z" fill="#091156"/>
<defs>
<filter id="filter0_d_2_1034" x="0" y="0" width="103" height="103" filterUnits="userSpaceOnUse" color-interpolation-filters="sRGB">
<feFlood flood-opacity="0" result="BackgroundImageFix"/>
<feColorMatrix in="SourceAlpha" type="matrix" values="0 0 0 0 0 0 0 0 0 0 0 0 0 0 0 0 0 0 127 0" result="hardAlpha"/>
<feMorphology radius="11" operator="dilate" in="SourceAlpha" result="effect1_dropShadow_2_1034"/>
<feOffset dy="4"/>
<feGaussianBlur stdDeviation="9.5"/>
<feComposite in2="hardAlpha" operator="out"/>
<feColorMatrix type="matrix" values="0 0 0 0 0.964706 0 0 0 0 0.968627 0 0 0 0 1 0 0 0 1 0"/>
<feBlend mode="normal" in2="BackgroundImageFix" result="effect1_dropShadow_2_1034"/>
<feBlend mode="normal" in="SourceGraphic" in2="effect1_dropShadow_2_1034" result="shape"/>
</filter>
</defs>
</svg>
