<svg width="25" height="28" viewBox="0 0 25 28" fill="none" xmlns="http://www.w3.org/2000/svg">
<path d="M22.4302 8.24936C22.446 8.49665 22.446 8.74399 22.446 8.99128C22.446 16.5339 17.2906 25.2247 7.86802 25.2247C4.96509 25.2247 2.26841 24.2884 0 22.6634C0.412451 22.7164 0.808984 22.734 1.2373 22.734C3.63257 22.734 5.83755 21.8332 7.59834 20.2964C5.3458 20.2434 3.45811 18.6006 2.80771 16.3396C3.125 16.3925 3.44224 16.4279 3.77539 16.4279C4.2354 16.4279 4.69546 16.3572 5.12373 16.2336C2.77603 15.7036 1.01519 13.4073 1.01519 10.634V10.5634C1.69727 10.9874 2.49048 11.2523 3.33115 11.2876C1.95107 10.2631 1.04692 8.51432 1.04692 6.53592C1.04692 5.47608 1.30068 4.50455 1.74487 3.65666C4.26709 7.11885 8.05835 9.37983 12.3096 9.62717C12.2303 9.20322 12.1827 8.76166 12.1827 8.32005C12.1827 5.17578 14.4669 2.6145 17.3064 2.6145C18.7816 2.6145 20.1141 3.3034 21.05 4.41625C22.208 4.16896 23.3184 3.69201 24.302 3.03845C23.9212 4.36329 23.1122 5.47614 22.0494 6.18266C23.0805 6.05907 24.0799 5.74104 24.9999 5.29948C24.302 6.42994 23.4295 7.43676 22.4302 8.24936Z" fill="white"/>
</svg>
