<svg width="525" height="352" viewBox="0 0 525 352" fill="none" xmlns="http://www.w3.org/2000/svg">
<path d="M525 322.336C509.46 333.454 469.325 329.52 445.272 283.853C415.205 226.769 382.097 215.224 325.341 215.224C269.179 215.224 225.343 181.872 208.789 133.768C192.235 85.6635 129.736 107.471 91.5611 89.5118C61.0211 75.1446 41.8998 24.5176 36.1566 1.00001" stroke="#E3E6FF"/>
<path d="M525 345.735C508.342 357.662 465.321 353.441 439.538 304.449C407.308 243.209 371.82 230.823 310.982 230.823C250.78 230.823 203.792 195.042 186.048 143.436C168.303 91.8286 101.31 115.224 60.3891 95.957C27.6527 80.5437 7.15619 26.2303 1.00001 1.00021" stroke="#E3E6FF"/>
<path d="M525 298.938C510.577 309.246 473.329 305.599 451.005 263.257C423.101 210.33 392.374 199.626 339.7 199.626C287.577 199.626 246.893 168.702 231.53 124.1C216.167 79.499 158.163 99.7182 122.733 83.067C94.3894 69.746 76.6432 22.8054 71.3131 1.00026" stroke="#E3E6FF"/>
</svg>
