<svg width="25" height="28" viewBox="0 0 25 28" fill="none" xmlns="http://www.w3.org/2000/svg">
<path d="M23.8564 7.54403C23.5838 6.40099 22.7805 5.50077 21.7607 5.19527C19.9122 4.64014 12.4998 4.64014 12.4998 4.64014C12.4998 4.64014 5.08749 4.64014 3.23892 5.19527C2.21909 5.50082 1.41587 6.40099 1.14326 7.54403C0.647949 9.61584 0.647949 13.9385 0.647949 13.9385C0.647949 13.9385 0.647949 18.2612 1.14326 20.333C1.41587 21.476 2.21909 22.3387 3.23892 22.6442C5.08749 23.1994 12.4998 23.1994 12.4998 23.1994C12.4998 23.1994 19.9121 23.1994 21.7607 22.6442C22.7805 22.3387 23.5838 21.476 23.8564 20.333C24.3517 18.2612 24.3517 13.9385 24.3517 13.9385C24.3517 13.9385 24.3517 9.61584 23.8564 7.54403ZM10.0756 17.8631V10.0139L16.2708 13.9386L10.0756 17.8631Z" fill="white"/>
</svg>
